<svg width="82" height="72" viewBox="0 0 82 72" fill="none" xmlns="http://www.w3.org/2000/svg">
<path d="M64.4312 40.0763C64.4312 50.9968 55.5785 59.8495 44.658 59.8495C39.3404 59.8495 34.5138 57.7511 30.9596 54.3359L63.8606 35.3405C64.2334 36.8573 64.4312 38.4434 64.4312 40.0763ZM58.3564 25.8167L25.4554 44.8121C25.0826 43.2952 24.8848 41.7092 24.8848 40.0763C24.8848 29.1559 33.7376 20.3031 44.658 20.3031C49.9756 20.3031 54.8023 22.4016 58.3564 25.8167ZM44.658 70.8495C61.6536 70.8495 75.4312 57.0719 75.4312 40.0763C75.4312 23.0807 61.6536 9.30309 44.658 9.30309C27.6624 9.30309 13.8848 23.0807 13.8848 40.0763C13.8848 57.0719 27.6624 70.8495 44.658 70.8495Z" fill="#3290FF" stroke="#F5DEA6"/>
<path d="M48.3279 20.9821C50.7477 21.7344 55.941 23.715 57.3562 25.6182L25.4641 44.6021L24.9839 40.6325C24.2156 41.038 22.4869 41.9877 21.7186 42.5423C20.9503 43.0969 18.8105 43.9456 17.8367 44.3006C17.8281 45.3191 17.7083 47.3612 17.2975 47.3818C16.7839 47.4075 15.0636 46.1493 14.2163 45.1736C13.369 44.1979 11.4432 44.3006 10.9554 44.1209C10.5651 43.9771 8.50722 43.0086 7.52708 42.5423C6.32921 42.7314 3.90598 42.9962 3.79593 42.5423C3.68589 42.0883 5.26448 40.0498 6.06753 39.0873C5.87502 39.0687 5.24035 39.0128 4.24176 38.9383C2.99352 38.8451 1.63356 38.8824 1.50315 38.1372C1.39882 37.541 3.99336 35.9389 5.30367 35.2123C5.10495 34.9949 4.61436 34.4786 4.24176 34.1518C3.77601 33.7434 2.24663 32.9241 1.93183 32.1371C1.61703 31.3501 2.71882 31.0983 4.13541 31.4131C5.552 31.7279 8.63703 32.8612 10.6203 34.1518C12.2068 35.1844 14.6565 36.1905 15.6829 36.5645L26.1002 26.3733C25.638 25.3392 24.6853 23.0124 24.5725 21.9782C24.4315 20.6856 25.2071 19.3224 25.8417 18.1472C26.4762 16.9721 28.8971 14.6923 29.8372 13.0941C30.7773 11.4959 31.741 8.86355 32.0465 8.44049C32.352 8.01744 34.6789 4.96204 36.1595 4.98554C37.6402 5.00905 38.7919 4.633 40.2256 3.55186C41.6592 2.47072 44.5031 1.62461 45.3727 2.25919C46.2423 2.89377 47.629 5.64363 48.0756 5.76114C48.4328 5.85516 49.9323 5.58095 50.6374 5.4321C50.7628 5.6828 50.8536 6.33932 50.2143 6.9598C49.5751 7.58028 47.1043 8.20546 45.9488 8.44049L46.2188 9.54513L45.3727 9.82717C45.5444 11.4307 45.9 14.9551 45.9488 16.2239C45.9976 17.4927 47.5552 19.9247 48.3279 20.9821Z" fill="#3290FF"/>
<path d="M41.906 59.6681C39.4565 59.3619 34.8043 57.2017 32.7844 56.1598L34.8943 53.8755L33.8278 52.6859L55.6536 40.5077L63.5999 35.9282L65.3292 36.3069C67.2001 35.3084 71.231 33.2011 72.388 32.7603C73.8342 32.2094 75.3148 32.1405 76.3133 32.3816C77.3119 32.6226 77.2775 32.9669 76.6921 33.8966C76.1067 34.8263 75.2803 35.0329 73.7309 36.3069C72.4913 37.3261 71.7223 38.7746 71.4927 39.3714C72.1584 39.4059 73.724 39.5298 74.6605 39.7502C75.8313 40.0257 78.4482 40.8865 79.1368 41.5063C79.8255 42.1261 79.5844 43.1246 79.1368 43.4345C78.6892 43.7444 76.0036 43.3312 74.6606 43.1246L74.6605 43.1246C73.5862 42.9593 72.101 43.4001 71.4927 43.6411C71.9174 43.8477 72.9114 44.378 73.4898 44.8463C74.2129 45.4316 75.7624 47.4287 75.5902 47.7386C75.4181 48.0485 74.2129 48.2896 72.388 47.7386C70.563 47.1877 69.048 45.0529 68.256 44.8463C67.6225 44.681 64.888 45.3491 63.5999 45.7037C63.4417 46.1783 62.8406 47.6684 61.7017 49.8325C60.278 52.5375 57.3562 55.7771 52.686 57.8821C48.0159 59.987 44.9678 60.0508 41.906 59.6681Z" fill="#3290FF"/>
<path d="M35.5015 22.9095L35.0781 22.6435C34.9327 22.8749 34.8355 23.1207 34.7566 23.3453C34.7223 23.4427 34.6933 23.5301 34.6656 23.6137C34.6232 23.7414 34.5838 23.8603 34.5329 23.9929L34.4629 24.1755L34.5354 24.3572C34.5894 24.4926 34.6323 24.617 34.6784 24.7505C34.7056 24.8293 34.7339 24.9113 34.7663 25.0006C34.8467 25.2228 34.9444 25.4658 35.0874 25.6942L35.0874 25.6942L35.0903 25.6987C35.3591 26.1178 35.7753 26.3611 36.2361 26.362C36.6864 26.3629 37.1026 26.1329 37.3974 25.7647C37.7537 25.3227 37.9061 24.7168 37.9084 24.158C37.9108 23.5999 37.7637 22.9933 37.4085 22.5522C37.1088 22.1771 36.6928 21.9262 36.2261 21.9343C35.7486 21.9427 35.3437 22.2196 35.0778 22.6441L35.5015 22.9095ZM35.5015 22.9095C35.8959 22.28 36.5569 22.2865 37.0185 22.8651L37.0076 25.4516C36.5742 25.9934 35.8851 26.0118 35.5112 25.4288C35.3569 25.1823 35.2588 24.8988 35.1567 24.6035C35.1076 24.4614 35.0575 24.3166 34.9998 24.1719C35.0535 24.0319 35.1001 23.8917 35.146 23.7539C35.2464 23.4522 35.343 23.1617 35.5015 22.9095Z" fill="#03001B" stroke="#F5DEA6"/>
<path d="M36.2675 13.1002C36.2113 13.3565 36.1472 13.618 36.0665 13.8701C36.0014 14.0741 35.8553 14.242 35.7329 14.3483C35.6654 14.407 35.5854 14.4642 35.4966 14.509C35.4139 14.5507 35.2891 14.599 35.1414 14.598C34.8757 14.5961 34.6663 14.4376 34.5646 14.3492C34.4405 14.2412 34.3254 14.1025 34.2478 13.9634L34.2476 13.963C33.8527 13.2536 33.7805 12.4315 34.1906 11.6744L36.2675 13.1002ZM36.2675 13.1002L36.3782 13.0751L36.5071 13.0459L37.0333 12.9265L36.8743 12.4109C36.8631 12.3745 36.8526 12.3308 36.8396 12.2709C36.8372 12.2596 36.8345 12.2474 36.8317 12.2343C36.8213 12.1857 36.8087 12.1265 36.7948 12.071C36.7611 11.9355 36.699 11.7233 36.5438 11.5451L36.5438 11.5451L36.542 11.543C36.4327 11.4189 36.28 11.2548 36.1063 11.1206C35.9481 10.9982 35.6874 10.8326 35.3727 10.8428C35.0819 10.8521 34.8246 11.0045 34.6531 11.1392C34.4706 11.2826 34.2995 11.4734 34.1907 11.6743L36.2675 13.1002Z" fill="#03001B" stroke="#F5DEA6"/>
<path d="M40.4262 11.497C40.4991 11.4972 40.5672 11.5081 40.6295 11.5251L40.6401 11.4824L40.6723 11.5381C40.7463 11.5626 40.811 11.595 40.8645 11.6268C40.9741 11.692 41.0696 11.7741 41.148 11.8517C41.3046 12.0067 41.4403 12.1915 41.5352 12.3332L41.5361 12.3345L41.5361 12.3345C41.6714 12.538 41.7101 12.7639 41.7136 12.9525C41.7171 13.1429 41.6855 13.3314 41.6455 13.495L41.3506 14.7027L41.0194 14.1313C40.9902 14.2255 40.9584 14.3182 40.9233 14.408L40.9171 14.424L40.9097 14.4395C40.8265 14.6156 40.7039 14.7701 40.5515 14.8912L40.2469 14.5079L40.5515 14.8912C40.3991 15.0124 40.2209 15.0969 40.0306 15.1382L40.0001 15.1448L39.9691 15.1476C39.7588 15.1664 39.5983 15.0691 39.5264 15.019C39.4397 14.9586 39.3667 14.8849 39.3103 14.8195C39.1983 14.6898 39.0946 14.5266 39.0314 14.3779C38.7363 13.6913 38.738 12.9126 39.1848 12.2496L39.1864 12.2473L39.1864 12.2473C39.3136 12.0608 39.4958 11.8839 39.6912 11.7513C39.8763 11.6257 40.139 11.4953 40.4262 11.497ZM40.4262 11.497C40.4267 11.497 40.4273 11.497 40.4279 11.497L40.4241 11.997V11.497C40.4248 11.497 40.4255 11.497 40.4262 11.497Z" fill="#03001B" stroke="#F5DEA6"/>
<path d="M35.3204 17.8056L36.0318 18.0383C36.2091 18.0963 36.4121 18.1809 36.5778 18.2499C36.6599 18.2841 36.7328 18.3145 36.7888 18.3359C37.0067 18.4192 37.1197 18.4359 37.1898 18.4261M35.3204 17.8056L37.1898 18.4261M35.3204 17.8056L35.3779 18.5519M35.3204 17.8056L35.3779 18.5519M37.1898 18.4261C37.189 18.4262 37.1885 18.4262 37.1885 18.4261M37.1898 18.4261L37.1885 18.4261M35.3779 18.5519C35.4131 19.0088 35.5789 19.3761 35.8426 19.6523C36.0989 19.9208 36.4183 20.0724 36.7168 20.1594M35.3779 18.5519L38.4737 17.1871M37.1905 18.426C37.1905 18.426 37.1906 18.426 37.1907 18.4259M37.1905 18.426L37.1907 18.4259M37.1905 18.426L37.1907 18.4259M37.1905 18.426L37.1907 18.4259M38.4737 17.1871L38.6973 17.9621C38.7972 18.3084 38.8183 18.6661 38.7221 19.0045C38.6241 19.3488 38.4137 19.6402 38.1087 19.8563C37.9266 19.9859 37.6997 20.0881 37.4736 20.147C37.2553 20.2039 36.9782 20.2359 36.7168 20.1594M38.4737 17.1871L37.8791 17.7321M38.4737 17.1871L37.8791 17.7321M36.7168 20.1594C36.7166 20.1593 36.7164 20.1593 36.7163 20.1592L36.857 19.6794M36.7168 20.1594C36.7169 20.1594 36.7171 20.1595 36.7173 20.1595L36.857 19.6794M36.857 19.6794C36.539 19.5869 36.2418 19.4183 36.0584 19.1171C35.9506 19.0718 35.8468 19.0299 35.721 18.9888L35.8764 18.5135L36.3749 18.4751C36.3826 18.5752 36.4005 18.6585 36.4251 18.7285C36.7253 18.8534 37.0023 18.9579 37.2612 18.9209C37.447 18.8948 37.6148 18.7439 37.7841 18.562C37.7858 18.4702 37.7722 18.3629 37.7365 18.2393L38.2169 18.1007L38.5547 18.4693C38.4891 18.5294 38.4218 18.6013 38.3447 18.6869C38.328 18.7055 38.3104 18.7253 38.2921 18.7457C38.2824 18.7566 38.2724 18.7677 38.2624 18.779C38.2102 19.0458 38.0641 19.2752 37.8192 19.4487C37.5635 19.6307 37.1377 19.7618 36.857 19.6794ZM37.8791 17.7321C37.7762 17.8264 37.6822 17.9282 37.6015 18.0179M37.8791 17.7321L37.6015 18.0179M37.6015 18.0179C37.5785 18.0434 37.557 18.0675 37.5364 18.0905M37.6015 18.0179L37.5364 18.0905M37.5364 18.0905C37.4798 18.154 37.4306 18.2091 37.3795 18.2621M37.5364 18.0905L37.3795 18.2621M37.3795 18.2621C37.2425 18.4045 37.188 18.4249 37.1885 18.4261M37.3795 18.2621L37.1885 18.4261" fill="#03001B" stroke="#F5DEA6"/>
<path d="M39.9076 8.46228L39.1151 8.67893L39.6716 9.28329C39.7517 9.37024 39.832 9.45959 39.9135 9.55018C40.4358 10.131 41.004 10.7628 41.8408 11.1423L42.591 11.4826L42.5465 10.6599C42.5097 9.97922 42.1642 9.36011 41.6952 8.94807C41.2291 8.53861 40.5734 8.28026 39.9076 8.46228Z" fill="#03001B" stroke="#F5DEA6"/>
<path d="M35.0074 9.03967C35.0561 8.96828 35.1061 8.89743 35.1577 8.8276L35.2227 8.87556C35.427 8.73981 35.6567 8.64141 35.9192 8.594L35.0074 9.03967ZM35.0074 9.03967C34.7906 9.22713 34.6044 9.45827 34.4374 9.71175M34.1322 11.2255L34.6122 11.7579L34.946 11.1235C34.9965 11.0275 35.0394 10.9439 35.078 10.8689C35.1661 10.6973 35.2313 10.5705 35.3112 10.4425L35.3113 10.4425L35.3158 10.4349C35.3353 10.4025 35.3546 10.3703 35.3738 10.3383C35.5706 10.0096 35.7531 9.70489 35.9623 9.42133L35.9623 9.42133L35.9639 9.4192C35.9778 9.40012 36.0075 9.36972 36.0794 9.3158C36.0929 9.30563 36.1142 9.29035 36.1396 9.27206C36.2008 9.22802 36.2862 9.16659 36.3465 9.11737L36.7285 8.80551L36.4219 8.41922L36.3136 8.28269L36.1278 8.04866L35.8337 8.10135C34.9727 8.2556 34.4168 8.83421 34.0199 9.43667L34.0199 9.43667L34.0194 9.43742L34.0193 9.43758C33.9203 9.5884 33.7485 9.85013 33.7203 10.1816C33.6892 10.548 33.8347 10.8956 34.1322 11.2255Z" fill="#03001B" stroke="#F5DEA6"/>
<mask id="path-9-outside-1_12_237104" maskUnits="userSpaceOnUse" x="-0.871552" y="0.620956" width="82" height="58" fill="black">
<rect fill="white" x="-0.871552" y="0.620956" width="82" height="58"/>
<path d="M79.194 41.1871C78.4248 40.7605 77.6216 40.3981 76.7928 40.1035C76.0885 39.8446 75.3398 39.707 74.6257 39.5195L71.8702 39.1153C72.1269 38.6525 72.4136 38.2069 72.7284 37.7815C73.2701 37.0425 74.3288 36.1323 74.3288 36.1323C74.6289 35.9307 74.9453 35.7541 75.2206 35.5266C75.8815 34.9783 76.6292 34.4853 77.1461 33.8221C77.8114 32.9791 77.3747 32.0884 76.3117 32.0332C75.3885 31.9844 74.4577 32.0884 73.4576 32.1285C72.8931 32.1567 65.2225 35.9047 65.2225 35.9047C65.1488 36.1919 65.0925 36.4075 64.9928 36.7965C65.786 36.5039 66.4849 36.3013 67.1361 35.9968C69.0475 35.1061 70.9405 34.1775 72.84 33.2608C73.6136 32.887 74.4144 32.6107 75.2867 32.6952C75.7504 32.7396 76.3182 32.7862 76.4645 33.2977C76.6108 33.8091 76.0809 34.0562 75.7288 34.3108C74.0557 35.5428 72.3979 36.7867 71.3598 38.657C70.9784 39.345 71.0749 40.252 71.6502 40.7157C71.713 40.5351 71.7665 40.3514 71.8106 40.1653C71.8431 39.9941 71.8442 39.8153 71.8659 39.5585C72.7641 39.7546 73.6234 39.928 74.4751 40.135C75.3268 40.3419 76.1448 40.5814 76.9803 40.8035C77.7234 40.9936 78.363 41.4664 78.7627 42.1211C79.0997 42.6542 78.9372 43.0898 78.3293 43.2155C77.8896 43.3055 77.4387 43.3281 76.9922 43.2827C76.3124 43.1968 75.6375 43.0756 74.9703 42.9197C73.7122 42.6499 72.5539 42.9566 71.2482 43.4918L72.1519 44.2937C72.7847 44.855 73.437 45.3967 74.0416 45.9873C74.2897 46.2486 74.4867 46.554 74.6224 46.8877C74.8922 47.5032 74.6387 47.8824 73.9723 47.7546C73.3392 47.6378 72.7304 47.4151 72.1714 47.0958C71.5397 46.7274 70.9979 46.2029 70.4161 45.7478C70.1181 45.5149 69.819 45.2819 69.5156 45.0565C68.7062 44.454 67.809 44.3132 66.85 44.5862C66.0536 44.8127 65.2702 45.0879 64.4662 45.3057C63.7955 45.4867 63.0858 45.4606 62.4302 45.231C63.1009 44.8246 63.8507 44.6892 64.2387 44.0575C64.217 44.0098 64.1953 43.9621 64.1726 43.9144C63.9755 43.9496 63.7817 44.0007 63.5929 44.0672C61.9404 44.8051 60.2403 45.4141 58.4394 45.6286C57.6647 45.7207 56.8574 45.659 56.0794 45.5571C55.3274 45.4585 55.0435 44.83 55.3708 44.1485C55.7934 43.2589 56.3525 42.4755 57.1803 41.9012C57.5497 41.6445 57.8947 41.3543 58.2108 41.0343C58.3809 40.862 58.46 40.6009 58.6085 40.3267C57.85 40.175 57.669 40.7883 57.3504 40.9877L55.7641 39.6593C55.1833 39.9052 54.8723 40.0537 54.8723 40.0537L56.5042 41.4764C55.9147 42.2945 55.3123 43.0812 54.7705 43.9036C54.5855 44.2123 54.4615 44.5537 54.4053 44.9091C54.2471 45.7218 54.8669 46.4196 55.7056 46.4738C57.3309 46.5822 58.9129 46.4641 60.4527 45.9147C60.5721 45.8769 60.6969 45.8589 60.8222 45.8616C62.3153 45.8475 64.8455 45.9602 65.527 45.8746C66.2086 45.789 67.2607 45.0424 68.4938 45.3068C69.7269 45.5712 70.1982 47.0914 71.4097 47.7427C72.6211 48.3939 73.5367 48.3029 73.5367 48.3029C73.9972 48.3029 74.4328 48.3451 74.8576 48.2931C75.6941 48.1923 75.9953 47.6105 75.6226 46.853C75.502 46.6321 75.3542 46.4271 75.1826 46.243C74.8771 45.8908 74.5553 45.5517 74.1934 45.1594L71.8767 43.7346C71.8767 43.7346 72.1866 43.6771 72.7728 43.5634C73.359 43.4496 74.4534 43.4875 74.4534 43.4875C75.4535 43.65 76.3886 43.8451 77.3346 43.9404C77.9618 43.9857 78.5919 43.9687 79.2157 43.8895C79.7249 43.8375 79.9991 43.4821 80.0652 42.9771C80.1616 42.1916 79.8441 41.5566 79.194 41.1871ZM48.8943 57.0515C44.6262 56.6907 40.5661 55.5541 36.6739 53.79C35.3063 53.1924 35.1213 53.3635 34.0233 52.3527L32.8314 52.7547L32.9497 53.4029C32.9497 53.4029 33.0228 53.3738 31.6087 53.9774C30.6714 54.3794 31.1856 55.0738 30.8974 54.9405L32.9497 56.2592C34.1514 55.1063 34.4656 55.7198 35.2122 54.3307C36.7443 54.8855 38.2375 55.463 39.7556 55.9669C42.5576 56.8966 45.4269 57.5121 48.3905 57.5922C48.8358 57.6031 49.2833 57.5218 49.7297 57.4839C49.7297 57.395 49.7362 57.3062 49.7384 57.2173C49.4604 57.146 49.1786 57.0907 48.8943 57.0515ZM50.628 5.09252C50.1491 5.16945 49.6712 5.26048 49.1956 5.35908C48.1998 5.56496 47.7111 5.35909 47.2321 4.46731C47.0085 4.01547 46.8106 3.55131 46.6394 3.07709C46.206 1.96861 45.6512 1.58178 44.4539 1.62404C42.4146 1.69556 40.6614 2.52014 39.1975 3.87785C38.568 4.4608 37.9612 4.69702 37.1247 4.62117C35.7995 4.49981 34.6931 4.99392 33.8133 6.0038C33.5781 6.2736 33.2715 6.48056 33.0299 6.74495C32.5715 7.24772 32.0427 7.72017 31.7133 8.29987C31.1921 9.2209 30.7901 10.2124 30.3751 11.1908C29.4606 13.3493 28.2319 15.2802 26.3573 16.7322C24.4069 19.4963 23.6885 21.2766 24.4069 23.0558C25.1253 24.835 25.6443 26.2881 25.6443 26.2881L21.7814 29.8736L16.0255 36.0337L15.0503 36.0727C14.8986 36.0022 14.787 35.9546 14.6776 35.8993C12.7055 34.884 10.7496 33.8405 8.75805 32.8653C7.12295 32.0635 5.44777 31.3288 3.62847 31.0449C3.13341 30.958 2.62611 30.9691 2.13531 31.0775C1.32481 31.2822 1.13735 32.0202 1.73006 32.5999C2.17757 33.0333 2.70526 33.3984 3.19937 33.7831C3.77366 34.2285 4.35554 34.6619 5.01218 35.1603C4.64268 35.4052 4.41296 35.5753 4.16808 35.7162C3.44859 36.129 2.71069 36.5083 2.00095 36.9428C1.50035 37.2505 0.991073 37.6579 1.16228 38.3211C1.32481 38.9506 1.95002 39.0796 2.51239 39.1218C3.24813 39.1684 3.9893 39.1218 4.72829 39.1327C4.98509 39.1327 5.24081 39.1944 5.66123 39.2486C5.37951 39.6972 5.21371 40.0548 4.96341 40.3322C4.582 40.7656 4.12907 41.1286 3.73248 41.5479C3.40091 41.8979 3.15278 42.2923 3.37707 42.8135C3.60137 43.3347 4.03913 43.4994 4.52673 43.4214C5.44776 43.274 6.36229 43.0768 7.26815 42.8504C7.65932 42.7529 7.97789 42.742 8.33871 42.9587C9.0552 43.4105 9.79683 43.8211 10.56 44.1886C10.9643 44.3843 11.4117 44.4742 11.8603 44.4497C12.1102 44.4183 12.364 44.442 12.6038 44.5192C12.8435 44.5963 13.0636 44.725 13.2483 44.8961C13.9895 45.5528 14.7155 46.2278 15.4306 46.9137C15.4885 46.9757 15.5318 47.0497 15.5574 47.1304C15.5574 47.1304 17.0614 47.8889 17.6292 47.7036C18.197 47.5184 18.159 44.2948 18.159 44.2948C18.159 44.2948 20.9243 43.6511 22.4012 42.5524C23.8781 41.4537 26.8514 40.5586 26.8514 40.5586L28.402 39.8619C28.3846 39.7958 28.3684 39.7286 28.351 39.6625C28.1127 39.6419 27.8743 39.6051 27.637 39.6051C25.9921 39.6051 24.5445 40.2758 23.1413 41.0137C22.1249 41.5501 21.2049 42.2652 20.2005 42.8255C19.4864 43.2231 18.7019 43.4951 17.8676 43.8592V42.5524C17.572 42.7981 17.3535 43.1238 17.2382 43.4904C17.1229 43.8571 17.1157 44.2492 17.2174 44.6198C17.3117 44.9449 17.4699 45.27 17.5046 45.6037C17.5392 45.9374 17.4656 46.3134 17.4396 46.6613C16.6876 46.6981 16.1555 46.5464 15.7319 46.087C15.5249 45.8616 15.2833 45.6633 15.1002 45.4195C14.2647 44.3078 13.0273 43.7649 11.8646 43.1223C11.3402 42.832 11.1831 42.9349 10.7204 43.6717L7.12621 41.1676L6.95609 41.276C6.99076 41.5783 7.02435 41.8806 7.07419 42.3162C6.33303 42.4484 5.54746 42.6109 4.75429 42.7128C4.59501 42.7323 4.33495 42.5632 4.25152 42.4104C4.18108 42.2826 4.24285 42.003 4.34904 41.8687C4.96992 41.1102 5.62006 40.369 6.29945 39.5802L7.52062 40.2693C7.49136 40.0526 7.51304 39.9172 7.45669 39.8424C6.97451 39.2063 6.3948 38.7025 5.55071 38.6581C5.02951 38.631 4.50507 38.6581 3.98171 38.6581C3.72856 38.6698 3.47488 38.6608 3.22322 38.631C2.78979 38.5562 2.248 38.5573 2.10714 38.0285C1.96628 37.4997 2.52323 37.3643 2.82771 37.1497C3.59271 36.608 4.40213 36.1409 5.17363 35.6555L6.51508 36.6741L6.72095 36.5451C6.61259 36.2558 6.56709 35.9036 6.37313 35.6891C5.83616 35.0838 5.2568 34.5175 4.63943 33.9944C4.05972 33.5122 3.38249 33.1481 2.79737 32.6779C2.59149 32.5132 2.37045 32.1621 2.40946 31.94C2.48206 31.5325 2.90573 31.6051 3.2243 31.6452C4.73154 31.8327 6.13149 32.3799 7.45669 33.0766C9.48404 34.1418 11.4496 35.3229 13.4781 36.3826C14.333 36.8301 15.2714 37.127 16.1945 37.426C16.5066 37.5268 16.8848 37.426 17.2326 37.412C17.2488 37.3209 17.264 37.231 17.2792 37.14L16.0266 36.557C16.9725 35.8083 17.8773 35.0639 18.8114 34.3607C20.0585 33.4212 21.1952 32.3853 22.0523 31.0623C23.073 29.4955 24.6983 28.5907 26.1492 27.3608L27.858 29.1877L28.0368 29.1325C27.987 28.8897 27.9913 28.6167 27.8764 28.4108C27.5243 27.7823 27.0757 27.2048 26.7571 26.5612C26.1839 25.4017 25.6421 24.2228 25.1535 23.0255C24.72 21.9625 24.9086 20.9093 25.3702 19.8832C25.9723 18.5329 26.8258 17.3095 27.8851 16.2782C29.3154 14.8825 30.3155 13.1564 31.1358 11.3339C31.4912 10.545 31.8098 9.73343 32.241 8.98794C32.5661 8.42232 33.0396 7.93905 33.4633 7.43194C33.6702 7.1838 33.9444 6.98875 34.1351 6.73086C34.8427 5.77625 35.819 5.36774 36.9589 5.41867C38.0013 5.46418 38.8475 5.09361 39.6602 4.50415C40.3862 3.97537 41.1143 3.42058 41.9183 3.03483C42.5327 2.7401 43.2598 2.64367 43.9489 2.5494C44.8689 2.42262 45.4919 2.88964 45.8918 3.70123C46.1346 4.22435 46.4048 4.73433 46.7012 5.22905C47.2711 6.13166 48.06 6.3993 49.0764 6.0959C49.3873 6.00488 49.7027 5.92904 50.018 5.85969C50.1108 5.85318 50.2041 5.85901 50.2954 5.87703C50.4156 6.37005 50.0787 6.58568 49.7785 6.7948C48.7889 7.49912 47.6441 7.95444 46.4411 8.12217C45.804 8.21102 45.4247 8.43532 45.4399 9.22957C45.013 8.62602 44.6554 8.12325 44.2989 7.62048L44.0822 7.74725C44.1635 7.96396 44.2112 8.19802 44.3314 8.38981C45.3001 9.92847 45.6566 11.6199 45.5234 13.4056C45.3695 15.3799 45.7693 17.1981 46.79 18.8949C47.1379 19.4768 47.3719 20.1335 47.606 20.7749C48.4067 22.9811 47.879 24.9922 46.6676 26.8971C46.2408 27.5441 45.8602 28.2205 45.5288 28.9212C46.3935 28.2622 47.0904 27.4083 47.5626 26.429C48.0437 25.4538 48.3699 24.4027 48.7675 23.3776C48.7069 20.4921 47.1617 18.8397 46.3534 16.4667C45.545 14.0937 46.7066 14.1912 45.7932 10.26L46.5744 9.80169C46.4856 9.42353 46.4054 9.08328 46.3144 8.69862C46.5928 8.63035 46.8182 8.58051 47.0403 8.51874C47.6992 8.33562 48.3655 8.17526 49.0135 7.9553C49.4897 7.80546 49.9241 7.54592 50.2817 7.19756C50.6393 6.84919 50.9101 6.42175 51.0723 5.94962C51.159 5.71232 51.1189 5.42952 51.1373 5.15646C50.8697 5.1207 50.7472 5.0741 50.6248 5.09252H50.628Z"/>
</mask>
<path d="M79.194 41.1871C78.4248 40.7605 77.6216 40.3981 76.7928 40.1035C76.0885 39.8446 75.3398 39.707 74.6257 39.5195L71.8702 39.1153C72.1269 38.6525 72.4136 38.2069 72.7284 37.7815C73.2701 37.0425 74.3288 36.1323 74.3288 36.1323C74.6289 35.9307 74.9453 35.7541 75.2206 35.5266C75.8815 34.9783 76.6292 34.4853 77.1461 33.8221C77.8114 32.9791 77.3747 32.0884 76.3117 32.0332C75.3885 31.9844 74.4577 32.0884 73.4576 32.1285C72.8931 32.1567 65.2225 35.9047 65.2225 35.9047C65.1488 36.1919 65.0925 36.4075 64.9928 36.7965C65.786 36.5039 66.4849 36.3013 67.1361 35.9968C69.0475 35.1061 70.9405 34.1775 72.84 33.2608C73.6136 32.887 74.4144 32.6107 75.2867 32.6952C75.7504 32.7396 76.3182 32.7862 76.4645 33.2977C76.6108 33.8091 76.0809 34.0562 75.7288 34.3108C74.0557 35.5428 72.3979 36.7867 71.3598 38.657C70.9784 39.345 71.0749 40.252 71.6502 40.7157C71.713 40.5351 71.7665 40.3514 71.8106 40.1653C71.8431 39.9941 71.8442 39.8153 71.8659 39.5585C72.7641 39.7546 73.6234 39.928 74.4751 40.135C75.3268 40.3419 76.1448 40.5814 76.9803 40.8035C77.7234 40.9936 78.363 41.4664 78.7627 42.1211C79.0997 42.6542 78.9372 43.0898 78.3293 43.2155C77.8896 43.3055 77.4387 43.3281 76.9922 43.2827C76.3124 43.1968 75.6375 43.0756 74.9703 42.9197C73.7122 42.6499 72.5539 42.9566 71.2482 43.4918L72.1519 44.2937C72.7847 44.855 73.437 45.3967 74.0416 45.9873C74.2897 46.2486 74.4867 46.554 74.6224 46.8877C74.8922 47.5032 74.6387 47.8824 73.9723 47.7546C73.3392 47.6378 72.7304 47.4151 72.1714 47.0958C71.5397 46.7274 70.9979 46.2029 70.4161 45.7478C70.1181 45.5149 69.819 45.2819 69.5156 45.0565C68.7062 44.454 67.809 44.3132 66.85 44.5862C66.0536 44.8127 65.2702 45.0879 64.4662 45.3057C63.7955 45.4867 63.0858 45.4606 62.4302 45.231C63.1009 44.8246 63.8507 44.6892 64.2387 44.0575C64.217 44.0098 64.1953 43.9621 64.1726 43.9144C63.9755 43.9496 63.7817 44.0007 63.5929 44.0672C61.9404 44.8051 60.2403 45.4141 58.4394 45.6286C57.6647 45.7207 56.8574 45.659 56.0794 45.5571C55.3274 45.4585 55.0435 44.83 55.3708 44.1485C55.7934 43.2589 56.3525 42.4755 57.1803 41.9012C57.5497 41.6445 57.8947 41.3543 58.2108 41.0343C58.3809 40.862 58.46 40.6009 58.6085 40.3267C57.85 40.175 57.669 40.7883 57.3504 40.9877L55.7641 39.6593C55.1833 39.9052 54.8723 40.0537 54.8723 40.0537L56.5042 41.4764C55.9147 42.2945 55.3123 43.0812 54.7705 43.9036C54.5855 44.2123 54.4615 44.5537 54.4053 44.9091C54.2471 45.7218 54.8669 46.4196 55.7056 46.4738C57.3309 46.5822 58.9129 46.4641 60.4527 45.9147C60.5721 45.8769 60.6969 45.8589 60.8222 45.8616C62.3153 45.8475 64.8455 45.9602 65.527 45.8746C66.2086 45.789 67.2607 45.0424 68.4938 45.3068C69.7269 45.5712 70.1982 47.0914 71.4097 47.7427C72.6211 48.3939 73.5367 48.3029 73.5367 48.3029C73.9972 48.3029 74.4328 48.3451 74.8576 48.2931C75.6941 48.1923 75.9953 47.6105 75.6226 46.853C75.502 46.6321 75.3542 46.4271 75.1826 46.243C74.8771 45.8908 74.5553 45.5517 74.1934 45.1594L71.8767 43.7346C71.8767 43.7346 72.1866 43.6771 72.7728 43.5634C73.359 43.4496 74.4534 43.4875 74.4534 43.4875C75.4535 43.65 76.3886 43.8451 77.3346 43.9404C77.9618 43.9857 78.5919 43.9687 79.2157 43.8895C79.7249 43.8375 79.9991 43.4821 80.0652 42.9771C80.1616 42.1916 79.8441 41.5566 79.194 41.1871ZM48.8943 57.0515C44.6262 56.6907 40.5661 55.5541 36.6739 53.79C35.3063 53.1924 35.1213 53.3635 34.0233 52.3527L32.8314 52.7547L32.9497 53.4029C32.9497 53.4029 33.0228 53.3738 31.6087 53.9774C30.6714 54.3794 31.1856 55.0738 30.8974 54.9405L32.9497 56.2592C34.1514 55.1063 34.4656 55.7198 35.2122 54.3307C36.7443 54.8855 38.2375 55.463 39.7556 55.9669C42.5576 56.8966 45.4269 57.5121 48.3905 57.5922C48.8358 57.6031 49.2833 57.5218 49.7297 57.4839C49.7297 57.395 49.7362 57.3062 49.7384 57.2173C49.4604 57.146 49.1786 57.0907 48.8943 57.0515ZM50.628 5.09252C50.1491 5.16945 49.6712 5.26048 49.1956 5.35908C48.1998 5.56496 47.7111 5.35909 47.2321 4.46731C47.0085 4.01547 46.8106 3.55131 46.6394 3.07709C46.206 1.96861 45.6512 1.58178 44.4539 1.62404C42.4146 1.69556 40.6614 2.52014 39.1975 3.87785C38.568 4.4608 37.9612 4.69702 37.1247 4.62117C35.7995 4.49981 34.6931 4.99392 33.8133 6.0038C33.5781 6.2736 33.2715 6.48056 33.0299 6.74495C32.5715 7.24772 32.0427 7.72017 31.7133 8.29987C31.1921 9.2209 30.7901 10.2124 30.3751 11.1908C29.4606 13.3493 28.2319 15.2802 26.3573 16.7322C24.4069 19.4963 23.6885 21.2766 24.4069 23.0558C25.1253 24.835 25.6443 26.2881 25.6443 26.2881L21.7814 29.8736L16.0255 36.0337L15.0503 36.0727C14.8986 36.0022 14.787 35.9546 14.6776 35.8993C12.7055 34.884 10.7496 33.8405 8.75805 32.8653C7.12295 32.0635 5.44777 31.3288 3.62847 31.0449C3.13341 30.958 2.62611 30.9691 2.13531 31.0775C1.32481 31.2822 1.13735 32.0202 1.73006 32.5999C2.17757 33.0333 2.70526 33.3984 3.19937 33.7831C3.77366 34.2285 4.35554 34.6619 5.01218 35.1603C4.64268 35.4052 4.41296 35.5753 4.16808 35.7162C3.44859 36.129 2.71069 36.5083 2.00095 36.9428C1.50035 37.2505 0.991073 37.6579 1.16228 38.3211C1.32481 38.9506 1.95002 39.0796 2.51239 39.1218C3.24813 39.1684 3.9893 39.1218 4.72829 39.1327C4.98509 39.1327 5.24081 39.1944 5.66123 39.2486C5.37951 39.6972 5.21371 40.0548 4.96341 40.3322C4.582 40.7656 4.12907 41.1286 3.73248 41.5479C3.40091 41.8979 3.15278 42.2923 3.37707 42.8135C3.60137 43.3347 4.03913 43.4994 4.52673 43.4214C5.44776 43.274 6.36229 43.0768 7.26815 42.8504C7.65932 42.7529 7.97789 42.742 8.33871 42.9587C9.0552 43.4105 9.79683 43.8211 10.56 44.1886C10.9643 44.3843 11.4117 44.4742 11.8603 44.4497C12.1102 44.4183 12.364 44.442 12.6038 44.5192C12.8435 44.5963 13.0636 44.725 13.2483 44.8961C13.9895 45.5528 14.7155 46.2278 15.4306 46.9137C15.4885 46.9757 15.5318 47.0497 15.5574 47.1304C15.5574 47.1304 17.0614 47.8889 17.6292 47.7036C18.197 47.5184 18.159 44.2948 18.159 44.2948C18.159 44.2948 20.9243 43.6511 22.4012 42.5524C23.8781 41.4537 26.8514 40.5586 26.8514 40.5586L28.402 39.8619C28.3846 39.7958 28.3684 39.7286 28.351 39.6625C28.1127 39.6419 27.8743 39.6051 27.637 39.6051C25.9921 39.6051 24.5445 40.2758 23.1413 41.0137C22.1249 41.5501 21.2049 42.2652 20.2005 42.8255C19.4864 43.2231 18.7019 43.4951 17.8676 43.8592V42.5524C17.572 42.7981 17.3535 43.1238 17.2382 43.4904C17.1229 43.8571 17.1157 44.2492 17.2174 44.6198C17.3117 44.9449 17.4699 45.27 17.5046 45.6037C17.5392 45.9374 17.4656 46.3134 17.4396 46.6613C16.6876 46.6981 16.1555 46.5464 15.7319 46.087C15.5249 45.8616 15.2833 45.6633 15.1002 45.4195C14.2647 44.3078 13.0273 43.7649 11.8646 43.1223C11.3402 42.832 11.1831 42.9349 10.7204 43.6717L7.12621 41.1676L6.95609 41.276C6.99076 41.5783 7.02435 41.8806 7.07419 42.3162C6.33303 42.4484 5.54746 42.6109 4.75429 42.7128C4.59501 42.7323 4.33495 42.5632 4.25152 42.4104C4.18108 42.2826 4.24285 42.003 4.34904 41.8687C4.96992 41.1102 5.62006 40.369 6.29945 39.5802L7.52062 40.2693C7.49136 40.0526 7.51304 39.9172 7.45669 39.8424C6.97451 39.2063 6.3948 38.7025 5.55071 38.6581C5.02951 38.631 4.50507 38.6581 3.98171 38.6581C3.72856 38.6698 3.47488 38.6608 3.22322 38.631C2.78979 38.5562 2.248 38.5573 2.10714 38.0285C1.96628 37.4997 2.52323 37.3643 2.82771 37.1497C3.59271 36.608 4.40213 36.1409 5.17363 35.6555L6.51508 36.6741L6.72095 36.5451C6.61259 36.2558 6.56709 35.9036 6.37313 35.6891C5.83616 35.0838 5.2568 34.5175 4.63943 33.9944C4.05972 33.5122 3.38249 33.1481 2.79737 32.6779C2.59149 32.5132 2.37045 32.1621 2.40946 31.94C2.48206 31.5325 2.90573 31.6051 3.2243 31.6452C4.73154 31.8327 6.13149 32.3799 7.45669 33.0766C9.48404 34.1418 11.4496 35.3229 13.4781 36.3826C14.333 36.8301 15.2714 37.127 16.1945 37.426C16.5066 37.5268 16.8848 37.426 17.2326 37.412C17.2488 37.3209 17.264 37.231 17.2792 37.14L16.0266 36.557C16.9725 35.8083 17.8773 35.0639 18.8114 34.3607C20.0585 33.4212 21.1952 32.3853 22.0523 31.0623C23.073 29.4955 24.6983 28.5907 26.1492 27.3608L27.858 29.1877L28.0368 29.1325C27.987 28.8897 27.9913 28.6167 27.8764 28.4108C27.5243 27.7823 27.0757 27.2048 26.7571 26.5612C26.1839 25.4017 25.6421 24.2228 25.1535 23.0255C24.72 21.9625 24.9086 20.9093 25.3702 19.8832C25.9723 18.5329 26.8258 17.3095 27.8851 16.2782C29.3154 14.8825 30.3155 13.1564 31.1358 11.3339C31.4912 10.545 31.8098 9.73343 32.241 8.98794C32.5661 8.42232 33.0396 7.93905 33.4633 7.43194C33.6702 7.1838 33.9444 6.98875 34.1351 6.73086C34.8427 5.77625 35.819 5.36774 36.9589 5.41867C38.0013 5.46418 38.8475 5.09361 39.6602 4.50415C40.3862 3.97537 41.1143 3.42058 41.9183 3.03483C42.5327 2.7401 43.2598 2.64367 43.9489 2.5494C44.8689 2.42262 45.4919 2.88964 45.8918 3.70123C46.1346 4.22435 46.4048 4.73433 46.7012 5.22905C47.2711 6.13166 48.06 6.3993 49.0764 6.0959C49.3873 6.00488 49.7027 5.92904 50.018 5.85969C50.1108 5.85318 50.2041 5.85901 50.2954 5.87703C50.4156 6.37005 50.0787 6.58568 49.7785 6.7948C48.7889 7.49912 47.6441 7.95444 46.4411 8.12217C45.804 8.21102 45.4247 8.43532 45.4399 9.22957C45.013 8.62602 44.6554 8.12325 44.2989 7.62048L44.0822 7.74725C44.1635 7.96396 44.2112 8.19802 44.3314 8.38981C45.3001 9.92847 45.6566 11.6199 45.5234 13.4056C45.3695 15.3799 45.7693 17.1981 46.79 18.8949C47.1379 19.4768 47.3719 20.1335 47.606 20.7749C48.4067 22.9811 47.879 24.9922 46.6676 26.8971C46.2408 27.5441 45.8602 28.2205 45.5288 28.9212C46.3935 28.2622 47.0904 27.4083 47.5626 26.429C48.0437 25.4538 48.3699 24.4027 48.7675 23.3776C48.7069 20.4921 47.1617 18.8397 46.3534 16.4667C45.545 14.0937 46.7066 14.1912 45.7932 10.26L46.5744 9.80169C46.4856 9.42353 46.4054 9.08328 46.3144 8.69862C46.5928 8.63035 46.8182 8.58051 47.0403 8.51874C47.6992 8.33562 48.3655 8.17526 49.0135 7.9553C49.4897 7.80546 49.9241 7.54592 50.2817 7.19756C50.6393 6.84919 50.9101 6.42175 51.0723 5.94962C51.159 5.71232 51.1189 5.42952 51.1373 5.15646C50.8697 5.1207 50.7472 5.0741 50.6248 5.09252H50.628Z" fill="#03001B"/>
<path d="M79.194 41.1871C78.4248 40.7605 77.6216 40.3981 76.7928 40.1035C76.0885 39.8446 75.3398 39.707 74.6257 39.5195L71.8702 39.1153C72.1269 38.6525 72.4136 38.2069 72.7284 37.7815C73.2701 37.0425 74.3288 36.1323 74.3288 36.1323C74.6289 35.9307 74.9453 35.7541 75.2206 35.5266C75.8815 34.9783 76.6292 34.4853 77.1461 33.8221C77.8114 32.9791 77.3747 32.0884 76.3117 32.0332C75.3885 31.9844 74.4577 32.0884 73.4576 32.1285C72.8931 32.1567 65.2225 35.9047 65.2225 35.9047C65.1488 36.1919 65.0925 36.4075 64.9928 36.7965C65.786 36.5039 66.4849 36.3013 67.1361 35.9968C69.0475 35.1061 70.9405 34.1775 72.84 33.2608C73.6136 32.887 74.4144 32.6107 75.2867 32.6952C75.7504 32.7396 76.3182 32.7862 76.4645 33.2977C76.6108 33.8091 76.0809 34.0562 75.7288 34.3108C74.0557 35.5428 72.3979 36.7867 71.3598 38.657C70.9784 39.345 71.0749 40.252 71.6502 40.7157C71.713 40.5351 71.7665 40.3514 71.8106 40.1653C71.8431 39.9941 71.8442 39.8153 71.8659 39.5585C72.7641 39.7546 73.6234 39.928 74.4751 40.135C75.3268 40.3419 76.1448 40.5814 76.9803 40.8035C77.7234 40.9936 78.363 41.4664 78.7627 42.1211C79.0997 42.6542 78.9372 43.0898 78.3293 43.2155C77.8896 43.3055 77.4387 43.3281 76.9922 43.2827C76.3124 43.1968 75.6375 43.0756 74.9703 42.9197C73.7122 42.6499 72.5539 42.9566 71.2482 43.4918L72.1519 44.2937C72.7847 44.855 73.437 45.3967 74.0416 45.9873C74.2897 46.2486 74.4867 46.554 74.6224 46.8877C74.8922 47.5032 74.6387 47.8824 73.9723 47.7546C73.3392 47.6378 72.7304 47.4151 72.1714 47.0958C71.5397 46.7274 70.9979 46.2029 70.4161 45.7478C70.1181 45.5149 69.819 45.2819 69.5156 45.0565C68.7062 44.454 67.809 44.3132 66.85 44.5862C66.0536 44.8127 65.2702 45.0879 64.4662 45.3057C63.7955 45.4867 63.0858 45.4606 62.4302 45.231C63.1009 44.8246 63.8507 44.6892 64.2387 44.0575C64.217 44.0098 64.1953 43.9621 64.1726 43.9144C63.9755 43.9496 63.7817 44.0007 63.5929 44.0672C61.9404 44.8051 60.2403 45.4141 58.4394 45.6286C57.6647 45.7207 56.8574 45.659 56.0794 45.5571C55.3274 45.4585 55.0435 44.83 55.3708 44.1485C55.7934 43.2589 56.3525 42.4755 57.1803 41.9012C57.5497 41.6445 57.8947 41.3543 58.2108 41.0343C58.3809 40.862 58.46 40.6009 58.6085 40.3267C57.85 40.175 57.669 40.7883 57.3504 40.9877L55.7641 39.6593C55.1833 39.9052 54.8723 40.0537 54.8723 40.0537L56.5042 41.4764C55.9147 42.2945 55.3123 43.0812 54.7705 43.9036C54.5855 44.2123 54.4615 44.5537 54.4053 44.9091C54.2471 45.7218 54.8669 46.4196 55.7056 46.4738C57.3309 46.5822 58.9129 46.4641 60.4527 45.9147C60.5721 45.8769 60.6969 45.8589 60.8222 45.8616C62.3153 45.8475 64.8455 45.9602 65.527 45.8746C66.2086 45.789 67.2607 45.0424 68.4938 45.3068C69.7269 45.5712 70.1982 47.0914 71.4097 47.7427C72.6211 48.3939 73.5367 48.3029 73.5367 48.3029C73.9972 48.3029 74.4328 48.3451 74.8576 48.2931C75.6941 48.1923 75.9953 47.6105 75.6226 46.853C75.502 46.6321 75.3542 46.4271 75.1826 46.243C74.8771 45.8908 74.5553 45.5517 74.1934 45.1594L71.8767 43.7346C71.8767 43.7346 72.1866 43.6771 72.7728 43.5634C73.359 43.4496 74.4534 43.4875 74.4534 43.4875C75.4535 43.65 76.3886 43.8451 77.3346 43.9404C77.9618 43.9857 78.5919 43.9687 79.2157 43.8895C79.7249 43.8375 79.9991 43.4821 80.0652 42.9771C80.1616 42.1916 79.8441 41.5566 79.194 41.1871ZM48.8943 57.0515C44.6262 56.6907 40.5661 55.5541 36.6739 53.79C35.3063 53.1924 35.1213 53.3635 34.0233 52.3527L32.8314 52.7547L32.9497 53.4029C32.9497 53.4029 33.0228 53.3738 31.6087 53.9774C30.6714 54.3794 31.1856 55.0738 30.8974 54.9405L32.9497 56.2592C34.1514 55.1063 34.4656 55.7198 35.2122 54.3307C36.7443 54.8855 38.2375 55.463 39.7556 55.9669C42.5576 56.8966 45.4269 57.5121 48.3905 57.5922C48.8358 57.6031 49.2833 57.5218 49.7297 57.4839C49.7297 57.395 49.7362 57.3062 49.7384 57.2173C49.4604 57.146 49.1786 57.0907 48.8943 57.0515ZM50.628 5.09252C50.1491 5.16945 49.6712 5.26048 49.1956 5.35908C48.1998 5.56496 47.7111 5.35909 47.2321 4.46731C47.0085 4.01547 46.8106 3.55131 46.6394 3.07709C46.206 1.96861 45.6512 1.58178 44.4539 1.62404C42.4146 1.69556 40.6614 2.52014 39.1975 3.87785C38.568 4.4608 37.9612 4.69702 37.1247 4.62117C35.7995 4.49981 34.6931 4.99392 33.8133 6.0038C33.5781 6.2736 33.2715 6.48056 33.0299 6.74495C32.5715 7.24772 32.0427 7.72017 31.7133 8.29987C31.1921 9.2209 30.7901 10.2124 30.3751 11.1908C29.4606 13.3493 28.2319 15.2802 26.3573 16.7322C24.4069 19.4963 23.6885 21.2766 24.4069 23.0558C25.1253 24.835 25.6443 26.2881 25.6443 26.2881L21.7814 29.8736L16.0255 36.0337L15.0503 36.0727C14.8986 36.0022 14.787 35.9546 14.6776 35.8993C12.7055 34.884 10.7496 33.8405 8.75805 32.8653C7.12295 32.0635 5.44777 31.3288 3.62847 31.0449C3.13341 30.958 2.62611 30.9691 2.13531 31.0775C1.32481 31.2822 1.13735 32.0202 1.73006 32.5999C2.17757 33.0333 2.70526 33.3984 3.19937 33.7831C3.77366 34.2285 4.35554 34.6619 5.01218 35.1603C4.64268 35.4052 4.41296 35.5753 4.16808 35.7162C3.44859 36.129 2.71069 36.5083 2.00095 36.9428C1.50035 37.2505 0.991073 37.6579 1.16228 38.3211C1.32481 38.9506 1.95002 39.0796 2.51239 39.1218C3.24813 39.1684 3.9893 39.1218 4.72829 39.1327C4.98509 39.1327 5.24081 39.1944 5.66123 39.2486C5.37951 39.6972 5.21371 40.0548 4.96341 40.3322C4.582 40.7656 4.12907 41.1286 3.73248 41.5479C3.40091 41.8979 3.15278 42.2923 3.37707 42.8135C3.60137 43.3347 4.03913 43.4994 4.52673 43.4214C5.44776 43.274 6.36229 43.0768 7.26815 42.8504C7.65932 42.7529 7.97789 42.742 8.33871 42.9587C9.0552 43.4105 9.79683 43.8211 10.56 44.1886C10.9643 44.3843 11.4117 44.4742 11.8603 44.4497C12.1102 44.4183 12.364 44.442 12.6038 44.5192C12.8435 44.5963 13.0636 44.725 13.2483 44.8961C13.9895 45.5528 14.7155 46.2278 15.4306 46.9137C15.4885 46.9757 15.5318 47.0497 15.5574 47.1304C15.5574 47.1304 17.0614 47.8889 17.6292 47.7036C18.197 47.5184 18.159 44.2948 18.159 44.2948C18.159 44.2948 20.9243 43.6511 22.4012 42.5524C23.8781 41.4537 26.8514 40.5586 26.8514 40.5586L28.402 39.8619C28.3846 39.7958 28.3684 39.7286 28.351 39.6625C28.1127 39.6419 27.8743 39.6051 27.637 39.6051C25.9921 39.6051 24.5445 40.2758 23.1413 41.0137C22.1249 41.5501 21.2049 42.2652 20.2005 42.8255C19.4864 43.2231 18.7019 43.4951 17.8676 43.8592V42.5524C17.572 42.7981 17.3535 43.1238 17.2382 43.4904C17.1229 43.8571 17.1157 44.2492 17.2174 44.6198C17.3117 44.9449 17.4699 45.27 17.5046 45.6037C17.5392 45.9374 17.4656 46.3134 17.4396 46.6613C16.6876 46.6981 16.1555 46.5464 15.7319 46.087C15.5249 45.8616 15.2833 45.6633 15.1002 45.4195C14.2647 44.3078 13.0273 43.7649 11.8646 43.1223C11.3402 42.832 11.1831 42.9349 10.7204 43.6717L7.12621 41.1676L6.95609 41.276C6.99076 41.5783 7.02435 41.8806 7.07419 42.3162C6.33303 42.4484 5.54746 42.6109 4.75429 42.7128C4.59501 42.7323 4.33495 42.5632 4.25152 42.4104C4.18108 42.2826 4.24285 42.003 4.34904 41.8687C4.96992 41.1102 5.62006 40.369 6.29945 39.5802L7.52062 40.2693C7.49136 40.0526 7.51304 39.9172 7.45669 39.8424C6.97451 39.2063 6.3948 38.7025 5.55071 38.6581C5.02951 38.631 4.50507 38.6581 3.98171 38.6581C3.72856 38.6698 3.47488 38.6608 3.22322 38.631C2.78979 38.5562 2.248 38.5573 2.10714 38.0285C1.96628 37.4997 2.52323 37.3643 2.82771 37.1497C3.59271 36.608 4.40213 36.1409 5.17363 35.6555L6.51508 36.6741L6.72095 36.5451C6.61259 36.2558 6.56709 35.9036 6.37313 35.6891C5.83616 35.0838 5.2568 34.5175 4.63943 33.9944C4.05972 33.5122 3.38249 33.1481 2.79737 32.6779C2.59149 32.5132 2.37045 32.1621 2.40946 31.94C2.48206 31.5325 2.90573 31.6051 3.2243 31.6452C4.73154 31.8327 6.13149 32.3799 7.45669 33.0766C9.48404 34.1418 11.4496 35.3229 13.4781 36.3826C14.333 36.8301 15.2714 37.127 16.1945 37.426C16.5066 37.5268 16.8848 37.426 17.2326 37.412C17.2488 37.3209 17.264 37.231 17.2792 37.14L16.0266 36.557C16.9725 35.8083 17.8773 35.0639 18.8114 34.3607C20.0585 33.4212 21.1952 32.3853 22.0523 31.0623C23.073 29.4955 24.6983 28.5907 26.1492 27.3608L27.858 29.1877L28.0368 29.1325C27.987 28.8897 27.9913 28.6167 27.8764 28.4108C27.5243 27.7823 27.0757 27.2048 26.7571 26.5612C26.1839 25.4017 25.6421 24.2228 25.1535 23.0255C24.72 21.9625 24.9086 20.9093 25.3702 19.8832C25.9723 18.5329 26.8258 17.3095 27.8851 16.2782C29.3154 14.8825 30.3155 13.1564 31.1358 11.3339C31.4912 10.545 31.8098 9.73343 32.241 8.98794C32.5661 8.42232 33.0396 7.93905 33.4633 7.43194C33.6702 7.1838 33.9444 6.98875 34.1351 6.73086C34.8427 5.77625 35.819 5.36774 36.9589 5.41867C38.0013 5.46418 38.8475 5.09361 39.6602 4.50415C40.3862 3.97537 41.1143 3.42058 41.9183 3.03483C42.5327 2.7401 43.2598 2.64367 43.9489 2.5494C44.8689 2.42262 45.4919 2.88964 45.8918 3.70123C46.1346 4.22435 46.4048 4.73433 46.7012 5.22905C47.2711 6.13166 48.06 6.3993 49.0764 6.0959C49.3873 6.00488 49.7027 5.92904 50.018 5.85969C50.1108 5.85318 50.2041 5.85901 50.2954 5.87703C50.4156 6.37005 50.0787 6.58568 49.7785 6.7948C48.7889 7.49912 47.6441 7.95444 46.4411 8.12217C45.804 8.21102 45.4247 8.43532 45.4399 9.22957C45.013 8.62602 44.6554 8.12325 44.2989 7.62048L44.0822 7.74725C44.1635 7.96396 44.2112 8.19802 44.3314 8.38981C45.3001 9.92847 45.6566 11.6199 45.5234 13.4056C45.3695 15.3799 45.7693 17.1981 46.79 18.8949C47.1379 19.4768 47.3719 20.1335 47.606 20.7749C48.4067 22.9811 47.879 24.9922 46.6676 26.8971C46.2408 27.5441 45.8602 28.2205 45.5288 28.9212C46.3935 28.2622 47.0904 27.4083 47.5626 26.429C48.0437 25.4538 48.3699 24.4027 48.7675 23.3776C48.7069 20.4921 47.1617 18.8397 46.3534 16.4667C45.545 14.0937 46.7066 14.1912 45.7932 10.26L46.5744 9.80169C46.4856 9.42353 46.4054 9.08328 46.3144 8.69862C46.5928 8.63035 46.8182 8.58051 47.0403 8.51874C47.6992 8.33562 48.3655 8.17526 49.0135 7.9553C49.4897 7.80546 49.9241 7.54592 50.2817 7.19756C50.6393 6.84919 50.9101 6.42175 51.0723 5.94962C51.159 5.71232 51.1189 5.42952 51.1373 5.15646C50.8697 5.1207 50.7472 5.0741 50.6248 5.09252H50.628Z" stroke="#F5DEA6" stroke-width="2" mask="url(#path-9-outside-1_12_237104)"/>
<path d="M29.5995 56.804L30.0634 55.9219L29.8467 55.7843L29.2457 56.5793C29.3506 56.673 29.4701 56.7489 29.5995 56.804Z" fill="#03001B" stroke="#F5DEA6"/>
</svg>
