<svg width="74" height="92" viewBox="0 0 74 92" fill="none" xmlns="http://www.w3.org/2000/svg">
<path fill-rule="evenodd" clip-rule="evenodd" d="M53.278 84.1632L53.3683 84.6479C53.4521 85.0971 53.5284 85.5062 53.5971 85.8855C53.2561 86.1469 52.8762 86.1501 52.5053 86.1531C52.096 86.1565 51.6977 86.1598 51.3748 86.5101C51.6076 86.8218 51.8993 86.8247 52.2196 86.8278C52.4784 86.8304 52.7558 86.8331 53.0359 86.9989C53.0686 87.1683 53.1069 87.3689 53.1499 87.5943L53.1666 87.6815L53.1725 87.7121C53.2221 87.9723 53.2773 88.2619 53.3369 88.5718L51.4721 88.7121V88.9905C51.7682 89.1762 52.1005 89.1629 52.4508 89.149C52.7324 89.1377 53.0256 89.126 53.3211 89.2168C53.8257 89.6694 53.7737 90.3167 53.699 90.9707C52.2619 91.3396 49.4602 91.1722 48.5775 90.6584V84.4144L53.278 84.1632ZM44.2895 85.8019C44.0883 85.2518 43.8953 84.7239 43.6983 84.1881C42.3562 84.3805 41.1568 84.72 40.1157 85.4012C39.4558 85.8246 38.884 86.3718 38.432 87.0125C37.667 88.1486 37.9205 89.2507 39.0249 90.0723C40.8988 91.4686 42.9876 91.4007 45.2259 91.016C45.1578 90.5977 45.1795 90.1839 45.2005 89.7837C45.2373 89.0797 45.272 88.4175 44.8117 87.8476H42.5169C42.4535 88.3002 42.4037 88.6668 42.354 89.0357C41.7723 89.2236 41.3853 89.0335 41.0255 88.5628C41.3995 87.2935 42.4101 86.9885 43.446 86.676C43.7953 86.5706 44.1474 86.4644 44.479 86.32L44.2895 85.8019ZM22.4067 84.3217H24.8735C25.5819 85.5234 25.5117 88.8366 24.74 89.8889C23.8031 91.1653 22.4316 91.3487 20.9968 91.2084C19.5619 91.068 18.3896 90.4774 17.7514 89.1082C17.5917 88.7663 17.5002 88.3965 17.4821 88.0196C17.4576 87.181 17.4615 86.3412 17.4655 85.4694C17.467 85.1365 17.4685 84.799 17.4685 84.4552H20.1187C20.2278 84.8647 20.3079 85.2814 20.3586 85.7021C20.3937 86.2432 20.4046 86.7843 20.4155 87.3229V87.3262C20.4228 87.6876 20.43 88.048 20.4445 88.4066C20.47 88.5829 20.5148 88.756 20.5781 88.9226C21.7504 89.4612 22.3501 89.1489 22.3886 87.9404C22.427 87.1202 22.4201 86.2989 22.4128 85.4283L22.4126 85.4111C22.4097 85.0572 22.4067 84.6951 22.4067 84.3217ZM59.8479 91.0024V88.3975C60.4035 88.8115 60.7942 89.3284 61.1679 89.8227C61.6421 90.4499 62.0889 91.0409 62.8103 91.3396L64.7022 90.1062L62.7175 88.1531C62.7957 88.0718 62.8752 87.9933 62.9535 87.9158C63.3987 87.4753 63.81 87.0684 63.7812 86.3833C63.5571 85.6139 63.1361 84.9756 62.2875 84.7335C60.6316 84.2613 58.9527 84.3268 57.2588 84.3929L57.0551 84.4008V90.7014C57.8765 91.2399 58.7191 91.1382 59.6281 91.0286C59.7009 91.0198 59.7741 91.011 59.8479 91.0024ZM28.7502 84.4144V90.7353C29.6549 91.2653 30.5378 91.1391 31.514 90.9997L31.5746 90.9911V88.5016C32.1035 88.8711 32.4754 89.3603 32.8401 89.8402C33.2929 90.4361 33.7349 91.0177 34.4533 91.3373L36.3498 90.0722L34.2768 88.1237C34.4753 87.9827 34.6664 87.8317 34.8493 87.671C35.9311 86.6481 35.311 85.6297 34.5031 85.0232C34.2574 84.8502 33.9796 84.7279 33.6861 84.6634C32.0702 84.29 30.4362 84.3126 28.7502 84.4144ZM13.945 87.7337C13.8949 87.6791 13.8418 87.6215 13.7865 87.5579L14.4292 86.449C14.1078 85.4781 13.5873 84.8965 12.7047 84.6702C11.2404 84.3126 9.75809 84.3036 8.20786 84.4145V90.7897C8.29251 90.8235 8.379 90.8707 8.46689 90.9187C8.6376 91.0119 8.81387 91.1081 8.99313 91.1156C10.5706 91.1677 12.1502 91.1677 13.6122 90.4367C14.823 89.8211 14.9814 89.1285 14.1825 88.0105C14.1144 87.9178 14.0343 87.8307 13.945 87.7337Z" fill="#F5DEA6"/>
<path d="M49.9474 90.4319C50.9669 90.4893 51.95 90.5446 52.9567 90.3687V89.6332L50.8565 89.4635V88.0898L52.5539 87.9291V87.214L50.7841 87.1143C50.8112 86.5848 50.8339 86.1616 50.8588 85.7157L52.7394 85.3717V84.5774L48.9781 84.8037M44.3183 90.3936V90.4027C44.5967 89.2983 44.5945 89.2304 44.3003 88.2957H42.9424C42.9214 88.3678 42.9014 88.4373 42.882 88.5051L42.8144 88.7419C42.7393 89.0057 42.6677 89.2569 42.578 89.554C42.2054 89.5358 41.8355 89.4812 41.4736 89.3911C40.2854 88.9724 40.0433 87.8612 40.9983 87.0329C41.3711 86.7106 41.837 86.4914 42.2968 86.275C42.4149 86.2195 42.5326 86.1641 42.6482 86.1073C43.008 85.957 43.3769 85.8293 43.7526 85.7248C43.5829 85.3106 43.4516 84.987 43.3 84.6136C43.0472 84.6899 42.8044 84.7582 42.5695 84.8243C42.0662 84.9658 41.5998 85.097 41.1523 85.2744C40.1515 85.6305 39.3031 86.3191 38.7488 87.2252M18.2856 89.3413C18.0763 89.0278 17.953 88.665 17.9279 88.2889C17.8958 87.5219 17.9014 86.7537 17.9073 85.9392V85.9371V85.935V85.9329V85.9306C17.9097 85.5991 17.9121 85.26 17.9121 84.9101L19.5551 84.815C19.5683 84.979 19.5804 85.1332 19.5918 85.2806L19.5931 85.2968C19.6189 85.6268 19.642 85.9231 19.6683 86.2204C19.6991 86.9681 19.7746 87.7133 19.8946 88.4519C20.0711 89.2711 20.6686 89.6423 21.4652 89.5834C22.1894 89.5314 22.676 89.1014 22.7733 88.2799C22.8346 87.7634 22.8365 87.2408 22.8384 86.7184C22.8391 86.5266 22.8398 86.3349 22.8435 86.1434V84.7132C23.1188 84.6724 23.396 84.646 23.674 84.634C23.8448 84.6384 24.0144 84.6628 24.2173 84.6918C24.321 84.7066 24.4333 84.7227 24.5589 84.7381C24.7242 86.0937 24.8011 87.438 24.4118 88.7348M63.6839 89.6355C62.9732 88.9882 62.3758 88.436 61.7307 87.8363C61.7648 87.8084 61.7979 87.7815 61.8302 87.7553L61.9021 87.6972L62.0088 87.6114C62.1909 87.4652 62.3459 87.3409 62.4934 87.2071C63.4621 86.3268 63.2629 85.4577 61.9978 85.0617C61.6792 84.9442 61.3468 84.8682 61.0088 84.8354C59.9972 84.7924 58.9856 84.7811 57.9717 84.7788C57.8002 84.8092 57.635 84.8681 57.4829 84.953V90.3279H59.1621C59.1755 89.524 59.1894 88.7404 59.203 87.9713C59.2171 87.175 59.2309 86.3943 59.2436 85.6229C60.4385 85.4125 60.6286 85.5007 61.2374 86.5531C61.1581 86.6717 61.0763 86.7937 60.9915 86.9202C60.7689 87.252 60.5262 87.6138 60.2575 88.0218C60.5713 88.411 60.8852 88.8046 61.2083 89.2096L61.2118 89.214L61.2195 89.2236M30.865 89.4445V89.4432C30.8595 88.8971 30.8544 88.382 30.8708 87.868C30.8776 87.6548 30.8669 87.4402 30.8562 87.2262V87.225V87.2237V87.2225V87.2213C30.8279 86.6509 30.7998 86.0845 31.0971 85.5573C31.8416 85.3649 32.3554 85.641 32.8261 86.3222C32.7518 86.6187 32.6495 86.9074 32.5206 87.1845C32.344 87.4522 32.1449 87.7043 31.9254 87.9381C32.7831 89.296 33.3896 90.0066 34.1885 90.5362L35.4106 89.7305L35.1283 89.4759L35.1237 89.4718C34.8435 89.2191 34.6127 89.011 34.3831 88.8003C34.1299 88.5679 33.8861 88.3339 33.59 88.0496L33.4077 87.8747C33.7511 87.5788 34.0789 87.2653 34.3899 86.9355C35.0009 86.2113 34.8426 85.4215 33.9599 85.1499C32.4346 84.6769 30.8685 84.7086 29.2074 84.8648C29.0575 86.6838 29.065 88.5124 29.23 90.3302M13.2523 89.7351C13.9494 89.3888 13.9992 89.1896 13.8227 88.1916L12.4648 87.3746C12.601 87.1571 12.8162 87.0066 13.0268 86.8592C13.4317 86.5759 13.8197 86.3045 13.5963 85.5913C12.3794 84.6785 10.9961 84.7449 9.55698 84.8139C9.25125 84.8286 8.94302 84.8434 8.63333 84.849M53.3683 84.6479L53.278 84.1632L48.5775 84.4144V90.6584C49.4602 91.1722 52.2619 91.3396 53.699 90.9707C53.7737 90.3167 53.8257 89.6694 53.3211 89.2168C53.0256 89.126 52.7324 89.1377 52.4508 89.149C52.1005 89.1629 51.7682 89.1762 51.4721 88.9905V88.7121L53.3369 88.5718C53.2773 88.2619 53.2221 87.9723 53.1725 87.7121L53.1666 87.6815L53.1499 87.5943C53.1069 87.3689 53.0686 87.1683 53.0359 86.9989C52.7558 86.8331 52.4784 86.8304 52.2196 86.8278C51.8993 86.8247 51.6076 86.8218 51.3748 86.5101C51.6977 86.1598 52.096 86.1565 52.5053 86.1531C52.8762 86.1501 53.2561 86.1469 53.5971 85.8855C53.5284 85.5062 53.4521 85.0971 53.3683 84.6479ZM43.6983 84.1881C43.8953 84.7239 44.0883 85.2518 44.2895 85.8019L44.479 86.32C44.1474 86.4644 43.7953 86.5706 43.446 86.676C42.4101 86.9885 41.3995 87.2935 41.0255 88.5628C41.3853 89.0335 41.7723 89.2236 42.354 89.0357C42.4037 88.6668 42.4535 88.3002 42.5169 87.8476H44.8117C45.272 88.4175 45.2373 89.0797 45.2005 89.7837C45.1795 90.1839 45.1578 90.5977 45.2259 91.016C42.9876 91.4007 40.8988 91.4686 39.0249 90.0723C37.9205 89.2507 37.667 88.1486 38.432 87.0125C38.884 86.3718 39.4558 85.8246 40.1157 85.4012C41.1568 84.72 42.3562 84.3805 43.6983 84.1881ZM24.8735 84.3217H22.4067C22.4067 84.6951 22.4097 85.0572 22.4126 85.4111L22.4128 85.4283C22.4201 86.2989 22.427 87.1202 22.3886 87.9404C22.3501 89.1489 21.7504 89.4612 20.5781 88.9226C20.5148 88.756 20.47 88.5829 20.4445 88.4066C20.43 88.048 20.4228 87.6876 20.4155 87.3262V87.3229C20.4046 86.7843 20.3937 86.2432 20.3586 85.7021C20.3079 85.2814 20.2278 84.8647 20.1187 84.4552H17.4685C17.4685 84.799 17.467 85.1365 17.4655 85.4694C17.4615 86.3412 17.4576 87.181 17.4821 88.0196C17.5002 88.3965 17.5917 88.7663 17.7514 89.1082C18.3896 90.4774 19.5619 91.068 20.9968 91.2084C22.4316 91.3487 23.8031 91.1653 24.74 89.8889C25.5117 88.8366 25.5819 85.5234 24.8735 84.3217ZM59.8479 88.3975V91.0024C59.7741 91.011 59.7009 91.0198 59.6281 91.0286C58.7191 91.1382 57.8765 91.2399 57.0551 90.7014V84.4008L57.2588 84.3929C58.9527 84.3268 60.6316 84.2613 62.2875 84.7335C63.1361 84.9756 63.5571 85.6139 63.7812 86.3833C63.81 87.0684 63.3987 87.4753 62.9535 87.9158C62.8752 87.9933 62.7957 88.0718 62.7175 88.1531L64.7022 90.1062L62.8103 91.3396C62.0889 91.0409 61.6421 90.4499 61.1679 89.8227C60.7942 89.3284 60.4035 88.8115 59.8479 88.3975ZM28.7502 90.7353V84.4144C30.4362 84.3126 32.0702 84.29 33.6861 84.6634C33.9796 84.7279 34.2574 84.8502 34.5031 85.0232C35.311 85.6297 35.9311 86.6481 34.8493 87.671C34.6664 87.8317 34.4753 87.9827 34.2768 88.1237L36.3498 90.0722L34.4533 91.3373C33.7349 91.0177 33.2929 90.4361 32.8401 89.8402C32.4754 89.3603 32.1035 88.8711 31.5746 88.5016V90.9911L31.514 90.9997C30.5378 91.1391 29.6549 91.2653 28.7502 90.7353ZM13.7865 87.5579C13.8418 87.6215 13.8949 87.6791 13.945 87.7337C14.0343 87.8307 14.1144 87.9178 14.1825 88.0105C14.9814 89.1285 14.823 89.8211 13.6122 90.4367C12.1502 91.1677 10.5706 91.1677 8.99313 91.1156C8.81387 91.1081 8.6376 91.0119 8.46689 90.9187C8.379 90.8707 8.29251 90.8235 8.20786 90.7897V84.4145C9.75809 84.3036 11.2404 84.3126 12.7047 84.6702C13.5873 84.8965 14.1078 85.4781 14.4292 86.449L13.7865 87.5579Z" stroke="#F5DEA6" stroke-width="0.5" stroke-linejoin="round"/>
<path d="M1.52314 37.3805C0.962059 17.5172 16.9114 1.11095 36.7827 1.11095C56.2637 1.11095 72.0562 16.9035 72.0562 36.3845V83.6886L2.80379 82.7178L1.52314 37.3805Z" fill="#3290FF" stroke="#F5DEA6" stroke-width="0.5" stroke-linejoin="round"/>
<path d="M71.451 63.0211C71.2247 62.6567 71.0617 62.3851 70.8535 62.0457L70.4778 62.65C70.2628 62.5889 70.2651 62.0932 70.3307 62.0117C71.0097 61.4097 70.7833 60.6267 70.7698 59.9138C70.7698 56.2634 70.7517 52.6107 70.6815 48.9603C70.2447 40.0911 71.4034 30.8915 67.5131 22.5858C66.9179 25.847 67.2325 29.1149 64.8585 31.7198C61.6901 30.5203 64.3651 28.0988 61.8214 26.7771L59.2595 29.4204C57.5508 29.3955 57.019 27.9222 57.1887 26.5938L57.3155 26.6277C59.6306 21.7484 60.0606 19.7433 64.8698 16.9189C58.7096 7.29157 49.5371 3.45784 38.5179 2.95316L37.3388 1.11095C80.938 2.14067 71.9647 47.1611 72.2544 77.702C72.191 79.6144 72.0824 81.5267 71.9941 83.4119C71.0889 83.688 42.2679 83.7989 39.6133 83.5499C39.7106 83.0475 39.8056 82.5473 39.9256 81.9137H70.1406C70.4056 78.6589 70.5068 75.3929 70.4439 72.1279L71.451 63.0211ZM63.444 26.8405C64.3108 28.2844 62.2219 29.8029 64.1886 30.5724C65.7864 28.1712 65.8814 28.1825 66.0941 26.2589C65.99 23.2172 67.6625 19.3224 65.9289 16.6858C64.037 18.2066 61.5362 18.8494 60.425 21.0989C59.5084 22.9456 58.5557 24.7765 57.6504 26.63C56.9715 30.3528 60.511 27.0826 61.1537 25.5324C61.8825 26.3879 62.4505 26.974 63.444 26.8405Z" fill="#F5DEA6" stroke="#F5DEA6" stroke-width="0.5" stroke-linejoin="round"/>
<path d="M3.24254 75.9844C2.92117 77.9171 3.30364 79.7909 3.37832 81.7938C12.0936 82.045 20.8044 81.8142 29.5333 81.8889C28.0645 85.9399 7.40895 82.5452 1.69682 83.602C1.29398 52.4908 -8.69094 0.997872 36.8455 1.11329C36.0805 3.49637 34.0233 2.93968 32.0273 3.19315C24.7853 3.92188 18.2946 6.38186 12.983 11.5305C10.9304 13.5198 8.69668 16.5411 7.676 18.7499C8.12863 19.6099 8.59483 20.4608 9.09951 21.4045C10.4574 20.1847 11.632 18.3085 13.6801 19.0554C16.3958 19.904 13.92 22.4795 13.0668 23.9731C18.6024 28.8072 16.2352 33.8698 11.0481 26.5237C9.72413 28.3093 13.1143 30.2783 11.9533 32.2675C10.8399 32.1906 9.70603 32.5685 8.55862 31.747C7.41348 29.167 6.21402 26.5033 5.75461 23.5658C3.75853 26.7953 3.45074 31.5478 3.17917 35.4721C3.02301 44.2983 2.79217 53.0589 2.72654 61.8828C4.11384 61.566 5.31103 60.4004 6.34755 61.532C5.89492 61.6746 5.36988 61.3057 4.97383 61.3419C1.69003 62.0209 4.37863 63.6051 2.66544 64.7366C3.57069 65.4654 2.14266 73.0536 3.32627 73.0038L3.24254 75.9844ZM12.7726 19.0803C10.7742 19.5782 10.0048 21.2008 8.62652 22.6107L6.68702 18.682C3.74495 21.2325 7.64885 28.3432 8.87772 31.4867H11.0028C11.1273 29.3594 7.81179 26.6731 10.6316 25.3062C11.3694 26.2114 15.1579 32.014 14.8592 28.2142C15.0221 26.105 12.8065 25.1477 11.8017 23.5771C12.3607 22.2034 15.2643 19.9154 12.7726 19.0803Z" fill="#F5DEA6" stroke="#F5DEA6" stroke-width="0.5" stroke-linejoin="round"/>
<path d="M44.7393 15.896L46.5113 16.0046L47.4483 17.4463C47.1201 20.8636 46.4909 24.2605 43.6666 26.7885C43.0501 27.3164 42.2638 27.604 41.4523 27.5986C40.6407 27.5932 39.8583 27.2951 39.2489 26.759C38.4252 25.9873 37.7711 25.0594 37.7281 23.8441C37.6602 21.8571 37.581 19.8678 37.529 17.8808C37.5335 17.4818 37.5622 17.0835 37.615 16.6881L39.5409 15.5927L39.4888 15.4275L40.333 15.4931L41.1703 16.8397C41.0413 17.8061 40.892 18.9173 40.7449 20.0285C40.5797 21.2936 40.4054 22.5586 40.2651 23.826C40.2176 24.265 40.2651 24.7154 40.2651 25.2812L41.8945 25.6795C42.5735 25.2472 42.6776 24.7018 42.7342 24.127C42.8767 22.7103 42.9605 21.2823 43.1868 19.8769C43.3574 18.9563 43.612 18.0533 43.9472 17.1792C44.1056 16.7469 44.4428 16.3645 44.7393 15.896ZM42.2498 26.0574C43.1166 25.6953 43.7073 25.0164 44.2233 24.2764C45.7509 22.0811 46.3778 19.5871 46.5702 16.9619C46.5546 16.7378 46.5175 16.5158 46.4593 16.2988L45.0561 16.1993C44.255 16.8194 43.9834 17.5934 43.8476 18.3492C43.5534 20.0104 43.361 21.6896 43.1687 23.3666C43.0578 24.342 42.974 25.3083 42.2634 26.0823L41.8108 26.0416C39.7468 25.8334 39.2331 25.2586 39.4119 23.2218C39.5228 21.9521 39.7129 20.6893 39.8804 19.4265C40.0093 18.4601 40.1632 17.496 40.2922 16.5319C40.342 16.1495 40.3692 15.7579 39.946 15.7059L37.8662 17.0117C37.8367 19.3472 37.7666 21.7122 38.1151 24.0546C38.3867 25.9579 40.4484 26.9106 42.234 26.0574H42.2498Z" fill="#F5DEA6" stroke="#F5DEA6" stroke-width="0.5" stroke-linejoin="round"/>
<path d="M28.8815 14.8731C29.6465 15.6742 29.918 16.67 30.0131 17.7359C30.09 18.5212 30.1828 19.3043 30.2734 20.0896C30.3345 20.6169 30.339 20.6169 30.8618 21.0718C31.9345 20.8274 32.0929 20.6078 32.3373 19.5487C32.7062 17.9645 33.1385 16.3803 33.5685 14.7033L35.4288 15.4547L36.5286 17.186C36.282 19.9017 36.0964 22.6333 35.3971 25.2993C35.1934 26.0846 35.0191 26.931 34.1524 27.3361L32.9122 26.5847L32.3667 25.7383C32.2943 25.1477 32.2151 24.5185 32.1404 23.8622L30.391 23.6245C30.047 24.953 30.4137 26.4806 29.3591 27.6982C28.4713 27.1324 27.7932 26.2914 27.4286 25.3038C26.4441 22.8461 26.5234 20.3023 26.7927 17.7472C26.8741 16.971 27.071 16.206 27.2136 15.4547C27.8247 15.242 28.1641 14.5494 28.8815 14.8731ZM33.7676 15.165C33.3716 16.7175 32.9801 18.1931 32.6225 19.6799C32.3192 20.9428 32.0635 21.1962 30.6581 21.375L29.651 20.6508C29.5922 20.2186 29.5378 19.8474 29.4926 19.4763C29.3591 18.3447 29.2504 17.2312 29.0852 16.1132C29.0241 15.7014 29.04 15.1741 28.4063 15.0654L27.4082 15.8598C26.8334 19.1708 26.4487 22.4749 27.9265 25.4804L29.0196 26.2725C29.2187 24.8308 29.4066 23.4707 29.6103 22.0019C30.4748 22.7691 31.3597 22.7465 32.3645 22.2282C32.4754 23.3734 32.5704 24.3714 32.6655 25.3513L33.711 26.019C34.2927 25.5369 34.476 24.9055 34.5756 24.2877C34.9671 21.8752 35.3314 19.4582 35.6392 17.0457C35.6935 16.6134 35.431 16.1404 35.345 15.7964L33.7676 15.165Z" fill="#F5DEA6" stroke="#F5DEA6" stroke-width="0.5" stroke-linejoin="round"/>
<path d="M53.8619 29.3367C52.7756 27.6597 51.472 26.2747 50.9198 24.2402C50.147 25.4617 49.6753 26.8494 49.5438 28.2889C48.7065 28.2594 48.4259 27.8362 48.1543 27.37C47.3826 26.0257 47.3079 24.5819 47.5229 23.1063C47.9121 20.4607 49.1772 18.1478 50.3156 15.7398H51.592C52.2573 16.4188 52.5221 17.2448 52.5991 18.1659C52.7213 19.6618 52.8639 21.1578 53.0019 22.6514C53.0264 22.8134 53.0611 22.9736 53.106 23.1312L55.6339 17.6137L56.5709 17.1407C57.4376 17.5481 57.7454 18.3899 57.7477 19.2296C57.7477 21.719 57.3924 24.1768 56.3468 26.4716C55.9892 27.2524 55.5592 28.0015 54.7219 28.4247C54.4548 28.5695 54.2625 28.9022 53.8619 29.3367ZM53.4093 27.7525C54.9572 27.0464 55.652 25.7519 56.1409 24.2922C56.7101 22.4974 57.0262 20.632 57.0801 18.7498C57.0696 18.417 57.0132 18.0872 56.9126 17.7699C56.8922 17.6839 56.7542 17.6273 56.632 17.5232L55.8308 17.8943C54.9618 19.8836 54.0973 21.8616 53.2101 23.8871C52.5312 23.6223 52.4271 23.0135 52.366 22.4319C52.2075 20.8613 52.0967 19.2862 51.9495 17.7133C51.902 17.1995 51.8047 16.6904 51.7232 16.0952L50.5577 15.9322C49.4533 18.2994 48.2607 20.5218 47.9076 23.0588C47.8052 23.728 47.7703 24.4058 47.8035 25.082C47.8488 25.7972 47.9506 26.5508 48.754 26.9491C50.0236 23.3688 50.0236 23.3688 50.8791 23.0362C51.2865 24.8535 52.4022 26.2838 53.4025 27.7503L53.4093 27.7525Z" fill="#F5DEA6" stroke="#F5DEA6" stroke-width="0.5" stroke-linejoin="round"/>
<path d="M20.9357 26.2362C20.8564 26.5553 20.7388 26.9378 20.6686 27.327C20.4423 28.5944 19.5212 29.3888 18.1362 28.4043C17.9551 28.2753 17.7514 28.178 17.4052 27.9766C17.3577 27.4764 17.206 26.8857 17.2603 26.3154C17.4866 23.9278 17.713 21.5402 18.4779 19.2341C18.8038 18.2451 18.9192 17.1973 19.1319 16.1562L20.4355 15.4502L21.7164 16.1042C22.7937 18.141 23.9796 20.2751 25.041 22.4704C25.6905 23.8283 25.858 25.3287 26.0164 26.8971L25.0297 27.4629L23.1716 26.2362H20.9357ZM24.7694 26.4014C24.8161 26.1546 24.8351 25.9034 24.826 25.6524C24.5408 24.0229 24.2647 22.3957 23.407 20.9314C22.8774 20.0262 22.4474 19.0598 21.9427 18.1365C21.4901 17.3217 21.0149 16.5274 20.5441 15.7149L19.442 16.464C19.1048 17.8378 18.8083 19.1142 18.4756 20.3815C17.9348 22.4183 17.7424 24.5185 17.6428 26.6209C17.6224 27.0441 17.756 27.4719 17.8239 27.9449L19.0573 28.0332L20.0892 25.3491L21.6599 25.5754L22.6126 25.0798C23.5269 25.2382 23.502 26.7047 24.7694 26.4014Z" fill="#F5DEA6" stroke="#F5DEA6" stroke-width="0.5" stroke-linejoin="round"/>
<path d="M28.7502 90.7353V84.4144C30.4362 84.3126 32.0702 84.29 33.6861 84.6634C33.9796 84.7279 34.2573 84.8502 34.5031 85.0232C35.311 85.6297 35.9311 86.6481 34.8493 87.671C34.6664 87.8317 34.4753 87.9827 34.2768 88.1237L36.3498 90.0722L34.4533 91.3373C33.1565 90.7602 32.7605 89.3299 31.5746 88.5016V90.9911C30.5743 91.1337 29.6736 91.2762 28.7502 90.7353ZM33.4077 87.8747C33.7511 87.5788 34.0789 87.2653 34.3899 86.9355C35.001 86.2113 34.8426 85.4215 33.9599 85.1499C32.4346 84.6769 30.8685 84.7086 29.2074 84.8648C29.0575 86.6838 29.065 88.5124 29.23 90.3302H30.8708C30.8708 89.4363 30.8459 88.651 30.8708 87.868C30.8957 87.0849 30.6875 86.2838 31.0971 85.5573C31.8416 85.3649 32.3554 85.641 32.8261 86.3222C32.7518 86.6187 32.6495 86.9074 32.5206 87.1845C32.344 87.4522 32.1449 87.7043 31.9254 87.9381C32.7831 89.296 33.3896 90.0066 34.1885 90.5362L35.4106 89.7305C34.9919 89.3526 34.6864 89.0787 34.3831 88.8003C34.0799 88.522 33.7902 88.2414 33.4077 87.8747Z" fill="#F5DEA6" stroke="#F5DEA6" stroke-width="0.5" stroke-linejoin="round"/>
<path d="M59.8479 88.3975V91.0024C58.8544 91.1178 57.9423 91.283 57.0552 90.7014V84.4008C58.8182 84.3329 60.5653 84.2424 62.2875 84.7335C63.1362 84.9756 63.5571 85.6139 63.7812 86.3833C63.8151 87.189 63.2403 87.61 62.7175 88.1531L64.7023 90.1062L62.8103 91.3396C61.5203 90.8055 61.1084 89.3367 59.8479 88.3975ZM61.7308 87.8363C62.0431 87.5806 62.2762 87.404 62.4935 87.2071C63.4621 86.3268 63.2629 85.4577 61.9978 85.0617C61.6792 84.9442 61.3469 84.8682 61.0089 84.8354C59.9972 84.7924 58.9856 84.7811 57.9717 84.7788C57.8002 84.8092 57.635 84.8681 57.4829 84.953V90.3279H59.1621C59.1893 88.6917 59.2187 87.1392 59.2436 85.6229C60.4386 85.4125 60.6287 85.5007 61.2374 86.5531C60.95 86.9831 60.6287 87.4583 60.2575 88.0218C60.9364 88.8637 61.6154 89.726 62.3871 90.681L63.6839 89.6355C62.9733 88.9882 62.3758 88.436 61.7308 87.8363Z" fill="#F5DEA6" stroke="#F5DEA6" stroke-width="0.5" stroke-linejoin="round"/>
<path d="M22.4067 84.3217H24.8735C25.5819 85.5234 25.5117 88.8366 24.74 89.8889C23.803 91.1653 22.4316 91.3487 20.9968 91.2084C19.5619 91.068 18.3896 90.4774 17.7514 89.1082C17.5917 88.7663 17.5002 88.3965 17.4821 88.0196C17.4482 86.8609 17.4686 85.6999 17.4686 84.4552H20.1187C20.2277 84.8647 20.3079 85.2814 20.3586 85.7021C20.4174 86.6074 20.4084 87.5126 20.4446 88.4066C20.47 88.5829 20.5148 88.756 20.5781 88.9226C21.7504 89.4612 22.3501 89.1489 22.3886 87.9404C22.4429 86.7817 22.4067 85.6207 22.4067 84.3217ZM22.8435 84.7132C22.8435 85.2541 22.8435 85.6999 22.8435 86.1434C22.8299 86.8563 22.8571 87.5738 22.7733 88.2799C22.676 89.1014 22.1894 89.5314 21.4652 89.5834C20.6686 89.6423 20.0711 89.2711 19.8946 88.4519C19.7747 87.7133 19.6991 86.9681 19.6683 86.2204C19.6298 85.7859 19.5982 85.3536 19.5552 84.815L17.9121 84.9101C17.9121 86.1231 17.8827 87.2072 17.928 88.2889C17.953 88.665 18.0763 89.0278 18.2855 89.3413C19.0799 90.5226 20.3224 90.6765 21.5852 90.5815C22.848 90.4864 24.0067 90.0813 24.4118 88.7348C24.8011 87.438 24.7241 86.0937 24.5589 84.7381C24.1878 84.6928 23.932 84.6407 23.6741 84.634C23.396 84.646 23.1188 84.6724 22.8435 84.7132Z" fill="#F5DEA6" stroke="#F5DEA6" stroke-width="0.5" stroke-linejoin="round"/>
<path d="M43.6983 84.1881C43.9562 84.8897 44.2075 85.5777 44.479 86.32C43.1642 86.8925 41.5256 86.8654 41.0255 88.5628C41.3853 89.0335 41.7723 89.2236 42.354 89.0357C42.4037 88.6668 42.4535 88.3002 42.5169 87.8476H44.8117C45.5337 88.7415 45.038 89.8618 45.2259 91.016C42.9876 91.4007 40.8988 91.4686 39.0249 90.0723C37.9205 89.2507 37.667 88.1486 38.432 87.0125C38.884 86.3718 39.4558 85.8246 40.1157 85.4012C41.1568 84.72 42.3562 84.3805 43.6983 84.1881ZM44.3183 90.4027C44.5967 89.2983 44.5945 89.2304 44.3002 88.2957H42.9424C42.8111 88.7483 42.7161 89.0968 42.578 89.554C42.2054 89.5358 41.8355 89.4812 41.4736 89.3911C40.2855 88.9724 40.0433 87.8612 40.9983 87.0329C41.4668 86.6278 42.0824 86.3856 42.6482 86.1073C43.008 85.957 43.3769 85.8293 43.7526 85.7248C43.5828 85.3106 43.4516 84.987 43.2999 84.6136C42.5056 84.8535 41.8085 85.0142 41.1522 85.2744C40.1515 85.6305 39.3031 86.3191 38.7488 87.2252C38.1762 88.2097 38.3595 89.2145 39.2919 89.7848C40.8761 90.7512 42.6006 90.7512 44.3183 90.3936V90.4027Z" fill="#F5DEA6" stroke="#F5DEA6" stroke-width="0.5" stroke-linejoin="round"/>
<path d="M44.685 9.78327L42.4037 10.6183C43.4154 11.0167 44.2346 10.7021 45.0584 10.8854C45.4974 12.0351 45.201 13.2209 45.2983 14.4611C43.4289 14.8708 41.7022 14.9703 40.161 13.7822C38.7126 12.6687 38.5066 11.0823 39.611 9.62259C40.6905 8.19909 42.1955 7.5292 44.0422 7.25084C44.2708 8.1312 44.4745 8.95044 44.685 9.78327ZM44.0377 9.01609C43.9404 8.64267 43.8272 8.19909 43.7163 7.76457C41.9058 8.08594 40.6566 8.79881 39.869 9.89642C39.0362 11.071 39.1358 12.5782 40.2176 13.3092C41.5754 14.2145 43.0691 14.2462 44.6578 13.7981V11.3086H43.0487C42.9627 11.7839 42.8948 12.1437 42.8224 12.5239C42.1231 12.6552 41.675 12.3904 41.417 11.8201C41.2939 11.5813 41.2598 11.3065 41.3208 11.0449C41.3817 10.7833 41.5338 10.5518 41.7497 10.392C42.4128 9.91678 43.1392 9.54792 44.0445 9.01609H44.0377Z" fill="#F5DEA6" stroke="#F5DEA6" stroke-width="0.5" stroke-linejoin="round"/>
<path d="M53.2781 84.1632C53.398 84.8082 53.5044 85.374 53.5972 85.8855C52.8797 86.4354 51.9903 85.8425 51.3748 86.5101C51.7957 87.0736 52.409 86.6278 53.0359 86.9989C53.1106 87.3859 53.2147 87.9359 53.3369 88.5718L51.4721 88.7121V88.9905C52.0062 89.3254 52.658 89.0131 53.3211 89.2168C53.8257 89.6694 53.7737 90.3167 53.699 90.9707C52.2619 91.3396 49.4602 91.1722 48.5775 90.6584V84.4144L53.2781 84.1632ZM48.9781 90.3845C50.3541 90.4321 51.635 90.5996 52.9567 90.3687V89.6332L50.8565 89.4635V88.0898L52.5539 87.9291V87.214L50.7841 87.1143C50.8113 86.5848 50.8339 86.1616 50.8588 85.7157L52.7394 85.3717V84.5774L48.9781 84.8037V90.3845Z" fill="#F5DEA6" stroke="#F5DEA6" stroke-width="0.5" stroke-linejoin="round"/>
<path d="M13.7865 87.5579C13.9404 87.7344 14.0761 87.8657 14.1825 88.0105C14.9814 89.1285 14.823 89.8211 13.6122 90.4367C12.1502 91.1677 10.5706 91.1677 8.99316 91.1156C8.72159 91.1043 8.4568 90.8893 8.20786 90.7897V84.4145C9.7581 84.3036 11.2404 84.3126 12.7047 84.6702C13.5873 84.8965 14.1078 85.4781 14.4292 86.449L13.7865 87.5579ZM8.64464 90.3506C10.3239 90.577 11.8289 90.4434 13.2524 89.7351C13.9494 89.3888 13.9992 89.1896 13.8227 88.1916L12.4648 87.3746C12.8631 86.7387 13.9358 86.6753 13.5964 85.5913C12.1208 84.4846 10.4008 84.8173 8.63332 84.849L8.64464 90.3506Z" fill="#F5DEA6" stroke="#F5DEA6" stroke-width="0.5" stroke-linejoin="round"/>
<path d="M29.4088 14.3027V7.59029C30.2417 7.36398 32.5342 7.44772 33.3127 7.71024C34.7815 8.20587 35.2296 9.25821 34.5846 10.693C34.5941 10.7644 34.6124 10.8343 34.6389 10.9012C35.6098 12.5578 35.2251 13.7437 33.3965 14.2484C32.3645 14.5335 31.2533 14.5494 30.1715 14.6241C29.9203 14.6422 29.651 14.4091 29.4088 14.3027ZM29.8615 13.927C31.1809 14.0493 32.4233 13.9565 33.5934 13.3635C34.5597 12.8747 34.6932 12.5171 34.399 11.3086L33.5526 10.5889L34.2723 9.8127C34.519 9.04776 34.2836 8.52496 33.6341 8.27149C32.4318 7.815 31.1297 7.68686 29.8615 7.90031V13.927Z" fill="#F5DEA6" stroke="#F5DEA6" stroke-width="0.5" stroke-linejoin="round"/>
<path d="M38.6129 14.5155C37.5425 14.5358 36.6485 14.7645 35.7818 14.2711V7.56315C36.6146 7.27347 37.4587 7.47266 38.4093 7.42739C38.751 9.79689 38.3866 12.103 38.6129 14.5155ZM36.2434 7.87096V13.7868H37.9204C38.1173 11.8246 38.0291 8.64947 37.7484 7.87096H36.2434Z" fill="#F5DEA6" stroke="#F5DEA6" stroke-width="0.5" stroke-linejoin="round"/>
<path d="M37.1306 6.22111L35.741 4.10058L37.0989 1.96415L38.4794 4.03268L37.1306 6.22111Z" fill="#F5DEA6" stroke="#F5DEA6" stroke-width="0.5" stroke-linejoin="round"/>
<path d="M69.3915 89.2734L68.3165 87.5941L69.387 85.9285L70.462 87.5738L69.3915 89.2734Z" fill="#F5DEA6" stroke="#F5DEA6" stroke-width="0.5" stroke-linejoin="round"/>
<path d="M3.91021 89.2552L2.84201 87.6303L3.90794 85.9443L4.98972 87.6009L3.91021 89.2552Z" fill="#F5DEA6" stroke="#F5DEA6" stroke-width="0.5" stroke-linejoin="round"/>
<path d="M62.8102 25.7994C62.59 25.7295 62.3764 25.6402 62.172 25.5324C61.5112 25.0979 61.4388 24.5615 61.9027 23.9165C62.5115 23.0746 63.1044 22.2214 63.6974 21.3682C63.892 21.0876 64.0708 20.7934 64.4872 20.9292C65.0462 22.3436 64.1681 25.0119 62.8102 25.7994ZM62.4323 25.1364C63.4439 25.1794 63.6883 24.8105 64.1115 22.9366L62.4323 25.1364Z" fill="#F5DEA6" stroke="#F5DEA6" stroke-width="0.5" stroke-linejoin="round"/>
<path d="M20.44 24.0794C20.2567 23.2104 20.4242 22.4953 21.0239 21.6692L22.2754 23.8758C21.6191 24.5502 21.5444 24.557 20.44 24.0794Z" fill="#F5DEA6" stroke="#F5DEA6" stroke-width="0.5" stroke-linejoin="round"/>
<path d="M10.2854 89.846V87.8951C11.4441 87.6688 11.7089 87.8227 12.1343 88.8864C11.8266 89.6196 11.2291 89.8663 10.2854 89.846Z" fill="#03001B" stroke="#F5DEA6" stroke-width="0.5" stroke-linejoin="round"/>
<path d="M10.3239 87.2706V85.365C11.3197 85.2382 11.8175 85.4894 11.8696 86.0892C11.9217 86.6889 11.4306 87.1302 10.3239 87.2706Z" fill="#03001B" stroke="#F5DEA6" stroke-width="0.5" stroke-linejoin="round"/>
<path d="M30.9038 87.2706V85.365C31.8996 85.2382 32.3975 85.4894 32.4496 86.0892C32.5016 86.6889 32.0105 87.1302 30.9038 87.2706Z" fill="#03001B" stroke="#F5DEA6" stroke-width="0.5" stroke-linejoin="round"/>
<path d="M59.3292 87.2706V85.365C60.325 85.2382 60.8229 85.4894 60.8749 86.0892C60.927 86.6889 60.4359 87.1302 59.3292 87.2706Z" fill="#03001B" stroke="#F5DEA6" stroke-width="0.5" stroke-linejoin="round"/>
<path d="M31.6403 11.0461L32.7719 11.8065C32.7085 12.6031 32.2943 12.8136 31.6403 12.9109V11.0461Z" fill="#F5DEA6" stroke="#F5DEA6" stroke-width="0.5" stroke-linejoin="round"/>
<path d="M31.5973 10.3445V8.78752L32.4188 8.96405C32.5025 9.93041 32.5025 9.93037 31.5973 10.3445Z" fill="#F5DEA6" stroke="#F5DEA6" stroke-width="0.5" stroke-linejoin="round"/>
<path fill-rule="evenodd" clip-rule="evenodd" d="M7.11192 47.8306C3.2389 42.5589 2.70102 36.5342 13.1367 32.8763C23.5724 29.2185 44.9817 25.8833 57.0312 30.6171C69.0806 35.3508 67.682 43.85 64.8848 45.3561C62.6471 46.5611 26.8716 46.7189 9.26363 46.6472C10.4829 45.9658 16.3857 44.6031 30.2426 44.6031C47.5637 44.6031 59.5056 43.7424 60.2587 42.021C61.0118 40.2997 62.2857 34.1354 53.9112 31.2626C45.5367 28.3897 24.2179 30.5095 13.9973 33.5218C5.82092 35.9317 6.00022 44.0651 7.11192 47.8306ZM7.97261 51.1657C5.9285 54.0705 9.90913 59.2346 10.2319 56.4374C10.5546 53.6402 15.1808 51.0581 18.9462 52.3491C21.5041 53.2261 22.8209 52.9116 24.0431 52.6197C24.6201 52.4819 25.1761 52.3491 25.8316 52.3491C26.513 52.3491 27.3259 52.7078 28.2742 53.1261C30.1709 53.9629 32.6095 55.0388 35.6218 53.9629C36.7246 53.569 37.7121 53.0727 38.6608 52.5957C41.5994 51.1185 44.1666 49.828 48.6396 52.3491C52.7652 54.6745 53.962 53.7572 54.9649 52.9886C55.4004 52.6549 55.7993 52.3491 56.3857 52.3491C56.6645 52.3491 57.0126 52.3424 57.4079 52.3348C59.758 52.2896 63.7797 52.2123 64.8848 53.3174C65.5107 53.9432 65.7826 53.2291 66.154 52.2535C66.5487 51.2167 67.0559 49.8845 68.22 49.5519C70.0274 49.0355 66.7496 47.4002 64.8848 46.6472C67.431 47.8306 68.93 50.0683 54.5567 49.5519C50.7893 49.4166 47.3484 49.267 44.1971 49.1301C32.3199 48.6139 24.5579 48.2766 18.9462 49.5519C13.2658 50.843 9.26363 51.1657 7.97261 51.1657ZM15.2884 63.7531C13.567 66.5503 7.11192 64.5062 7.11192 59.8801C7.61398 59.8801 9.09149 60.3319 10.985 62.1393C11.9793 63.0884 12.423 62.4617 13.1297 61.4634C14.1051 60.0854 15.5817 57.9995 19.6993 58.3739C24.0319 58.7677 24.5593 59.8025 25.3385 61.3315C25.8364 62.3083 26.4371 63.4869 28.1985 64.8289C30.8525 66.8511 32.6529 64.7904 34.8204 62.3095L34.8205 62.3094C36.3432 60.5665 38.0471 58.6162 40.3556 57.7284C45.95 55.5767 51.5444 56.4374 60.2587 59.2345C67.2302 61.4723 68.1124 57.5849 67.682 55.3615C67.8613 55.9353 68.1124 57.6423 67.682 59.8801C67.2412 62.1724 65.6442 61.9358 63.3649 61.5981C62.863 61.5238 62.3279 61.4445 61.7649 61.3862C58.6449 61.0635 57.7843 62.1393 57.0312 63.7531C56.2781 65.3669 50.2533 65.6896 47.7789 63C45.3045 60.3104 39.8176 62.3545 38.5266 64.8289C37.2356 67.3034 25.8316 68.5944 22.9269 64.8289C20.0221 61.0635 17.0097 60.9559 15.2884 63.7531ZM67.1758 66.8793C67.1017 65.3185 67.0311 63.8344 67.0921 62.6522L65.7003 63.7702C65.7003 63.7702 65.7365 70.0323 65.302 73.049C65.009 75.0833 62.8944 75.3445 60.5108 75.6389C59.3596 75.781 58.1457 75.931 57.0438 76.2921C53.6605 77.401 42.7975 77.8763 42.7975 77.8763L41.5957 79.1843C41.5957 79.1843 48.7178 78.8245 52.4135 79.1413C56.1092 79.4582 62.1766 77.9577 65.3133 76.7696C67.6046 75.9017 67.3768 71.1092 67.1758 66.8793ZM4.83918 73.5229C5.0063 72.1091 5.21939 70.3065 4.9897 67.9886C4.9897 67.9886 6.66894 69.2515 6.66894 74.4273C6.66894 77.1315 9.85766 77.2399 14.1461 77.3857L14.1465 77.3858C15.0834 77.4176 16.0728 77.4513 17.0929 77.5142C22.7824 77.8649 29.9203 79.0622 29.9203 79.0622C29.9203 79.0622 28.4086 79.6144 27.7749 79.7909C27.1412 79.9674 11.6433 79.302 7.22567 78.1139C4.38673 77.3503 4.53864 76.0652 4.83918 73.5229ZM60.8341 66.6693C50.4842 71.7088 42.9219 73.3305 37.3237 72.4875C35.671 72.2386 33.6831 71.874 31.5967 71.4914C26.6156 70.5779 21.0735 69.5615 18.1935 69.771C14.1071 70.0683 10.615 68.7148 10.0045 67.6875C9.39393 66.6603 14.5851 66.8185 22.8742 67.823C26.0642 68.2096 28.0763 69.1316 29.8617 69.9496C32.7156 71.2573 34.9902 72.2995 40.5702 70.4652C47.8268 68.0798 57.1031 66.9407 60.8341 66.6693Z" fill="#03001B"/>
<path d="M13.1367 32.8763L13.3021 33.3482L13.1367 32.8763ZM7.11192 47.8306L6.70898 48.1266L7.59146 47.689L7.11192 47.8306ZM57.0312 30.6171L56.8483 31.0824L57.0312 30.6171ZM64.8848 45.3561L64.6478 44.9159L64.8848 45.3561ZM9.26363 46.6472L9.01972 46.2107L7.3578 47.1394L9.26159 47.1472L9.26363 46.6472ZM53.9112 31.2626L54.0735 30.7896L53.9112 31.2626ZM13.9973 33.5218L14.1387 34.0014L13.9973 33.5218ZM7.97261 51.1657V50.6657H7.71307L7.56371 50.878L7.97261 51.1657ZM18.9462 52.3491L18.7841 52.8221L18.9462 52.3491ZM24.0431 52.6197L23.927 52.1334L24.0431 52.6197ZM28.2742 53.1261L28.0724 53.5836L28.2742 53.1261ZM35.6218 53.9629L35.4537 53.492H35.4537L35.6218 53.9629ZM38.6608 52.5957L38.8854 53.0425L38.6608 52.5957ZM48.6396 52.3491L48.3941 52.7847L48.6396 52.3491ZM54.9649 52.9886L54.6607 52.5918L54.6607 52.5918L54.9649 52.9886ZM57.4079 52.3348L57.4176 52.8347L57.4079 52.3348ZM66.154 52.2535L66.6213 52.4314L66.154 52.2535ZM68.22 49.5519L68.3573 50.0327L68.22 49.5519ZM64.8848 46.6472L65.0721 46.1835L64.6741 47.1006L64.8848 46.6472ZM54.5567 49.5519L54.5388 50.0516L54.5567 49.5519ZM44.1971 49.1301L44.2188 48.6306L44.1971 49.1301ZM18.9462 49.5519L18.8354 49.0644L18.9462 49.5519ZM7.11192 59.8801V59.3801H6.61192V59.8801H7.11192ZM10.985 62.1393L10.6397 62.501H10.6397L10.985 62.1393ZM13.1297 61.4634L13.5378 61.7523L13.1297 61.4634ZM19.6993 58.3739L19.7446 57.8759L19.6993 58.3739ZM25.3385 61.3315L24.8931 61.5585L25.3385 61.3315ZM28.1985 64.8289L28.5015 64.4312L28.1985 64.8289ZM34.8204 62.3095L35.197 62.6384L35.2092 62.6244L35.2204 62.6095L34.8204 62.3095ZM34.8205 62.3094L34.4439 61.9805L34.4316 61.9945L34.4205 62.0094L34.8205 62.3094ZM40.3556 57.7284L40.5351 58.195L40.3556 57.7284ZM60.2587 59.2345L60.1059 59.7106L60.2587 59.2345ZM67.682 55.3615L68.1593 55.2124L67.1912 55.4565L67.682 55.3615ZM67.682 59.8801L68.173 59.9745L67.682 59.8801ZM63.3649 61.5981L63.4382 61.1035L63.3649 61.5981ZM61.7649 61.3862L61.7134 61.8836L61.7649 61.3862ZM67.0921 62.6522L67.5915 62.678L67.649 61.5636L66.779 62.2624L67.0921 62.6522ZM67.1758 66.8793L67.6753 66.8555L67.1758 66.8793ZM65.7003 63.7702L65.3872 63.3804L65.1989 63.5316L65.2003 63.7731L65.7003 63.7702ZM65.302 73.049L65.7969 73.1203L65.302 73.049ZM60.5108 75.6389L60.5721 76.1351L60.5108 75.6389ZM57.0438 76.2921L56.8881 75.817L57.0438 76.2921ZM42.7975 77.8763L42.7756 77.3768L42.5691 77.3858L42.4293 77.538L42.7975 77.8763ZM41.5957 79.1843L41.2275 78.8461L40.4014 79.7453L41.621 79.6837L41.5957 79.1843ZM52.4135 79.1413L52.3708 79.6395L52.4135 79.1413ZM65.3133 76.7696L65.4904 77.2372L65.3133 76.7696ZM4.9897 67.9886L5.29023 67.589L4.37981 66.9044L4.49214 68.0379L4.9897 67.9886ZM4.83918 73.5229L5.33572 73.5815L4.83918 73.5229ZM14.1461 77.3857L14.1291 77.8855L14.1316 77.8855L14.1461 77.3857ZM14.1465 77.3858L14.1635 76.886L14.1609 76.886L14.1465 77.3858ZM17.0929 77.5142L17.0621 78.0132L17.0621 78.0132L17.0929 77.5142ZM29.9203 79.0622L30.0919 79.5318L31.8702 78.8822L30.003 78.5691L29.9203 79.0622ZM27.7749 79.7909L27.6407 79.3092L27.6407 79.3092L27.7749 79.7909ZM7.22567 78.1139L7.09581 78.5967H7.09581L7.22567 78.1139ZM37.3237 72.4875L37.3982 71.993L37.3237 72.4875ZM60.8341 66.6693L61.053 67.1188L60.7979 66.1706L60.8341 66.6693ZM31.5967 71.4914L31.6869 70.9996L31.5967 71.4914ZM18.1935 69.771L18.1572 69.2723L18.1935 69.771ZM22.8742 67.823L22.9344 67.3267H22.9344L22.8742 67.823ZM29.8617 69.9496L30.07 69.4951L29.8617 69.9496ZM40.5702 70.4652L40.7263 70.9402L40.5702 70.4652ZM12.9713 32.4045C7.68969 34.2558 5.02275 36.7621 4.27482 39.6218C3.53155 42.4636 4.74106 45.448 6.70898 48.1266L7.51486 47.5345C5.60976 44.9415 4.61382 42.2777 5.24227 39.8748C5.86607 37.4897 8.14803 35.1548 13.3021 33.3482L12.9713 32.4045ZM57.214 30.1517C51.0806 27.7421 42.6226 27.4003 34.4361 28.1017C26.2372 28.804 18.234 30.5598 12.9713 32.4045L13.3021 33.3482C18.4751 31.535 26.3944 29.7942 34.5214 29.098C42.6608 28.4007 50.9323 28.7583 56.8483 31.0824L57.214 30.1517ZM65.1219 45.7964C65.9701 45.3396 66.6477 44.3973 67.0097 43.2317C67.3754 42.0543 67.4355 40.6047 67.0073 39.0631C66.1466 35.9647 63.3386 32.5578 57.214 30.1517L56.8483 31.0824C62.7732 33.4101 65.2906 36.6196 66.0438 39.3307C66.4224 40.6939 66.3615 41.9474 66.0547 42.9351C65.7443 43.9346 65.1982 44.6196 64.6478 44.9159L65.1219 45.7964ZM9.26159 47.1472C18.0675 47.183 31.417 47.1615 42.846 46.9803C48.5599 46.8898 53.7979 46.7592 57.7493 46.5757C59.7242 46.484 61.3838 46.3789 62.6231 46.2582C63.2421 46.1979 63.7635 46.133 64.1701 46.0627C64.5536 45.9964 64.9011 45.9153 65.1219 45.7964L64.6478 44.9159C64.5888 44.9476 64.3947 45.009 63.9996 45.0773C63.6278 45.1416 63.1339 45.2037 62.5261 45.2629C61.3118 45.3811 59.6718 45.4854 57.7029 45.5768C53.7668 45.7596 48.5408 45.8899 42.8302 45.9805C31.41 46.1615 18.0677 46.183 9.26566 46.1472L9.26159 47.1472ZM30.2426 44.1031C23.299 44.1031 18.3373 44.4444 14.9512 44.8736C13.2583 45.0881 11.9548 45.3251 10.9918 45.5538C10.0419 45.7794 9.38792 46.0049 9.01972 46.2107L9.50754 47.0836C9.74898 46.9487 10.2901 46.7483 11.2229 46.5268C12.1426 46.3083 13.4095 46.0769 15.0769 45.8656C18.4112 45.4431 23.3294 45.1031 30.2426 45.1031V44.1031ZM59.8006 41.8206C59.8006 41.8206 59.7959 41.8314 59.7778 41.8522C59.7596 41.8732 59.7305 41.9013 59.6858 41.9352C59.5947 42.0042 59.4577 42.0832 59.2636 42.1677C58.8748 42.337 58.3154 42.5035 57.5813 42.6619C56.117 42.9778 54.0377 43.2447 51.4228 43.4592C46.1979 43.8879 38.8977 44.1031 30.2426 44.1031V45.1031C38.9087 45.1031 46.24 44.8878 51.5046 44.4559C54.1344 44.2401 56.2644 43.969 57.7922 43.6394C58.5542 43.475 59.1866 43.2919 59.6628 43.0846C59.9011 42.9808 60.1147 42.8649 60.2898 42.7322C60.4627 42.6012 60.6236 42.4344 60.7168 42.2214L59.8006 41.8206ZM53.749 31.7355C57.8116 33.1292 59.4488 35.2825 60.0289 37.2172C60.6198 39.1884 60.1443 41.0351 59.8006 41.8206L60.7168 42.2214C61.1262 41.2856 61.6642 39.1895 60.9867 36.93C60.2984 34.634 58.3853 32.2688 54.0735 30.7896L53.749 31.7355ZM14.1387 34.0014C19.2036 32.5086 27.0505 31.2297 34.6822 30.684C38.4952 30.4113 42.2441 30.3224 45.5553 30.4794C48.8745 30.6368 51.7218 31.0401 53.749 31.7355L54.0735 30.7896C51.9134 30.0486 48.9554 29.6395 45.6026 29.4805C42.2418 29.3212 38.4519 29.4118 34.6109 29.6865C26.9344 30.2355 19.0116 31.5227 13.856 33.0422L14.1387 34.0014ZM7.59146 47.689C7.05558 45.8739 6.74683 43.001 7.55065 40.311C8.34525 37.6519 10.228 35.1541 14.1387 34.0014L13.856 33.0422C9.59024 34.2995 7.47445 37.0733 6.59252 40.0247C5.71981 42.9452 6.05655 46.0218 6.63238 47.9722L7.59146 47.689ZM9.73518 56.38C9.70007 56.6843 9.62517 56.7602 9.62587 56.7596C9.66344 56.7262 9.69605 56.7569 9.62135 56.7306C9.52911 56.6981 9.37951 56.6042 9.19305 56.4143C9.01262 56.2305 8.82244 55.9819 8.64381 55.6832C8.28525 55.0835 7.99703 54.3218 7.91504 53.5551C7.83329 52.7905 7.95871 52.0543 8.38151 51.4535L7.56371 50.878C6.96446 51.7295 6.82091 52.7281 6.92071 53.6614C7.02028 54.5925 7.36411 55.4916 7.78554 56.1964C7.99691 56.5499 8.2337 56.8645 8.47941 57.1148C8.71909 57.3589 8.99478 57.5701 9.28917 57.6738C9.6011 57.7837 9.98168 57.7816 10.2907 57.5066C10.5629 57.2643 10.683 56.8897 10.7286 56.4947L9.73518 56.38ZM19.1084 51.8762C17.0724 51.1781 14.8345 51.5329 13.0744 52.413C11.3358 53.2823 9.92431 54.741 9.73518 56.38L10.7286 56.4947C10.8622 55.3365 11.9252 54.1056 13.5217 53.3074C15.0968 52.5198 17.0546 52.2291 18.7841 52.8221L19.1084 51.8762ZM23.927 52.1334C23.3156 52.2794 22.7307 52.4177 21.9921 52.4228C21.2559 52.4278 20.3435 52.2996 19.1084 51.8762L18.7841 52.8221C20.1068 53.2756 21.1317 53.4287 21.999 53.4228C22.8638 53.4168 23.5484 53.2519 24.1593 53.1061L23.927 52.1334ZM25.8316 51.8491C25.1094 51.8491 24.4995 51.9967 23.927 52.1334L24.1593 53.1061C24.7408 52.9672 25.2428 52.8491 25.8316 52.8491V51.8491ZM28.476 52.6687C28.0068 52.4616 27.547 52.2585 27.1175 52.1086C26.6893 51.9593 26.2542 51.8491 25.8316 51.8491V52.8491C26.0904 52.8491 26.4025 52.9183 26.7881 53.0528C27.1725 53.1869 27.5933 53.3722 28.0724 53.5836L28.476 52.6687ZM35.4537 53.492C32.6465 54.4946 30.3784 53.5079 28.476 52.6687L28.0724 53.5836C29.9634 54.4179 32.5724 55.5829 35.79 54.4338L35.4537 53.492ZM38.4363 52.149C37.4844 52.6275 36.5232 53.11 35.4537 53.492L35.79 54.4338C36.926 54.028 37.9398 53.5178 38.8854 53.0425L38.4363 52.149ZM48.8851 51.9136C46.5749 50.6115 44.7083 50.2692 43.014 50.4768C41.3452 50.6812 39.8917 51.4173 38.4363 52.149L38.8854 53.0425C40.3685 52.2969 41.6679 51.6492 43.1356 51.4693C44.5778 51.2926 46.2312 51.5657 48.3941 52.7847L48.8851 51.9136ZM54.6607 52.5918C54.166 52.971 53.7255 53.301 52.9548 53.3295C52.1515 53.3591 50.9184 53.0596 48.8851 51.9136L48.3941 52.7847C50.4863 53.964 51.9144 54.3685 52.9917 54.3288C54.1015 54.2878 54.7609 53.7749 55.269 53.3855L54.6607 52.5918ZM56.3857 51.8491C55.6067 51.8491 55.0798 52.2706 54.6607 52.5918L55.269 53.3855C55.721 53.0392 55.992 52.8491 56.3857 52.8491V51.8491ZM57.3983 51.8349C57.0012 51.8426 56.6587 51.8491 56.3857 51.8491V52.8491C56.6704 52.8491 57.0239 52.8423 57.4176 52.8347L57.3983 51.8349ZM65.2384 52.9638C64.8657 52.5912 64.3004 52.3612 63.7062 52.2073C63.0973 52.0495 62.3853 51.954 61.6525 51.8963C60.1866 51.7809 58.5691 51.8124 57.3983 51.8349L57.4176 52.8347C58.5968 52.8121 60.1652 52.7823 61.574 52.8932C62.2785 52.9487 62.926 53.0382 63.4554 53.1753C63.9996 53.3163 64.3514 53.4911 64.5313 53.671L65.2384 52.9638ZM65.6867 52.0756C65.5924 52.3234 65.5113 52.536 65.4311 52.7141C65.3484 52.8979 65.284 53.0043 65.237 53.0585C65.1945 53.1075 65.2259 53.0484 65.3193 53.053C65.3847 53.0562 65.3624 53.0878 65.2384 52.9638L64.5313 53.671C64.7202 53.8599 64.9666 54.037 65.2706 54.0518C65.6026 54.068 65.8425 53.8867 65.9927 53.7135C66.1383 53.5454 66.2507 53.3296 66.3429 53.1246C66.4378 52.914 66.5299 52.6714 66.6213 52.4314L65.6867 52.0756ZM68.0826 49.0712C67.3385 49.2838 66.8341 49.8099 66.477 50.3697C66.1231 50.9245 65.8808 51.566 65.6867 52.0756L66.6213 52.4314C66.822 51.9042 67.0306 51.3612 67.32 50.9075C67.6062 50.4589 67.9373 50.1527 68.3573 50.0327L68.0826 49.0712ZM64.6976 47.1108C65.6208 47.4836 66.8657 48.0645 67.6465 48.6005C67.8395 48.733 67.9918 48.8545 68.1002 48.961C68.1539 49.0138 68.1919 49.0582 68.2175 49.0937C68.23 49.1111 68.2385 49.1248 68.2439 49.1348C68.2494 49.1448 68.2511 49.1497 68.2511 49.1496C68.2434 49.1275 68.2398 49.0474 68.288 48.9896C68.3038 48.9706 68.2732 49.0167 68.0826 49.0712L68.3573 50.0327C68.6186 49.958 68.8809 49.8401 69.0561 49.6299C69.2637 49.3809 69.286 49.0824 69.1961 48.8226C69.1178 48.5963 68.9588 48.4029 68.8012 48.2479C68.6364 48.0859 68.4328 47.9273 68.2125 47.7761C67.34 47.1771 66.0137 46.5638 65.0721 46.1835L64.6976 47.1108ZM54.5388 50.0516C58.142 50.1811 60.7655 50.1386 62.6344 49.9806C64.4787 49.8246 65.66 49.5518 66.3172 49.169C66.6527 48.9736 66.9299 48.7035 67.0135 48.3323C67.0983 47.9557 66.9515 47.6215 66.7676 47.3744C66.414 46.8993 65.7426 46.4945 65.0956 46.1937L64.6741 47.1006C65.3002 47.3916 65.771 47.7102 65.9654 47.9714C66.0555 48.0925 66.0341 48.1296 66.0379 48.1126C66.0405 48.1011 66.0303 48.1789 65.8139 48.3049C65.3675 48.5649 64.3877 48.8287 62.5502 48.9841C60.7373 49.1374 58.1581 49.181 54.5747 49.0523L54.5388 50.0516ZM44.1754 49.6296C47.3265 49.7666 50.7693 49.9162 54.5388 50.0516L54.5747 49.0523C50.8094 48.917 47.3702 48.7675 44.2188 48.6306L44.1754 49.6296ZM19.057 50.0395C24.5867 48.7828 32.2648 49.112 44.1754 49.6296L44.2188 48.6306C32.3749 48.1158 24.5292 47.7703 18.8354 49.0644L19.057 50.0395ZM7.97261 51.6657C9.31137 51.6657 13.3521 51.3361 19.057 50.0395L18.8354 49.0644C13.1795 50.3498 9.21588 50.6657 7.97261 50.6657V51.6657ZM6.61192 59.8801C6.61192 62.4547 8.4094 64.2721 10.3672 65.0639C11.3501 65.4614 12.4094 65.6181 13.3601 65.4728C14.3149 65.3269 15.1889 64.8687 15.7142 64.0151L14.8625 63.4911C14.5271 64.0361 13.9487 64.3713 13.2091 64.4843C12.4653 64.5979 11.5881 64.4789 10.7421 64.1368C9.04198 63.4493 7.61192 61.9315 7.61192 59.8801H6.61192ZM11.3302 61.7777C10.3518 60.8438 9.46956 60.2492 8.75266 59.8859C8.04983 59.5298 7.4738 59.3801 7.11192 59.3801V60.3801C7.2521 60.3801 7.66586 60.4563 8.30067 60.7779C8.92141 61.0925 9.72463 61.6275 10.6397 62.501L11.3302 61.7777ZM12.7216 61.1745C12.5412 61.4293 12.3945 61.6359 12.2551 61.8C12.1138 61.9665 12.0129 62.0485 11.9404 62.085C11.8894 62.1107 11.8516 62.1164 11.787 62.0965C11.6998 62.0698 11.552 61.9894 11.3302 61.7777L10.6397 62.501C10.9151 62.7638 11.1956 62.961 11.4934 63.0525C11.8137 63.1509 12.1174 63.1154 12.39 62.9783C12.641 62.8519 12.8457 62.6494 13.0174 62.4473C13.1911 62.2427 13.3648 61.9966 13.5378 61.7523L12.7216 61.1745ZM19.7446 57.8759C17.5891 57.68 16.0765 58.1265 14.9657 58.841C13.869 59.5464 13.2072 60.4885 12.7216 61.1745L13.5378 61.7523C14.0276 61.0603 14.5918 60.2705 15.5067 59.682C16.4074 59.1027 17.692 58.6934 19.6541 58.8718L19.7446 57.8759ZM25.784 61.1044C25.398 60.347 25.02 59.5879 24.1232 59.0073C23.2474 58.4403 21.932 58.0748 19.7446 57.8759L19.6541 58.8718C21.7992 59.0668 22.9138 59.4156 23.5797 59.8467C24.2245 60.2642 24.4998 60.787 24.8931 61.5585L25.784 61.1044ZM28.5015 64.4312C26.8274 63.1557 26.2682 62.0545 25.784 61.1044L24.8931 61.5585C25.4045 62.5621 26.0467 63.818 27.8955 65.2267L28.5015 64.4312ZM34.4439 61.9805C33.3384 63.2459 32.4096 64.2984 31.453 64.8186C30.9928 65.0689 30.5497 65.1808 30.0934 65.1393C29.6341 65.0975 29.1111 64.8956 28.5015 64.4312L27.8955 65.2267C28.613 65.7733 29.3102 66.0722 30.0027 66.1352C30.6981 66.1985 31.3382 66.0193 31.9308 65.6971C33.0798 65.0722 34.135 63.854 35.197 62.6384L34.4439 61.9805ZM34.4205 62.0094L34.4204 62.0095L35.2204 62.6095L35.2205 62.6094L34.4205 62.0094ZM40.1761 57.2617C37.7323 58.2016 35.9502 60.2564 34.4439 61.9805L35.197 62.6384C36.7362 60.8767 38.362 59.0308 40.5351 58.195L40.1761 57.2617ZM60.4115 58.7585C51.6836 55.9569 45.9428 55.0437 40.1761 57.2617L40.5351 58.195C45.9571 56.1096 51.4051 56.9178 60.1059 59.7106L60.4115 58.7585ZM67.1912 55.4565C67.3915 56.4919 67.2609 57.8056 66.4047 58.6056C65.5687 59.3868 63.8402 59.859 60.4115 58.7585L60.1059 59.7106C63.6487 60.8478 65.8471 60.4952 67.0874 59.3363C68.3075 58.1963 68.4029 56.4545 68.1729 55.2665L67.1912 55.4565ZM68.173 59.9745C68.6168 57.6669 68.3664 55.8752 68.1593 55.2124L67.2048 55.5106C67.3563 55.9954 67.6079 57.6177 67.191 59.7856L68.173 59.9745ZM63.2916 62.0927C63.8564 62.1764 64.4037 62.2578 64.9037 62.2933C65.4027 62.3287 65.8903 62.3216 66.3344 62.2104C66.7899 62.0963 67.1999 61.8722 67.5251 61.4844C67.8441 61.1041 68.0526 60.6007 68.173 59.9745L67.191 59.7856C67.091 60.3056 66.9346 60.6323 66.7589 60.8418C66.5895 61.0438 66.3752 61.1693 66.0914 61.2404C65.7962 61.3143 65.4297 61.3281 64.9744 61.2958C64.5201 61.2635 64.013 61.1887 63.4382 61.1035L63.2916 62.0927ZM61.7134 61.8836C62.2639 61.9405 62.7884 62.0182 63.2916 62.0927L63.4382 61.1035C62.9375 61.0293 62.392 60.9484 61.8163 60.8889L61.7134 61.8836ZM57.4843 63.9645C57.8529 63.1746 58.2049 62.6186 58.7725 62.2693C59.3387 61.9208 60.206 61.7276 61.7134 61.8836L61.8163 60.8889C60.2039 60.7221 59.0808 60.9054 58.2484 61.4176C57.4174 61.929 56.9625 62.7178 56.5781 63.5417L57.4843 63.9645ZM47.4109 63.3385C48.7795 64.8261 51.0654 65.4346 53.0365 65.4901C54.0328 65.5182 54.9893 65.407 55.7609 65.1729C56.4977 64.9494 57.2006 64.5724 57.4843 63.9645L56.5781 63.5417C56.4852 63.7407 56.1526 64.0092 55.4706 64.216C54.8234 64.4123 53.9779 64.5162 53.0646 64.4905C51.2164 64.4385 49.2527 63.8635 48.1469 62.6615L47.4109 63.3385ZM38.9699 65.0602C39.5263 63.9939 41.0701 62.9256 42.836 62.4615C44.5975 61.9987 46.3555 62.1913 47.4109 63.3385L48.1469 62.6615C46.7279 61.1191 44.5053 60.989 42.5819 61.4944C40.6631 61.9986 38.818 63.1896 38.0833 64.5977L38.9699 65.0602ZM22.531 65.1343C23.3575 66.2057 24.7439 66.8695 26.2884 67.2509C27.8451 67.6353 29.6338 67.7507 31.3558 67.6683C33.0781 67.586 34.7592 67.3046 36.1039 66.8791C36.7757 66.6664 37.3774 66.4135 37.8621 66.1225C38.3388 65.8364 38.7474 65.4867 38.9699 65.0602L38.0833 64.5977C37.9831 64.7898 37.7529 65.0217 37.3475 65.2651C36.9501 65.5036 36.4263 65.7281 35.8021 65.9257C34.5547 66.3205 32.9611 66.5904 31.308 66.6695C29.6546 66.7485 27.9669 66.6353 26.5281 66.28C25.077 65.9218 23.9487 65.3349 23.3228 64.5235L22.531 65.1343ZM15.7142 64.0151C16.5009 62.7367 17.5167 62.2056 18.6086 62.327C19.746 62.4533 21.1162 63.3004 22.531 65.1343L23.3228 64.5235C21.8327 62.5921 20.2444 61.5026 18.719 61.3331C17.1482 61.1586 15.7971 61.9723 14.8625 63.4911L15.7142 64.0151ZM66.5928 62.6265C66.5302 63.8388 66.6026 65.3508 66.6764 66.903L67.6753 66.8555C67.6007 65.2863 67.532 63.83 67.5915 62.678L66.5928 62.6265ZM66.0134 64.16L67.4053 63.042L66.779 62.2624L65.3872 63.3804L66.0134 64.16ZM65.7969 73.1203C66.0189 71.5786 66.1187 69.2313 66.164 67.29C66.1867 66.3149 66.1958 65.4348 66.1992 64.7985C66.2009 64.4802 66.2012 64.2228 66.201 64.0448C66.201 63.9557 66.2008 63.8866 66.2006 63.8396C66.2005 63.816 66.2005 63.7981 66.2004 63.7859C66.2004 63.7799 66.2003 63.7753 66.2003 63.7721C66.2003 63.7706 66.2003 63.7694 66.2003 63.7686C66.2003 63.7682 66.2003 63.7679 66.2003 63.7677C66.2003 63.7676 66.2003 63.7675 66.2003 63.7674C66.2003 63.7673 66.2003 63.7673 65.7003 63.7702C65.2003 63.7731 65.2003 63.7731 65.2003 63.7731C65.2003 63.7732 65.2003 63.7732 65.2003 63.7733C65.2003 63.7735 65.2003 63.7737 65.2003 63.7741C65.2003 63.7748 65.2003 63.7759 65.2003 63.7774C65.2004 63.7803 65.2004 63.7847 65.2004 63.7906C65.2005 63.8023 65.2005 63.8199 65.2006 63.843C65.2008 63.8892 65.201 63.9575 65.201 64.0456C65.2012 64.2218 65.2009 64.4771 65.1992 64.7931C65.1958 65.4252 65.1868 66.2991 65.1642 67.2667C65.1189 69.2106 65.0196 71.5026 64.8071 72.9777L65.7969 73.1203ZM60.5721 76.1351C61.7417 75.9906 62.9421 75.8462 63.8812 75.4586C64.3608 75.2606 64.7991 74.9894 65.1407 74.6004C65.4864 74.2066 65.711 73.7169 65.7969 73.1203L64.8071 72.9777C64.7465 73.3983 64.5969 73.7041 64.3892 73.9406C64.1774 74.1819 63.8832 74.3759 63.4996 74.5342C62.7122 74.8593 61.6635 74.9927 60.4495 75.1426L60.5721 76.1351ZM57.1996 76.7672C58.2471 76.4239 59.4113 76.2784 60.5721 76.1351L60.4495 75.1426C59.3079 75.2836 58.0443 75.438 56.8881 75.817L57.1996 76.7672ZM42.7975 77.8763C42.8193 78.3758 42.8194 78.3758 42.8195 78.3758C42.8196 78.3758 42.8197 78.3758 42.8199 78.3758C42.8203 78.3758 42.8208 78.3757 42.8215 78.3757C42.8228 78.3757 42.8249 78.3756 42.8275 78.3754C42.8329 78.3752 42.8408 78.3749 42.8513 78.3744C42.8722 78.3734 42.9031 78.372 42.9436 78.3701C43.0245 78.3664 43.1434 78.3607 43.2958 78.3531C43.6005 78.3379 44.0394 78.3149 44.5765 78.2839C45.6505 78.2218 47.1183 78.1275 48.6928 77.9984C50.2665 77.8693 51.9509 77.7051 53.457 77.503C54.9534 77.3022 56.3065 77.06 57.1996 76.7672L56.8881 75.817C56.0895 76.0787 54.816 76.3117 53.324 76.5119C51.8417 76.7108 50.176 76.8734 48.611 77.0017C47.0468 77.13 45.5874 77.2238 44.5188 77.2855C43.9847 77.3164 43.5484 77.3392 43.2459 77.3543C43.0947 77.3619 42.9768 77.3675 42.897 77.3712C42.857 77.3731 42.8266 77.3745 42.8062 77.3754C42.796 77.3759 42.7883 77.3762 42.7831 77.3764C42.7806 77.3765 42.7787 77.3766 42.7774 77.3767C42.7768 77.3767 42.7763 77.3767 42.776 77.3767C42.7759 77.3768 42.7758 77.3768 42.7757 77.3768C42.7756 77.3768 42.7756 77.3768 42.7975 77.8763ZM41.9639 79.5226L43.1657 78.2146L42.4293 77.538L41.2275 78.8461L41.9639 79.5226ZM52.4562 78.6432C50.5786 78.4822 47.8499 78.4938 45.6075 78.5441C44.4827 78.5694 43.474 78.6046 42.7465 78.6334C42.3827 78.6479 42.089 78.6607 41.8862 78.67C41.7847 78.6746 41.706 78.6784 41.6525 78.6809C41.6258 78.6822 41.6054 78.6832 41.5916 78.6839C41.5847 78.6843 41.5795 78.6845 41.576 78.6847C41.5742 78.6848 41.5729 78.6848 41.5719 78.6849C41.5715 78.6849 41.5711 78.6849 41.5709 78.6849C41.5708 78.6849 41.5707 78.685 41.5706 78.685C41.5705 78.685 41.5705 78.685 41.5957 79.1843C41.621 79.6837 41.621 79.6837 41.621 79.6837C41.6211 79.6837 41.6211 79.6837 41.6212 79.6837C41.6214 79.6837 41.6217 79.6837 41.6221 79.6836C41.6229 79.6836 41.6242 79.6835 41.6259 79.6834C41.6292 79.6833 41.6342 79.683 41.6409 79.6827C41.6543 79.682 41.6744 79.6811 41.7007 79.6798C41.7534 79.6772 41.8312 79.6736 41.9318 79.669C42.1329 79.6598 42.4245 79.647 42.7861 79.6327C43.5095 79.604 44.5123 79.569 45.63 79.5439C47.8725 79.4935 50.5527 79.4836 52.3708 79.6395L52.4562 78.6432ZM65.1362 76.302C63.5962 76.8854 61.3213 77.5505 58.973 78.0299C56.6168 78.511 54.232 78.7954 52.4562 78.6432L52.3708 79.6395C54.2907 79.8041 56.7874 79.4968 59.173 79.0097C61.5666 78.5211 63.8938 77.842 65.4904 77.2372L65.1362 76.302ZM66.6764 66.903C66.7775 69.0299 66.8813 71.2421 66.6823 73.0299C66.5828 73.923 66.411 74.6744 66.1462 75.2413C65.8841 75.8025 65.55 76.1453 65.1362 76.302L65.4904 77.2372C66.2223 76.96 66.7189 76.3782 67.0523 75.6645C67.3829 74.9565 67.5712 74.0827 67.6761 73.1405C67.8858 71.2576 67.7752 68.9585 67.6753 66.8555L66.6764 66.903ZM4.49214 68.0379C4.71611 70.2981 4.50926 72.0546 4.34264 73.4642L5.33572 73.5815C5.50335 72.1635 5.72267 70.3149 5.48727 67.9393L4.49214 68.0379ZM7.16894 74.4273C7.16894 71.7861 6.74054 70.1057 6.28764 69.0672C6.06115 68.5478 5.82937 68.191 5.64442 67.9569C5.55206 67.84 5.47182 67.7542 5.4104 67.6945C5.3797 67.6647 5.35377 67.6414 5.33344 67.624C5.32328 67.6153 5.31453 67.6081 5.30729 67.6023C5.30367 67.5994 5.30043 67.5969 5.29758 67.5947C5.29616 67.5936 5.29483 67.5925 5.2936 67.5916C5.29299 67.5911 5.2924 67.5907 5.29184 67.5903C5.29156 67.59 5.29116 67.5897 5.29102 67.5896C5.29062 67.5893 5.29023 67.589 4.9897 67.9886C4.68918 68.3882 4.6888 68.388 4.68843 68.3877C4.68832 68.3876 4.68795 68.3873 4.68772 68.3871C4.68726 68.3868 4.68683 68.3865 4.68642 68.3862C4.6856 68.3855 4.68488 68.385 4.68426 68.3845C4.68303 68.3835 4.6822 68.3829 4.68176 68.3825C4.68087 68.3818 4.68155 68.3823 4.68368 68.3842C4.68795 68.3878 4.6981 68.3967 4.71332 68.4115C4.74373 68.4411 4.79468 68.4944 4.85975 68.5768C4.98966 68.7412 5.17769 69.0236 5.37101 69.4669C5.75773 70.3537 6.16894 71.8926 6.16894 74.4273H7.16894ZM14.1631 76.886C11.9929 76.8122 10.1973 76.7476 8.93753 76.3854C8.3162 76.2067 7.87999 75.9695 7.59999 75.669C7.33227 75.3817 7.16894 74.9956 7.16894 74.4273H6.16894C6.16894 75.2111 6.40421 75.8526 6.86838 76.3507C7.32028 76.8357 7.94928 77.1417 8.66118 77.3464C10.0679 77.7509 12.0108 77.8134 14.1291 77.8855L14.1631 76.886ZM14.1609 76.886L14.1605 76.886L14.1316 77.8855L14.132 77.8856L14.1609 76.886ZM17.1237 77.0151C16.0956 76.9517 15.0995 76.9179 14.1635 76.8861L14.1295 77.8855C15.0673 77.9174 16.05 77.9508 17.0621 78.0132L17.1237 77.0151ZM29.9203 79.0622C30.003 78.5691 30.003 78.569 30.0029 78.569C30.0028 78.569 30.0027 78.569 30.0026 78.569C30.0024 78.5689 30.002 78.5689 30.0016 78.5688C30.0006 78.5687 29.9993 78.5684 29.9975 78.5681C29.994 78.5675 29.9887 78.5667 29.9817 78.5655C29.9678 78.5632 29.9472 78.5598 29.9202 78.5553C29.866 78.5464 29.7861 78.5333 29.6825 78.5165C29.4752 78.4829 29.1731 78.4346 28.7928 78.3755C28.0325 78.2575 26.9595 78.0964 25.7083 77.9244C23.2081 77.5806 19.9869 77.1916 17.1237 77.0151L17.0621 78.0132C19.8884 78.1875 23.081 78.5725 25.5721 78.915C26.8165 79.0862 27.8836 79.2463 28.6394 79.3637C29.0173 79.4224 29.3172 79.4703 29.5225 79.5036C29.6252 79.5202 29.7042 79.5332 29.7574 79.542C29.784 79.5464 29.8041 79.5497 29.8176 79.5519C29.8243 79.5531 29.8294 79.5539 29.8327 79.5545C29.8344 79.5547 29.8357 79.5549 29.8365 79.5551C29.8369 79.5552 29.8372 79.5552 29.8374 79.5552C29.8375 79.5553 29.8375 79.5553 29.8376 79.5553C29.8376 79.5553 29.8376 79.5553 29.9203 79.0622ZM27.909 80.2725C28.2441 80.1792 28.7957 79.9915 29.2505 79.8322C29.4807 79.7516 29.6909 79.6766 29.8434 79.6217C29.9197 79.5943 29.9817 79.5718 30.0246 79.5563C30.0461 79.5485 30.0628 79.5424 30.0742 79.5382C30.0799 79.5362 30.0843 79.5346 30.0873 79.5335C30.0888 79.533 30.0899 79.5325 30.0907 79.5323C30.091 79.5321 30.0913 79.532 30.0915 79.5319C30.0916 79.5319 30.0917 79.5319 30.0918 79.5318C30.0918 79.5318 30.0918 79.5318 30.0918 79.5318C30.0919 79.5318 30.0919 79.5318 29.9203 79.0622C29.7488 78.5925 29.7488 78.5925 29.7488 78.5925C29.7488 78.5925 29.7488 78.5925 29.7487 78.5925C29.7487 78.5925 29.7486 78.5926 29.7486 78.5926C29.7484 78.5927 29.7481 78.5927 29.7478 78.5929C29.7471 78.5931 29.7461 78.5935 29.7447 78.594C29.7419 78.595 29.7377 78.5966 29.7321 78.5986C29.7211 78.6026 29.7047 78.6086 29.6836 78.6162C29.6414 78.6315 29.5803 78.6536 29.505 78.6807C29.3543 78.7349 29.1469 78.809 28.9199 78.8884C28.4604 79.0494 27.9393 79.226 27.6407 79.3092L27.909 80.2725ZM7.09581 78.5967C9.36233 79.2063 14.3954 79.6712 18.8868 79.9631C21.1444 80.1098 23.2841 80.2138 24.9006 80.2701C25.7084 80.2982 26.388 80.3146 26.8875 80.3182C27.1367 80.3201 27.3449 80.3188 27.5034 80.314C27.5823 80.3116 27.6533 80.3082 27.713 80.3033C27.7611 80.2995 27.8384 80.2922 27.9091 80.2725L27.6407 79.3092C27.6718 79.3006 27.6804 79.3027 27.6324 79.3066C27.5961 79.3095 27.5435 79.3123 27.473 79.3144C27.3327 79.3187 27.1387 79.32 26.8948 79.3183C26.4082 79.3147 25.7386 79.2987 24.9354 79.2707C23.3296 79.2148 21.2 79.1113 18.9517 78.9652C14.4313 78.6714 9.50664 78.2096 7.35554 77.631L7.09581 78.5967ZM4.34264 73.4642C4.26832 74.0928 4.19905 74.675 4.18621 75.193C4.17332 75.7127 4.21519 76.2093 4.38777 76.6632C4.75262 77.6226 5.61984 78.1997 7.09581 78.5967L7.35554 77.631C5.99256 77.2645 5.51626 76.8173 5.32247 76.3077C5.21572 76.027 5.17449 75.6779 5.1859 75.2178C5.19735 74.7559 5.25977 74.2241 5.33572 73.5815L4.34264 73.4642ZM37.2492 72.9819C42.9972 73.8475 50.6712 72.1738 61.053 67.1188L60.6153 66.2197C50.2971 71.2437 42.8466 72.8135 37.3982 71.993L37.2492 72.9819ZM31.5065 71.9832C33.5904 72.3654 35.587 72.7316 37.2492 72.9819L37.3982 71.993C35.7551 71.7456 33.7758 71.3827 31.6869 70.9996L31.5065 71.9832ZM18.2297 70.2697C19.6102 70.1693 21.6678 70.3629 24.0357 70.7049C26.3927 71.0454 29.0138 71.526 31.5065 71.9832L31.6869 70.9996C29.1986 70.5433 26.558 70.0589 24.1787 69.7152C21.8103 69.3731 19.6567 69.1632 18.1572 69.2723L18.2297 70.2697ZM9.57467 67.943C9.79575 68.315 10.2229 68.6451 10.723 68.9247C11.2396 69.2135 11.8971 69.4828 12.6544 69.7056C14.1696 70.1515 16.1243 70.4229 18.2297 70.2697L18.1572 69.2723C16.1763 69.4164 14.3417 69.1597 12.9367 68.7463C12.2338 68.5395 11.6485 68.2964 11.2109 68.0518C10.7568 67.798 10.5185 67.5737 10.4343 67.4321L9.57467 67.943ZM22.9344 67.3267C18.7853 66.8239 15.3944 66.5306 13.1101 66.4934C11.977 66.475 11.0773 66.5185 10.4871 66.6452C10.2089 66.705 9.90805 66.8006 9.70308 66.9898C9.5876 67.0964 9.48444 67.25 9.46079 67.45C9.4377 67.6453 9.49868 67.8152 9.57467 67.943L10.4343 67.4321C10.4344 67.4322 10.4416 67.4443 10.4477 67.4676C10.4542 67.4921 10.4587 67.5266 10.4539 67.5675C10.4432 67.6575 10.3971 67.7101 10.3813 67.7247C10.3758 67.7298 10.4451 67.6771 10.6972 67.6229C11.1677 67.5219 11.9693 67.475 13.0939 67.4933C15.3248 67.5296 18.674 67.8177 22.8141 68.3194L22.9344 67.3267ZM30.07 69.4951C28.2744 68.6724 26.2044 67.7229 22.9344 67.3267L22.8141 68.3194C25.924 68.6963 27.8782 69.5908 29.6534 70.4042L30.07 69.4951ZM40.414 69.9902C37.6696 70.8924 35.7821 71.0726 34.2532 70.8892C32.7186 70.7051 31.5036 70.1519 30.07 69.4951L29.6534 70.4042C31.0737 71.0549 32.4229 71.6767 34.1341 71.8821C35.851 72.0881 37.8907 71.8723 40.7263 70.9402L40.414 69.9902ZM60.7979 66.1706C57.0482 66.4433 47.7261 67.5866 40.414 69.9902L40.7263 70.9402C47.9275 68.573 57.158 67.438 60.8704 67.1679L60.7979 66.1706Z" fill="#F5DEA6"/>
</svg>
