<svg width="141" height="33" viewBox="0 0 141 33" fill="none" xmlns="http://www.w3.org/2000/svg">
<path d="M42.1057 3.46033H39.6369H39.2081L39.1427 3.03658L39.0685 2.55553L38.9796 1.97929H39.5627H51.6575H51.9211L52.07 2.19672C52.1634 2.33304 52.2696 2.48225 52.383 2.6416C52.7003 3.08745 53.0742 3.61275 53.3821 4.15739L53.3825 4.15806C54.3059 5.79731 61.067 16.928 62.1228 18.6536L62.1239 18.6554C62.2167 18.8085 62.3075 18.9636 62.3968 19.1195C62.403 18.9676 62.409 18.8069 62.4147 18.6376C62.4527 17.5092 62.4792 16.018 62.4928 14.3221C62.5187 11.0778 62.4972 7.09369 62.4196 3.48508H59.9399H59.4399V2.98508V2.46554V1.96554H59.9399H73.0958H73.5958V2.46554V2.93285V3.43285H73.0958H71.6022C71.6278 3.53668 71.6572 3.65354 71.6904 3.78282C71.8349 4.34518 72.046 5.12695 72.3034 6.05889C72.8178 7.92197 73.5143 10.3756 74.2244 12.8534C75.2422 16.4049 76.2872 20.003 76.8627 21.9773C77.8146 19.1382 79.3294 13.9911 79.7171 12.6313C79.8467 12.1525 79.8469 11.648 79.7174 11.1692C79.4926 10.3976 78.9006 8.4649 78.3449 6.68117C78.0668 5.78838 77.7983 4.9349 77.5903 4.28538C77.4863 3.96042 77.3978 3.68787 77.3309 3.48746C77.3272 3.47634 77.3236 3.46547 77.32 3.45485H76.1992H75.7596L75.7033 3.01882C75.6862 2.88582 75.6738 2.77936 75.6592 2.65454C75.6548 2.61596 75.6501 2.57563 75.6449 2.53221L75.5793 1.9738H76.1415H86.0153H86.4878L86.5145 2.44556L86.542 2.9321L86.5719 3.46033H86.0428H83.5817C84.0402 4.99351 85.2227 8.97124 86.4018 12.9757C87.1353 15.4666 87.8685 17.971 88.4268 19.9088C88.6583 20.7126 88.8601 21.4199 89.0194 21.9886C89.0613 21.883 89.102 21.7797 89.1423 21.6765L89.143 21.6747C89.4849 20.8101 90.8502 16.2144 92.1414 11.7496C92.7842 9.52716 93.4048 7.35077 93.8646 5.71023C94.0945 4.88974 94.2839 4.20449 94.4156 3.71492C94.4347 3.64406 94.4525 3.57747 94.469 3.51531H92.4146H91.9739L91.9185 3.0781C91.9021 2.94836 91.8894 2.85697 91.8763 2.76247C91.8674 2.6977 91.8582 2.63146 91.8475 2.5504L91.7726 1.98479H92.3431H98.6408H99.1074L99.1396 2.45033L99.1698 2.8874L99.2067 3.42186H98.671H96.3353C96.3261 3.4506 96.3164 3.48106 96.3062 3.51323C96.23 3.75323 96.1264 4.0841 95.9994 4.49329C95.7454 5.31144 95.3984 6.43969 94.99 7.77385C94.1734 10.442 93.1121 13.9318 92.0599 17.4074C91.0077 20.883 89.9648 24.3439 89.185 26.9541C88.7951 28.2593 88.4712 29.3511 88.2448 30.1255C88.1316 30.5129 88.0432 30.8194 87.9833 31.0331C87.9533 31.1402 87.9311 31.2216 87.9166 31.2772C87.9136 31.289 87.911 31.299 87.9089 31.3074V31.7569H87.4089H86.3094H85.9734L85.8465 31.4458C85.7664 31.2496 85.4251 30.1479 84.966 28.6436C84.5018 27.1225 83.9041 25.145 83.3001 23.1467L83.2946 23.1286C82.1713 19.4119 81.0347 15.6522 80.6853 14.5879C80.6211 14.7785 80.5519 14.9857 80.4784 15.2072C80.0908 16.3747 79.5858 17.9315 79.0732 19.5361C78.0443 22.7564 76.9967 26.1315 76.7953 26.9618C76.7953 26.9621 76.7952 26.9624 76.7951 26.9627L76.3092 26.845C76.1083 27.6886 75.8531 28.5234 75.5983 29.3569C75.5044 29.6641 75.4106 29.9711 75.3196 30.2783L42.1057 3.46033ZM42.1057 3.46033C42.1059 5.4422 42.107 7.41032 42.1082 9.36984C42.1106 13.5882 42.113 17.7667 42.1057 21.9567V21.9576C42.1057 22.6315 42.0265 23.2877 41.9432 23.9779C41.9075 24.2735 41.8711 24.5752 41.8398 24.8873L41.8397 24.8876C41.8368 24.8924 41.8334 24.898 41.8298 24.9042C41.8258 24.911 41.8214 24.9186 41.8169 24.9265C41.8003 24.9559 41.7765 25.0002 41.7561 25.0541L41.756 25.0541L41.7537 25.0605C41.2949 26.3223 40.847 27.3835 39.8572 28.2906C38.8448 29.2184 37.7588 29.7189 36.4374 29.7041L36.4374 29.7041H36.4318C36.261 29.7041 36.0842 29.702 35.904 29.6999C35.5305 29.6956 35.1428 29.6911 34.765 29.7044L34.7638 29.7044C33.2643 29.7606 32.314 28.9447 31.4863 27.641C30.8004 26.4926 30.4534 25.1734 30.4856 23.8361L30.4858 23.8284L30.4857 23.8207C30.4534 18.9735 30.4583 14.127 30.4631 9.27834C30.4648 7.53003 30.4666 5.78142 30.4666 4.03238V3.43285H32.9628H33.4628V2.93285V2.45456V1.95456H32.9628H21.7421H21.2011L21.2436 2.49388L21.2848 3.01615L21.3212 3.47682H21.7833H24.5377C24.5371 5.06961 24.5335 6.65506 24.5299 8.23528C24.5219 11.7078 24.5141 15.1551 24.5379 18.5992L24.5379 18.5992C24.5411 19.0718 24.5307 19.5563 24.5201 20.049C24.4881 21.5378 24.4545 23.1007 24.7929 24.6318C25.0421 25.9241 25.5798 27.1435 26.3659 28.1992L26.3658 28.1992L26.3724 28.2077C27.8913 30.1584 30.1197 30.8996 32.2794 31.1461L32.28 31.1462C34.141 31.3564 36.1462 31.4653 38.1109 30.9361C39.0143 30.7195 39.8564 30.2994 40.5727 29.7076C41.2474 29.1731 41.828 28.5296 42.2906 27.8037L42.2992 27.7902L42.3069 27.7763C42.8285 26.8299 43.175 25.7973 43.3299 24.7279C43.5566 23.5244 43.6785 22.3034 43.694 21.0787H43.6941L43.694 21.0673C43.6517 16.9382 43.6581 12.8088 43.6645 8.67559C43.6668 7.17423 43.6692 5.67237 43.6692 4.16983V3.50707H46.1739V29.1245M42.1057 3.46033L46.1739 29.1245M46.1739 29.1245C46.0832 29.1255 45.9938 29.1266 45.9056 29.1278C45.4504 29.1337 45.0255 29.1392 44.5933 29.1226C44.3151 29.0899 44.0334 29.1506 43.793 29.2957C43.5445 29.4456 43.3553 29.6764 43.2569 29.9492L43.0154 30.6189H43.7273H50.734H52.1356L51.0504 29.7317C50.3487 29.1581 49.6209 29.0987 48.997 29.1185C48.8564 29.1229 48.7168 29.1316 48.5866 29.1397L48.5532 29.1418C48.4105 29.1506 48.2789 29.1583 48.1508 29.1609C48.0398 29.1631 47.9365 29.1612 47.8391 29.1536V6.77899C47.9411 6.94642 48.0394 7.12113 48.1424 7.30394C48.1726 7.35775 48.2033 7.41226 48.2346 7.46749L48.2355 7.4691C49.1753 9.11372 61.1484 28.7891 62.1401 30.3879L62.2867 30.6243H62.565H63.5189H64.0189V30.1243V3.52632H65.2597L46.1739 29.1245Z" fill="#3290FF" stroke="#F5DEA6"/>
<path d="M4.41359 3.50158H1.85135H1.13322L1.38242 2.82808C1.41136 2.74985 1.42878 2.68791 1.44871 2.61702C1.45956 2.57845 1.47115 2.53723 1.48574 2.4893C1.50192 2.43617 1.52804 2.35472 1.56872 2.27789C1.60308 2.21296 1.70064 2.04739 1.9104 1.97747L1.94816 1.96489L1.98743 1.95843C2.24705 1.91577 2.51113 1.90708 2.77291 1.93257C3.86196 1.93247 4.95382 1.92629 6.04732 1.92009C8.7493 1.90479 11.4614 1.88942 14.1662 1.96575L4.41359 3.50158ZM4.41359 3.50158V29.1653H1.88987H1.3075L1.39563 29.741L1.46717 30.2083L1.5289 30.6115L1.93629 30.632C3.56266 30.7138 6.03533 30.7405 8.23804 30.7223C9.34039 30.7131 10.3791 30.6927 11.2142 30.662C12.0342 30.6319 12.6951 30.5909 13.0161 30.5343L13.5289 30.4438L13.4177 29.9351L13.327 29.52L13.241 29.1268H12.8385H10.4412V16.1268C10.864 16.1318 11.2774 16.1138 11.6545 16.0974C11.8014 16.091 11.9429 16.0848 12.0772 16.0803C12.7269 16.0587 13.1754 16.08 13.4679 16.2008C14.4188 16.7584 15.0024 17.3928 15.3617 18.0493C15.726 18.7148 15.8765 19.4334 15.9153 20.1758C15.9467 20.8856 16.0237 21.5935 16.0985 22.2814C16.1209 22.4867 16.143 22.6902 16.1637 22.8914C16.2548 23.7788 16.3199 24.6395 16.2701 25.5022L16.2701 25.5022L16.2699 25.5074C16.2112 26.7454 16.7497 28.2468 17.4484 29.3311C17.7929 29.8666 18.3273 30.3344 18.9041 30.6702C19.4792 31.005 20.143 31.2355 20.7664 31.2455V31.2456H20.7744C21.0004 31.2456 21.2202 31.2431 21.4367 31.2406C21.8572 31.2357 22.2653 31.231 22.6815 31.2453L22.69 31.2456H22.6986C23.3867 31.2456 23.9798 31.0088 24.5112 30.7966C24.6269 30.7504 24.7397 30.7054 24.85 30.6642C25.6624 30.3608 25.957 29.7153 26.2301 29.1166C26.2654 29.0392 26.3004 28.9627 26.336 28.8877L26.8638 27.7781L25.7112 28.204C25.4361 28.3056 25.2279 28.4531 25.0545 28.5905C24.9908 28.641 24.9357 28.6864 24.884 28.7291C24.7831 28.8124 24.6952 28.885 24.5809 28.9635C24.3095 29.1499 23.9198 29.3404 23.1472 29.3899C22.909 29.1481 22.7519 28.8359 22.701 28.497L22.7008 28.4958C22.6195 27.963 22.2521 23.6269 22.2053 22.8511L22.2051 22.8484C22.155 22.0848 22.0609 21.3246 21.9234 20.5717C21.6038 18.7613 20.7783 17.2613 19.0783 16.2352L19.0777 16.2349C18.3154 15.7763 17.5178 15.5095 16.7239 15.3008C16.458 15.2309 16.189 15.1667 15.921 15.1042C16.2135 14.9974 16.5285 14.8792 16.8493 14.7521C17.4215 14.5255 18.0208 14.2673 18.5505 13.9902C19.0705 13.7183 19.5642 13.4076 19.8929 13.0647L19.8929 13.0648L19.8976 13.0598C21.5041 11.3376 21.6251 8.91101 21.1933 7.19266L21.1933 7.19243C20.8703 5.90972 20.1366 4.97873 19.3213 4.11566C17.8872 2.58923 16.05 2.01788 14.1665 1.96575L4.41359 3.50158ZM13.456 14.0709L13.4375 14.0809L13.42 14.0923C12.9235 14.4164 12.3395 14.5801 11.7471 14.5613C11.3426 14.5351 10.9177 14.544 10.5083 14.5525C10.4821 14.5531 10.456 14.5536 10.43 14.5542L10.4249 3.47413C10.715 3.46576 11.0149 3.45726 11.3321 3.45204C11.4732 3.44971 11.6136 3.43991 11.7425 3.43015C11.7643 3.4285 11.7857 3.42686 11.8068 3.42525C11.9146 3.41697 12.0136 3.40937 12.1123 3.40485C12.3501 3.39396 12.5279 3.40506 12.6699 3.45041L12.6712 3.45081C13.6247 3.75246 14.3515 4.25604 14.6131 5.12527C14.7343 5.54273 14.8802 6.6745 14.9902 7.86758C15.0997 9.05458 15.1643 10.1962 15.143 10.6095L15.143 10.6095L15.1427 10.6171C15.1407 10.6725 15.1388 10.7273 15.137 10.7815C15.1144 11.4431 15.0947 12.0213 14.8854 12.4944L14.8854 12.4944L14.882 12.5022C14.5991 13.1722 14.096 13.7256 13.456 14.0709Z" fill="#3290FF" stroke="#F5DEA6"/>
<path d="M133.02 29.1653H130.519C130.519 28.4965 130.519 27.8313 130.519 27.1691C130.52 23.8823 130.521 20.6691 130.508 17.4667C130.519 17.2014 130.592 16.9423 130.72 16.7098L130.728 16.6961L130.735 16.6819C131.15 15.8045 135.742 5.73555 136.79 3.4246H139.359H139.908L139.857 2.87864C139.848 2.78102 139.84 2.71459 139.834 2.66315C139.826 2.59212 139.821 2.54965 139.821 2.49304V1.99304H139.321H133.023H132.444L132.528 2.56579C132.535 2.61109 132.541 2.6526 132.547 2.6925C132.566 2.81904 132.582 2.92933 132.605 3.09252L132.665 3.52357H133.1H135.107C134.111 5.88565 131.229 12.1625 130.115 14.3411L130.114 14.3425C129.938 14.6906 129.773 15.0426 129.613 15.3855C128.219 12.5805 124.599 5.37958 123.539 3.49382C123.717 3.48984 123.9 3.49379 124.094 3.49798L124.128 3.49871C124.54 3.50754 125.008 3.5157 125.49 3.40328L125.984 3.28785L125.861 2.79505L125.743 2.32224L125.648 1.94355H125.258H125.237H125.217H125.196H125.176H125.155H125.135H125.114H125.094H125.073H125.053H125.033H125.012H124.992H124.971H124.951H124.93H124.91H124.889H124.869H124.848H124.828H124.807H124.787H124.766H124.746H124.726H124.705H124.685H124.664H124.644H124.623H124.603H124.582H124.562H124.541H124.521H124.501H124.48H124.46H124.439H124.419H124.398H124.378H124.357H124.337H124.316H124.296H124.275H124.255H124.235H124.214H124.194H124.173H124.153H124.132H124.112H124.091H124.071H124.051H124.03H124.01H123.989H123.969H123.948H123.928H123.907H123.887H123.866H123.846H123.826H123.805H123.785H123.764H123.744H123.723H123.703H123.682H123.662H123.642H123.621H123.601H123.58H123.56H123.539H123.519H123.498H123.478H123.458H123.437H123.417H123.396H123.376H123.355H123.335H123.315H123.294H123.274H123.253H123.233H123.212H123.192H123.171H123.151H123.131H123.11H123.09H123.069H123.049H123.028H123.008H122.988H122.967H122.947H122.926H122.906H122.885H122.865H122.845H122.824H122.804H122.783H122.763H122.742H122.722H122.702H122.681H122.661H122.64H122.62H122.599H122.579H122.559H122.538H122.518H122.497H122.477H122.456H122.436H122.416H122.395H122.375H122.354H122.334H122.313H122.293H122.273H122.252H122.232H122.211H122.191H122.17H122.15H122.13H122.109H122.089H122.068H122.048H122.028H122.007H121.987H121.966H121.946H121.925H121.905H121.885H121.864H121.844H121.823H121.803H121.783H121.762H121.742H121.721H121.701H121.68H121.66H121.64H121.619H121.599H121.578H121.558H121.538H121.517H121.497H121.476H121.456H121.435H121.415H121.395H121.374H121.354H121.333H121.313H121.293H121.272H121.252H121.231H121.211H121.191H121.17H121.15H121.129H121.109H121.089H121.068H121.048H121.027H121.007H120.986H120.966H120.946H120.925H120.905H120.884H120.864H120.844H120.823H120.803H120.782H120.762H120.742H120.721H120.701H120.68H120.66H120.64H120.619H120.599H120.578H120.558H120.538H120.517H120.497H120.476H120.456H120.436H120.415H120.395H120.374H120.354H120.334H120.313H120.293H120.272H120.252H120.232H120.211H120.191H120.17H120.15H120.13H120.109H120.089H120.068H120.048H120.028H120.007H119.987H119.966H119.946H119.926H119.905H119.885H119.865H119.844H119.824H119.803H119.783H119.763H119.742H119.722H119.701H119.681H119.661H119.64H119.62H119.599H119.579H119.559H119.538H119.518H119.497H119.477H119.457H119.436H119.416H119.396H119.375H119.355H119.334H119.314H119.294H119.273H119.253H119.232H119.212H119.192H119.171H119.151H119.131H119.11H119.09H119.069H119.049H119.029H119.008H118.988H118.967H118.947H118.927H118.906H118.886H118.866H118.845H118.825H118.804H118.784H118.764H118.743H118.723H118.702H118.682H118.662H118.641H118.621H118.601H118.58H118.56H118.539H118.519H118.499H118.478H118.458H118.438H118.417H118.397H118.376H118.356H118.336H118.315H118.295H118.274H118.254H118.234H118.213H118.193H118.173H118.152H118.132H118.111H118.091H118.071H118.05H118.03H118.01H117.989H117.969H117.948H117.928H117.908H117.887H117.867H117.847H117.826H117.806H117.785H117.765H117.745H117.724H117.704H117.684H117.663H117.643H117.622H117.602H117.582H117.561H117.541H117.521H117.5H117.48H117.459H117.439H117.419H117.398H117.378H117.358H117.337H117.317H117.297H117.276H117.256H117.235H117.215H117.195H117.174H117.154H117.134H117.113H117.093H117.072H117.052H117.032H117.011H116.991H116.971H116.95H116.93H116.909H116.889H116.869H116.848H116.828H116.808H116.787H116.767H116.747H116.726H116.706H116.685H116.665H116.645H116.624H116.604H116.584H116.563H116.543H116.523H116.502H116.482H116.461H116.441H116.421H116.4H116.38H116.36H116.339H116.319H116.298H116.278H116.258H116.237H116.217H116.197H116.176H116.156H116.136H116.115H116.095H116.074H116.054H116.034H116.013H115.993H115.973H115.952H115.932H115.912H115.891H115.871H115.85H115.83H115.81H115.789H115.769H115.749H115.728H115.708H115.688H115.667H115.647H115.627H115.606H115.586H115.565H115.545H115.525H115.504H115.484H115.464H115.443H115.423H115.403H115.382H115.362H115.341H115.321H115.301H115.28H115.26H115.24H115.219H115.199H115.179H115.158H115.138H115.117H115.097H115.077H115.056H115.036H115.016H114.995H114.975H114.955H114.934H114.914H114.894H114.873H114.853H114.832H114.812C114.652 1.94355 114.535 2.01128 114.476 2.05369C114.415 2.09643 114.371 2.14394 114.348 2.16916C114.331 2.18718 114.309 2.2128 114.296 2.22738C114.293 2.23156 114.29 2.23484 114.288 2.23676C114.282 2.24461 114.277 2.24997 114.273 2.25397C114.27 2.2576 114.268 2.25907 114.268 2.25907L114.045 2.46635L114.127 2.75938C114.149 2.83797 114.176 2.92333 114.204 3.0112C114.22 3.06156 114.236 3.11275 114.251 3.16397L114.359 3.51806H114.73H116.956C117.882 5.4713 122.757 15.415 124.251 18.3627L124.256 18.3715L124.26 18.3801C124.473 18.7619 124.587 19.1911 124.59 19.6283C124.561 22.187 124.572 27.5732 124.576 29.1442C124.46 29.1537 124.341 29.157 124.215 29.1566C124.08 29.1561 123.944 29.1515 123.799 29.1465L123.796 29.1464C123.653 29.1415 123.5 29.1364 123.345 29.1361C122.715 29.135 122.004 29.2145 121.294 29.7461L120.092 30.6463H121.594H133.02H133.52V30.1463V29.6653V29.1653H133.02Z" fill="#3290FF" stroke="#F5DEA6"/>
<path d="M117.72 29.1093C117.999 29.1429 118.277 29.1321 118.587 29.1201C118.697 29.1158 118.811 29.1114 118.931 29.1087C119.461 29.0969 120.08 29.1268 120.662 29.5328L120.952 29.7355L120.858 30.0767C120.852 30.0954 120.848 30.1115 120.844 30.1268C120.844 30.1294 120.843 30.1326 120.842 30.1362C120.839 30.1486 120.835 30.1659 120.831 30.1793C120.827 30.1971 120.817 30.2329 120.801 30.2726L117.72 29.1093ZM117.72 29.1093C114.244 19.805 110.768 10.4935 107.293 1.17478L107.171 0.849518H106.824H105.845H105.488L105.373 1.18738C105.252 1.53783 104.303 4.22992 103.035 7.82691C100.38 15.3556 96.3272 26.8487 95.5538 29.1316C95.4936 29.1306 95.4334 29.1295 95.3732 29.1284C95.007 29.1217 94.6422 29.115 94.3024 29.136C94.2257 29.1407 94.1405 29.1345 94.0081 29.1247L93.9878 29.1232C93.8605 29.1139 93.6864 29.1016 93.5094 29.1213C93.3241 29.1419 93.1146 29.199 92.9185 29.3417C92.7221 29.4846 92.5764 29.6861 92.4727 29.9345L92.1837 30.6271H92.9341H99.2098H99.7098V30.1271V29.6158V29.1158H99.2098H97.134C98.0726 26.4785 98.9884 23.8957 99.9018 21.3191C100.092 20.7822 100.282 20.2455 100.473 19.7087H107.908C108.012 19.9909 108.171 20.4117 108.363 20.9225C108.742 21.9297 109.254 23.287 109.742 24.6221C110.186 25.8373 110.615 27.0427 110.919 27.9784C111.071 28.4473 111.19 28.8405 111.263 29.1302C111.263 29.1315 111.264 29.1329 111.264 29.1342C111.051 29.1398 110.833 29.1346 110.602 29.1292C110.555 29.1281 110.508 29.1269 110.46 29.1259C110.002 29.1159 109.494 29.1133 108.972 29.2329L108.445 29.3536L108.606 29.8697L108.749 30.326L108.859 30.6766H109.227H120.222C120.345 30.6766 120.438 30.6342 120.483 30.6106C120.534 30.5841 120.573 30.5545 120.598 30.534C120.648 30.4931 120.685 30.4513 120.703 30.4316L117.72 29.1093ZM111.341 29.5217C111.341 29.5265 111.341 29.5256 111.341 29.52L111.341 29.5217ZM107.26 18.1012H101.07C101.49 16.5754 102.002 15.0765 102.605 13.6128L102.605 13.6128L102.607 13.6073C102.908 12.8525 103.157 12.079 103.404 11.3134C103.445 11.1841 103.487 11.0549 103.529 10.9261C103.692 10.4224 103.859 9.92086 104.045 9.42066C105.133 12.3525 106.193 15.2163 107.26 18.1012Z" fill="#3290FF" stroke="#F5DEA6"/>
</svg>
