<svg width="51" height="66" viewBox="0 0 51 66" fill="none" xmlns="http://www.w3.org/2000/svg">
<rect x="1.37057" y="0.756866" width="48.4694" height="64.2971" rx="12.5" fill="#3290FF" stroke="#F5DEA6"/>
<path d="M44.592 17.8799L44.4677 18.1977H44.1264H32.3656H31.8656V17.6977V14.7568H20.7488V19.6974H21.4305H21.4637H21.4969H21.5301H21.5633H21.5965H21.6297H21.6629H21.696H21.7292H21.7624H21.7956H21.8288H21.862H21.8952H21.9284H21.9616H21.9948H22.028H22.0612H22.0944H22.1276H22.1608H22.194H22.2272H22.2604H22.2936H22.3268H22.36H22.3932H22.4264H22.4596H22.4928H22.526H22.5592H22.5924H22.6256H22.6588H22.692H22.7252H22.7584H22.7916H22.8248H22.858H22.8912H22.9244H22.9576H22.9908H23.024H23.0572H23.0904H23.1236H23.1568H23.19H23.2232H23.2564H23.2896H23.3228H23.356H23.3892H23.4224H23.4556H23.4888H23.522H23.5552H23.5884H23.6216H23.6548H23.688H23.7212H23.7544H23.7876H23.8208H23.854H23.8871H23.9203H23.9535H23.9867H24.0199H24.0531H24.0863H24.1195H24.1527H24.1859H24.2191H24.2523H24.2855H24.3187H24.3519H24.3851H24.4183H24.4515H24.4847H24.5179H24.5511H24.5843H24.6175H24.6507H24.6839H24.7171H24.7503H24.7835H24.8167H24.8499H24.8831H24.9163H24.9495H24.9827H25.0159H25.0491H25.0823H25.1155H25.1487H25.1819H25.2151H25.2483H25.2815H25.3147H25.3479H25.3811H25.4143H25.4475H25.4807H25.5139H25.5471H25.5803H25.6135H25.6467H25.6799H25.7131H25.7463H25.7795H25.8127H25.8459H25.8791H25.9123H25.9455H25.9787H26.0119H26.0451H26.0782H26.1114H26.1446H26.1778H26.211H26.2442H26.2774H26.3106H26.3438H26.377H26.4102H26.4434H26.4766H26.5098H26.543H26.5762H26.6094H26.6426H26.6758H26.709H26.7422H26.7754H26.8086H26.8418H26.875H26.9082H26.9414H26.9746H27.0078H27.041H27.0742H27.1074H27.1406H27.1738H27.207H27.2402H27.2734H27.3066H27.3398H27.373H27.4062H27.4394H27.4726H27.5058H27.539H27.5722H27.6054H27.6386H27.6718H27.705H27.7382H27.7714H27.8046H27.8378H27.871H27.9042H27.9374H27.9706H28.0038H28.037H28.0702H28.1034H28.1366H28.1698H28.203H28.2362H28.2694H28.3025H28.3357H28.3689H28.4021H28.4353H28.4685H28.5017H28.5349H28.5681H28.6013H28.6345H28.6677H28.7009H28.7341H28.7673H28.8005H28.8337H28.8669H28.9001H28.9333H28.9665H28.9997H29.0329H29.0661H29.0993H29.1325H29.1657H29.1989H29.2321H29.2653H29.2985H29.3317H29.3649H29.3981H29.4313H29.4645H29.4977H29.5309H29.5641H29.5973H29.6305H29.6637H29.6969H29.7301H29.7633H29.7965H29.8297H29.8629H29.8961H29.9293H29.9625H29.9957H30.0289H30.0621H30.0953H30.1285H30.1617H30.1949H30.2281H30.2613H30.2945H30.3277H30.3609H30.3941H30.4272H30.4604H30.4936H30.5268H30.56H30.5932H30.6264H30.6596H30.6928H30.726H30.7592H30.7924H30.8256H30.8588H30.892H30.9252H30.9584H30.9916H31.0248H31.058H31.0912H31.1244H31.1576H31.1908H31.224H31.2572H31.2904H31.3236H31.3568H31.39H31.4232H31.4564H31.4896H31.5228H31.556H31.5892H31.6224H31.6556H31.6888H31.722H31.7552H31.7884H31.8216H31.8548H31.888H31.9212H31.9544H31.9876H32.0208H32.054H32.0872H32.1204H32.1536H32.1868H32.22H32.2532H32.2864H32.3196H32.3528H32.386H32.4192H32.4524H32.4856H32.5188H32.552H32.5852H32.6184H32.6515H32.6847H32.7179H32.7511H32.7843H32.8175H32.8507H32.8839H32.9171H32.9503H32.9835H33.0167H33.0499H33.0831H33.1163H33.1495H33.1827H33.2159H33.2491H33.2823H33.3155H33.3487H33.3819H33.4151H33.4483H33.4815H33.5147H33.5479H33.5811H33.6143H33.6475H33.6807H33.7139H33.7471H33.7803H33.8135H33.8467H33.8799H33.9131H33.9463H33.9795H34.0127H34.0459H34.0791H34.1123H34.1455H34.1787H34.2119H34.2451H34.2783H34.3115H34.3447H34.3779H34.4111H34.4443H34.4775H34.5107H34.5439H34.5771H34.6103H34.6435H34.6767H34.7099H34.7431H34.7763H34.8095H34.8426H34.8758H34.909H34.9422H34.9754H35.0086H35.0418H35.075H35.1082H35.1414H35.1746H35.2078H35.241H35.2742H35.3074H35.3406H35.3738H35.407H35.4402H35.4734H35.5066H35.5398H35.573H35.6062H35.6394H35.6726H35.7058H35.739H35.7722H35.8054H35.8386H35.8718H35.905H35.9382H35.9714H36.0046H36.0378H36.071H36.1042H36.1374H36.1706H36.2038H36.237H36.2702H36.3034H36.3366H36.3698H36.403H36.4362H36.4694H36.5026H36.5358H36.569H36.6022H36.6354H36.6686H36.7018H36.735H36.7682H36.8014H36.8346H36.8678H36.901H36.9342H36.9674H37.0006H37.0337H37.0669H37.1001H37.1333H37.1665H37.1997H37.2329H37.2661H37.2993H37.3325H37.3657H37.3989H37.4321H37.4653H37.4985H37.5317H37.5649H37.5981H37.6313H37.6645H37.6977H37.7309H37.7641H37.7973H37.8305H37.8637H37.8969H37.9301H37.9633H37.9965H38.0297H38.0629H38.0961H38.1293H38.1625H38.1957H38.2289H38.2621H38.2953H38.3285H38.3617H38.3949H38.4281C39.0779 19.6974 39.7303 19.718 40.3792 19.7612M44.592 17.8799L12.7876 4.23199C11.2883 4.29961 10.06 4.74463 9.18069 5.60878C8.30277 6.47157 7.83401 7.69199 7.7325 9.18983C7.69463 9.61447 7.69464 10.0355 7.69464 10.4313L7.69464 10.4434V10.4853V10.5272V10.5691V10.611V10.6529V10.6948V10.7367V10.7786V10.8205V10.8625V10.9044V10.9463V10.9882V11.0301V11.072V11.1139V11.1558V11.1977V11.2396V11.2815V11.3234V11.3653V11.4072V11.4491V11.491V11.5329V11.5748V11.6167V11.6586V11.7005V11.7425V11.7844V11.8263V11.8682V11.9101V11.952V11.9939V12.0358V12.0777V12.1196V12.1615V12.2034V12.2453V12.2872V12.3291V12.371V12.4129V12.4548V12.4967V12.5386V12.5805V12.6224V12.6644V12.7063V12.7482V12.7901V12.832V12.8739V12.9158V12.9577V12.9996V13.0415V13.0834V13.1253V13.1672V13.2091V13.251V13.2929V13.3348V13.3767V13.4186V13.4605V13.5024V13.5444V13.5863V13.6282V13.6701V13.712V13.7539V13.7958V13.8377V13.8796V13.9215V13.9634V14.0053V14.0472V14.0891V14.131V14.1729V14.2148V14.2567V14.2986V14.3405V14.3824V14.4244V14.4663V14.5082V14.5501V14.592V14.6339V14.6758V14.7177V14.7596V14.8015V14.8434V14.8853V14.9272V14.9691V15.011V15.0529V15.0948V15.1367V15.1786V15.2205V15.2624V15.3044V15.3463V15.3882V15.4301V15.472V15.5139V15.5558V15.5977V15.6396V15.6815V15.7234V15.7653V15.8072V15.8491V15.891V15.9329V15.9748V16.0167V16.0586V16.1005V16.1424V16.1843V16.2263V16.2682V16.3101V16.352V16.3939V16.4358V16.4777V16.5196V16.5615V16.6034V16.6453V16.6872V16.7291V16.771V16.8129V16.8548V16.8967V16.9386V16.9805V17.0224V17.0643V17.1063V17.1482V17.1901V17.232V17.2739V17.3158V17.3577V17.3996V17.4415V17.4834V17.5253V17.5672V17.6091V17.651V17.6929V17.7348V17.7767V17.8186V17.8605V17.9024V17.9443V17.9863V18.0282V18.0701V18.112V18.1539V18.1958V18.2377V18.2796V18.3215V18.3634V18.4053V18.4472V18.4891V18.531V18.5729V18.6148V18.6567V18.6986V18.7405V18.7824V18.8243V18.8663V18.9082V18.9501V18.992V19.0339V19.0758V19.1177V19.1596V19.2015V19.2434V19.2853V19.3272V19.3691V19.411V19.4529V19.4948V19.5367V19.5786V19.6205V19.6624V19.7043V19.7462V19.7882V19.8301V19.872V19.9139V19.9558V19.9977V20.0396V20.0815V20.1234V20.1653V20.2072V20.2491V20.291V20.3329V20.3748V20.4167V20.4586V20.5005V20.5424V20.5843V20.6262V20.6682V20.7101V20.752V20.7939V20.8358V20.8777V20.9196V20.9615V21.0034V21.0453V21.0872V21.1291V21.171V21.2129V21.2548V21.2967V21.3386V21.3805V21.4224V21.4643V21.5062V21.5482V21.5901V21.632V21.6739V21.7158V21.7577V21.7996V21.8415V21.8834V21.9253V21.9672V22.0091V22.051V22.0929V22.1348V22.1767V22.2186V22.2605V22.3024V22.3443V22.3862V22.4281V22.4701V22.512V22.5539V22.5958V22.6377V22.6796V22.7215V22.7634V22.8053V22.8472V22.8891V22.931V22.9729V23.0148V23.0567V23.0986V23.1405V23.1824V23.2243V23.2662V23.3081V23.3501V23.392V23.4339V23.4758V23.5177V23.5596V23.6015V23.6434V23.6853V23.7272V23.7691V23.811V23.8529V23.8948V23.9367V23.9786V24.0205V24.0624V24.1043V24.1462V24.1881V24.2301V24.272V24.3139V24.3558V24.3977V24.4396V24.4815V24.5234V24.5653V24.6072V24.6491V24.691V24.7329V24.7748V24.8167V24.8586V24.9005V24.9424V24.9843V25.0262V25.0681V25.1101V25.152V25.1939V25.2358V25.2777V25.3196V25.3615V25.4034V25.4453V25.4872V25.5291V25.571V25.6129V25.6548V25.6967V25.7386V25.7805V25.8224V25.8643V25.9062V25.9481V25.99V26.032V26.0739V26.1158V26.1577V26.1996V26.2415V26.2834V26.3253V26.3672V26.4091V26.451V26.4929V26.5348V26.5767V26.6186V26.6605V26.7024V26.7443V26.7862V26.8281V26.87V26.912V26.9539V26.9958V27.0377V27.0796V27.1215V27.1634V27.2053V27.2472V27.2891V27.331V27.3729V27.4148V27.4567V27.4986V27.5405V27.5824V27.6243V27.6662V27.7081V27.75V27.792V27.8339V27.8758V27.9177V27.9596V28.0015V28.0434V28.0853V28.1272V28.1691V28.211V28.2529V28.2948V28.3367V28.3786V28.4205V28.4624V28.5043V28.5462V28.5881V28.63V28.6719V28.7139V28.7558V28.7977V28.8396V28.8815V28.9234V28.9653V29.0072V29.0491V29.091V29.1329V29.1748V29.2167V29.2586V29.3005V29.3424V29.3843V29.4262V29.4681V29.51V29.5519V29.5939V29.6358V29.6777V29.7196V29.7615V29.8034V29.8453V29.8872V29.9291V29.971V30.0129V30.0548V30.0967V30.1386V30.1805V30.2224V30.2643V30.3062V30.3481V30.39V30.4319V30.4739V30.5158V30.5577V30.5996V30.6415V30.6834V30.7253V30.7672V30.8091V30.851V30.8929V30.9348V30.9767V31.0186V31.0605V31.1024V31.1443V31.1862V31.2281V31.27V31.3119V31.3538V31.3958V31.4377V31.4796V31.5215V31.5634V31.6053V31.6472V31.6891V31.731V31.7729V31.8148V31.8567L7.69464 31.8986L7.69464 31.899C7.69516 32.6412 7.69226 33.3853 7.68936 34.1307C7.68108 36.254 7.67277 38.3876 7.74343 40.5155L7.74343 40.5156C7.79522 42.0654 8.2897 43.3588 9.21561 44.2674C10.1422 45.1766 11.4449 45.6456 13.0058 45.6543L13.0066 45.6543C21.9816 45.6907 30.9539 45.6907 39.9236 45.6543H39.9237C41.3922 45.6478 42.6391 45.2014 43.5362 44.3419C44.4336 43.482 44.9303 42.257 44.9901 40.7905C45.0807 38.5706 45.0753 36.3452 45.07 34.1337C45.0688 33.6139 45.0675 33.0948 45.0675 32.5767V32.576C45.0669 32.1119 45.0671 31.6472 45.0673 31.182C45.0685 28.8779 45.0697 26.562 44.9597 24.2542L44.9596 24.2537C44.8958 22.9385 44.4325 21.8454 43.6164 21.0608C42.8036 20.2793 41.684 19.8451 40.3792 19.7612M44.592 17.8799C44.6553 17.718 44.6992 17.5493 44.7229 17.3771L44.7273 17.3451M44.592 17.8799L44.7273 17.3451M40.3792 19.7612C40.3793 19.7613 40.3795 19.7613 40.3797 19.7613L40.3464 20.2602M40.3792 19.7612C40.3789 19.7612 40.3787 19.7612 40.3784 19.7612L40.3464 20.2602M40.3464 20.2602C42.7746 20.416 44.3429 21.8612 44.4602 24.278L20.7488 20.1974H21.4305H38.4281C39.0675 20.1974 39.709 20.2177 40.3464 20.2602ZM44.7273 17.3451L44.7275 17.3128M44.7273 17.3451L44.7275 17.3128M44.7275 17.3128C44.7312 16.8229 44.7355 16.3325 44.7399 15.8417C44.7574 13.8713 44.7749 11.8941 44.7457 9.91786C44.7184 8.04495 44.2732 6.58547 43.2642 5.60246C42.2564 4.6206 40.7814 4.20718 38.9077 4.20718H15.7444C15.5173 4.20718 15.2881 4.20605 15.0575 4.20491M44.7275 17.3128L15.0575 4.20491M15.0575 4.20491C14.3096 4.2012 13.5463 4.19743 12.7878 4.23198L15.0575 4.20491ZM20.7265 35.1715V30.1559H32.1185V35.1715H20.7265Z" fill="#03001B" stroke="#F5DEA6"/>
<path d="M31.1778 47.7876C31.9448 47.733 32.392 47.99 32.4952 48.7996C32.5352 49.18 32.6088 49.5555 32.7149 49.9218C32.8036 49.538 32.8946 49.1497 32.9944 48.7656M31.1778 47.7876L25.6707 50.4668C25.7166 50.6912 25.7626 50.9154 25.8087 51.1395M31.1778 47.7876C31.0561 47.7965 30.9315 47.7976 30.8078 47.7987C30.2015 47.8039 29.6171 47.8089 29.5045 48.7369M31.1778 47.7876L29.5045 48.7369M32.9944 48.7656C33.0363 49.1528 33.116 49.5344 33.232 49.9051C33.3251 49.5037 33.4204 49.1034 33.5272 48.7065C33.766 47.82 34.4965 47.5346 35.7531 47.8058C36.5199 47.9821 36.4114 48.4748 36.3051 48.9575C36.2894 49.0289 36.2737 49.1001 36.261 49.1701M32.9944 48.7656C32.9938 48.7595 32.9931 48.7535 32.9925 48.7474L32.9926 48.7474L32.9912 48.7364C32.9294 48.252 32.7505 47.832 32.3774 47.5636C32.0181 47.3052 31.574 47.2581 31.1423 47.2889L31.1413 47.2889C31.0352 47.2967 30.9373 47.2975 30.8243 47.2984C30.7623 47.2989 30.6958 47.2994 30.6208 47.3011C30.4332 47.3055 30.2043 47.3182 29.9823 47.3831C29.7486 47.4514 29.5127 47.5803 29.3279 47.817C29.1679 48.0221 29.0718 48.2755 29.0237 48.5674C28.7905 47.952 28.3753 47.4954 27.8174 47.2827C27.1649 47.034 26.434 47.1637 25.7746 47.5875C25.7328 47.5714 25.6909 47.5547 25.6474 47.5373C25.5875 47.5134 25.5245 47.4883 25.4537 47.4616C25.2682 47.3915 25.0322 47.3126 24.7709 47.3119C23.7817 47.2994 22.7608 47.2988 21.7429 47.2981C20.8213 47.2976 19.9024 47.297 19.0119 47.2876M32.9944 48.7656C33.0108 48.7025 33.0275 48.6395 33.0444 48.5766L33.0444 48.5765C33.1976 48.0078 33.5333 47.5742 34.0723 47.358C34.5768 47.1556 35.1897 47.1727 35.8586 47.3171L35.8652 47.3185L35.8652 47.3186C36.1405 47.3819 36.3843 47.4907 36.5683 47.6716C36.7608 47.8608 36.8455 48.0871 36.8708 48.3017C36.8946 48.5026 36.867 48.6974 36.8386 48.8487C36.8247 48.9232 36.8083 48.9974 36.794 49.0626L36.792 49.0715C36.7766 49.1416 36.7634 49.202 36.7529 49.2594M36.261 49.1701C36.0505 50.3281 35.8364 51.4851 35.6222 52.642C35.3154 54.2997 35.0086 55.9571 34.713 57.6165M36.261 49.1701L36.7529 49.2594M36.261 49.1701L36.7528 49.26C36.7528 49.2598 36.7529 49.2596 36.7529 49.2594M34.713 57.6165C34.5896 58.3128 34.3184 58.7379 33.5333 58.669C33.3682 58.6546 33.1948 58.6597 33.0221 58.6648C32.373 58.6839 31.7336 58.7028 31.5866 57.6813C31.5209 57.2239 31.4115 56.7745 31.2601 56.3394C31.182 56.7162 31.106 57.0844 31.0423 57.4558M34.713 57.6165L35.2053 57.7038C35.2053 57.7039 35.2053 57.7041 35.2052 57.7042M34.713 57.6165L35.2052 57.7042M31.0423 57.4558C30.9725 57.0878 30.872 56.7265 30.7419 56.3757C30.6498 56.8219 30.5606 57.2683 30.4939 57.7177M31.0423 57.4558C31.0609 57.5542 31.0774 57.6531 31.0917 57.7524L31.0917 57.7525C31.147 58.1368 31.2694 58.4582 31.4833 58.7016C31.7024 58.951 31.9741 59.0695 32.2326 59.1237C32.4785 59.1753 32.7327 59.1726 32.9368 59.1674C32.9741 59.1664 33.0099 59.1654 33.0443 59.1644C33.217 59.1594 33.3562 59.1554 33.4896 59.1671C33.9809 59.2102 34.4112 59.1026 34.728 58.78C35.0186 58.4841 35.1389 58.0782 35.2052 57.7042M31.0423 57.4558C31.0232 57.5668 31.0053 57.678 30.9887 57.7899M30.4939 57.7177C30.3745 58.5516 29.8605 58.7136 29.128 58.6792M30.4939 57.7177L30.9889 57.7886C30.9888 57.789 30.9887 57.7895 30.9887 57.7899M30.4939 57.7177L30.9885 57.7911C30.9886 57.7907 30.9886 57.7903 30.9887 57.7899M29.128 58.6792C29.0797 58.6771 29.0317 58.6753 28.9842 58.6736C28.348 58.6507 27.8007 58.631 27.6387 57.742C27.2861 55.8258 26.8923 53.9172 26.4985 52.009C26.3937 51.5014 26.289 50.9938 26.185 50.4862C26.1312 50.7154 26.0267 50.9263 25.8503 51.1004C25.8367 51.1139 25.8228 51.1269 25.8087 51.1395M29.128 58.6792L29.1062 59.1787C29.1059 59.1787 29.1056 59.1787 29.1053 59.1786C29.0658 59.1769 29.0236 59.1754 28.9797 59.1738C28.8519 59.1692 28.7099 59.1641 28.5802 59.1522C28.3992 59.1355 28.1932 59.1024 27.9934 59.0182C27.785 58.9304 27.5928 58.7909 27.4406 58.5786C27.2925 58.372 27.1995 58.1207 27.1469 57.8317C26.7953 55.9215 26.4031 54.021 26.0098 52.1148C25.9427 51.7899 25.8756 51.4648 25.8087 51.1395M29.128 58.6792L24.5895 51.4936M25.8087 51.1395C25.4799 51.4343 25.03 51.5065 24.5895 51.4936M24.5895 51.4936C23.827 51.4733 23.071 51.4785 22.2594 51.4841C22.0337 51.4857 21.8037 51.4873 21.568 51.4884C21.5691 51.5007 21.5701 51.5131 21.5711 51.5254C21.6988 51.526 21.8246 51.5269 21.949 51.5277C22.4699 51.5313 22.9655 51.5347 23.4658 51.5241C23.9341 51.5142 24.3612 51.6335 24.6439 51.9876C24.9033 52.3125 24.9539 52.7342 24.9517 53.1078C24.9497 53.447 24.9276 53.8898 24.7015 54.2378C24.4334 54.6503 23.9815 54.8012 23.4437 54.7743C22.9508 54.7549 22.4663 54.761 21.9416 54.7676C21.8003 54.7694 21.656 54.7712 21.508 54.7725C21.507 54.7817 21.506 54.7909 21.5051 54.8C21.6202 54.8015 21.7351 54.8031 21.8499 54.8047C22.7877 54.8177 23.7176 54.8307 24.6507 54.8132L24.6515 54.8132C25.0532 54.8063 25.4661 54.8739 25.7792 55.1591C26.0937 55.4457 26.2022 55.8556 26.2276 56.279L26.2277 56.2804C26.2605 56.8519 26.2873 57.325 26.2661 57.6919C26.2451 58.0534 26.1742 58.4263 25.9114 58.7091C25.6476 58.993 25.2804 59.0896 24.9195 59.1339C24.5537 59.1787 24.0789 59.1807 23.5031 59.1812H23.5027C23.0116 59.1812 22.5244 59.1776 22.0394 59.1739C21.0781 59.1668 20.1254 59.1596 19.1684 59.181C18.7453 59.1922 18.3054 59.1286 17.9723 58.847C17.6223 58.551 17.5048 58.1154 17.5048 57.6509V57.6335V57.6162V57.5988V57.5814V57.564V57.5466V57.5292V57.5118V57.4944V57.477V57.4596V57.4422V57.4248V57.4074V57.39V57.3726V57.3552V57.3378V57.3204V57.3031V57.2857V57.2683V57.2509V57.2335V57.2161V57.1987V57.1813V57.1639V57.1465V57.1291V57.1117V57.0943V57.0769V57.0595V57.0421V57.0247V57.0073V56.99V56.9726V56.9552V56.9378V56.9204V56.903V56.8856V56.8682V56.8508V56.8334V56.816V56.7986V56.7812V56.7638V56.7464V56.729V56.7116V56.6943V56.6769V56.6595V56.6421V56.6247V56.6073V56.5899V56.5725V56.5551V56.5377V56.5203V56.5029V56.4855V56.4681V56.4507V56.4333V56.4159V56.3985V56.3812V56.3638V56.3464V56.329V56.3116V56.2942V56.2768V56.2594V56.242V56.2246V56.2072V56.1898V56.1724V56.155V56.1376V56.1202V56.1028V56.0854V56.0681V56.0507V56.0333V56.0159V55.9985V55.9811V55.9637V55.9463V55.9289V55.9115V55.8941V55.8767V55.8593V55.8419V55.8245V55.8071V55.7897V55.7723V55.755V55.7376V55.7202V55.7028V55.6854V55.668V55.6506V55.6332V55.6158V55.5984V55.581V55.5636V55.5462V55.5288V55.5114V55.494V55.4766V55.4592V55.4419V55.4245V55.4071V55.3897V55.3723V55.3549V55.3375V55.3201V55.3027V55.2853V55.2679V55.2505V55.2331V55.2157V55.1983V55.1809V55.1635V55.1461V55.1288V55.1114V55.094V55.0766V55.0592V55.0418V55.0244V55.007V54.9896V54.9722V54.9548V54.9374V54.92V54.9026V54.8852V54.8678V54.8504V54.833V54.8157V54.7983V54.7809V54.7635V54.7461V54.7287V54.7113V54.6939V54.6765V54.6591V54.6417V54.6243V54.6069V54.5895V54.5721V54.5547V54.5373V54.52V54.5026V54.4852V54.4678V54.4504V54.433V54.4156V54.3982V54.3808V54.3634V54.346V54.3286V54.3112V54.2938V54.2764V54.259V54.2416V54.2242V54.2069V54.1895V54.1721V54.1547V54.1373V54.1199V54.1025V54.0851V54.0677V54.0503V54.0329V54.0155V53.9981V53.9807V53.9633V53.9459V53.9285V53.9111V53.8938V53.8764V53.859V53.8416V53.8242V53.8068V53.7894V53.772V53.7546V53.7372V53.7198V53.7024V53.685V53.6676V53.6502V53.6328V53.6154V53.598V53.5807V53.5633V53.5459V53.5285V53.5111V53.4937V53.4763V53.4589V53.4415V53.4241V53.4067V53.3893V53.3719V53.3545V53.3371V53.3197V53.3023V53.2849V53.2676V53.2502V53.2328V53.2154V53.198V53.1806V53.1632V53.1458V53.1284V53.111V53.0936V53.0762V53.0588V53.0414V53.024V53.0066V52.9892V52.9718V52.9545V52.9371V52.9197V52.9023V52.8849V52.8675V52.8501V52.8327V52.8153V52.7979V52.7805V52.7631V52.7457V52.7283V52.7109V52.6935V52.6761V52.6587V52.6414V52.624V52.6066V52.5892V52.5718V52.5544V52.537V52.5196V52.5022V52.4848V52.4674V52.45V52.4326V52.4152V52.3978V52.3804V52.363V52.3457V52.3283V52.3109V52.2935V52.2761V52.2587V52.2413V52.2239V52.2065V52.1891V52.1717V52.1543V52.1369V52.1195V52.1021V52.0847V52.0673V52.0499V52.0326V52.0152V51.9978V51.9804V51.963V51.9456V51.9282V51.9108V51.8934V51.876V51.8586V51.8412V51.8238V51.8064V51.789V51.7716V51.7542V51.7368V51.7195V51.7021V51.6847V51.6673V51.6499V51.6325V51.6151V51.5977V51.5803V51.5629V51.5455V51.5281V51.5107V51.4933V51.4759V51.4585V51.4411V51.4237V51.4064V51.389V51.3716V51.3542V51.3368V51.3194V51.302V51.2846V51.2672V51.2498V51.2324V51.215V51.1976V51.1802V51.1628V51.1454V51.128V51.1106V51.0933V51.0759V51.0585V51.0411V51.0237V51.0063V50.9889V50.9715V50.9541V50.9367V50.9193V50.9019V50.8845V50.8671V50.8497V50.8323V50.8149V50.7975V50.7802V50.7628V50.7454V50.728V50.7106V50.6932V50.6758V50.6584V50.641V50.6236V50.6062V50.5888V50.5714V50.554V50.5366V50.5192V50.5018V50.4844V50.4671V50.4497V50.4323V50.4149V50.3975V50.3801V50.3627V50.3453V50.3279V50.3105V50.2931V50.2757V50.2583V50.2409V50.2235V50.2061V50.1887V50.1714V50.154V50.1366V50.1192V50.1018V50.0844V50.067V50.0496V50.0322V50.0148V49.9974V49.98V49.9626V49.9452V49.9278V49.9104V49.893V49.8756V49.8583V49.8409V49.8235V49.8061V49.7887V49.7713V49.7539V49.7365V49.7191V49.7017V49.6843V49.6669V49.6495V49.6321V49.6147V49.5973V49.5799V49.5625V49.5452V49.5278V49.5104V49.493V49.4756V49.4582V49.4408V49.4234V49.406V49.3886V49.3712V49.3538V49.3364V49.319V49.3016V49.2842V49.2668V49.2494V49.2321V49.2147V49.1973V49.1799V49.1625V49.1451V49.1277V49.1103V49.0929V49.0755V49.0581V49.0407V49.0233V49.0059V48.9885V48.9711V48.9537V48.9363V48.919V48.9016V48.8842V48.8668V48.8494V48.832V48.8146V48.7972V48.7798V48.7624V48.745C17.5048 48.3403 17.6014 47.9391 17.9055 47.6503C18.2053 47.3655 18.6097 47.2829 19.0119 47.2876M24.5895 51.4936L30.9887 57.7899M19.0119 47.2876C19.012 47.2876 19.0122 47.2876 19.0123 47.2876L19.0063 47.7876L19.0116 47.2876C19.0117 47.2876 19.0118 47.2876 19.0119 47.2876ZM36.7529 49.2594C36.5418 50.4214 36.3274 51.5795 36.1132 52.7364C35.8068 54.392 35.5007 56.0453 35.2052 57.7042M29.5045 48.7369L29.0649 48.6836C29.1182 48.8441 29.1596 49.0144 29.1886 49.1932L29.1907 49.2059L29.1921 49.2187C29.2121 49.4012 29.2498 49.5809 29.3044 49.7552C29.3866 49.4158 29.4626 49.0763 29.5045 48.7369Z" fill="#03001B" stroke="#F5DEA6"/>
<path d="M11.7521 55.3752V55.374C11.9151 55.7543 12.0674 56.1392 12.2088 56.5283L12.2086 56.5284L12.213 56.5396L12.2171 56.5501C12.4537 57.1554 12.6448 57.6442 12.8359 58.0152C13.0307 58.3932 13.2547 58.7097 13.5894 58.9225C13.9235 59.1349 14.3049 59.2039 14.7282 59.2218C15.1309 59.2389 15.6339 59.2108 16.2517 59.1763L16.3226 59.1723L16.3256 59.1721C16.7362 59.1468 17.1415 59.0443 17.4351 58.7461C17.7336 58.443 17.8227 58.0344 17.8227 57.6165C17.8227 56.6426 17.8207 55.6673 17.8187 54.6914C17.8146 52.7383 17.8106 50.7829 17.8227 48.8311L17.8227 48.8302C17.8251 48.2951 17.6764 47.8406 17.2744 47.5602C16.9211 47.3138 16.4687 47.2806 16.0904 47.2775C15.6978 47.2743 15.2437 47.3155 14.8917 47.5765C14.5001 47.8667 14.3604 48.3246 14.3724 48.8525C14.382 49.3787 14.3824 49.9023 14.3802 50.4278C14.3384 50.329 14.2969 50.23 14.2557 50.1306L14.2551 50.1291L14.2439 50.1022C13.9784 49.4665 13.7647 48.9545 13.5542 48.5646C13.3381 48.1642 13.0968 47.8356 12.7475 47.6123C12.3978 47.3887 11.999 47.3083 11.546 47.2819C11.1039 47.2562 10.5499 47.2799 9.8621 47.3094L9.85125 47.3099H9.85109H9.85069H9.85029H9.84989H9.84948H9.84908H9.84868H9.84828H9.84788H9.84748H9.84707H9.84667H9.84627H9.84587H9.84547H9.84507H9.84467H9.84427H9.84386H9.84346H9.84306H9.84266H9.84226H9.84186H9.84146H9.84106H9.84066H9.84026H9.83986H9.83945H9.83905H9.83865H9.83825H9.83785H9.83745H9.83705H9.83665H9.83625H9.83585H9.83545H9.83505H9.83465H9.83425H9.83385H9.83345H9.83305H9.83265H9.83225H9.83185H9.83145H9.83105H9.83065H9.83025H9.82985H9.82945H9.82905H9.82865H9.82825H9.82785H9.82745H9.82705H9.82665H9.82625H9.82585H9.82546H9.82506H9.82466H9.82426H9.82386H9.82346H9.82306H9.82266H9.82226H9.82186H9.82146H9.82107H9.82067H9.82027H9.81987H9.81947H9.81907H9.81867H9.81827H9.81788H9.81748H9.81708H9.81668H9.81628H9.81588H9.81549H9.81509H9.81469H9.81429H9.81389H9.81349H9.8131H9.8127H9.8123H9.8119H9.8115H9.81111H9.81071H9.81031H9.80991H9.80951H9.80912H9.80872H9.80832H9.80792H9.80752H9.80713H9.80673H9.80633H9.80593H9.80554H9.80514H9.80474H9.80434H9.80395H9.80355H9.80315H9.80276H9.80236H9.80196H9.80156H9.80117H9.80077H9.80037H9.79998H9.79958H9.79918H9.79878H9.79839H9.79799H9.79759H9.7972H9.7968H9.7964H9.79601H9.79561H9.79521H9.79482H9.79442H9.79402H9.79363H9.79323H9.79283H9.79244H9.79204H9.79164H9.79125H9.79085H9.79046H9.79006H9.78966H9.78927H9.78887H9.78847H9.78808H9.78768H9.78729H9.78689H9.78649H9.7861H9.7857H9.78531H9.78491H9.78451H9.78412H9.78372H9.78333H9.78293H9.78254H9.78214H9.78174H9.78135H9.78095H9.78056H9.78016H9.77977H9.77937H9.77898H9.77858H9.77818H9.77779H9.77739H9.777H9.7766H9.77621H9.77581H9.77542H9.77502H9.77463H9.77423H9.77384H9.77344H9.77305H9.77265H9.77226H9.77186H9.77147H9.77107H9.77068H9.77028H9.76989H9.76949H9.7691H9.7687H9.76831H9.76791H9.76752H9.76712H9.76673H9.76634H9.76594H9.76555H9.76515H9.76476H9.76436H9.76397H9.76357H9.76318H9.76278H9.76239H9.762H9.7616H9.76121H9.76081H9.76042H9.76002H9.75963H9.75924H9.75884H9.75845H9.75805H9.75766H9.75727H9.75687H9.75648H9.75608H9.75569H9.7553H9.7549H9.75451H9.75411H9.75372H9.75333H9.75293H9.75254H9.75214H9.75175H9.75136H9.75096H9.75057H9.75018H9.74978H9.74939H9.74899H9.7486H9.74821H9.74781H9.74742H9.74703H9.74663H9.74624H9.74585H9.74545H9.74506H9.74467H9.74427H9.74388H9.74349H9.74309H9.7427H9.74231H9.74191H9.74152H9.74113H9.74073H9.74034H9.73995H9.73955H9.73916H9.73877H9.73837H9.73798H9.73759H9.73719H9.7368H9.73641H9.73602H9.73562H9.73523H9.73484H9.73444H9.73405H9.73366H9.73327H9.73287H9.73248H9.73209H9.73169H9.7313H9.73091H9.73052H9.73012H9.72973H9.72934H9.72894H9.72855H9.72816H9.72777H9.72737H9.72698H9.72659H9.7262H9.7258H9.72541H9.72502H9.72463H9.72423H9.72384H9.72345H9.72306H9.72266H9.72227H9.72188H9.72149H9.72109H9.7207H9.72031H9.71992H9.71952H9.71913H9.71874H9.71835H9.71796H9.71756H9.71717H9.71678H9.71639H9.71599H9.7156H9.71521H9.71482H9.71443H9.71403H9.71364H9.71325H9.71286H9.71247H9.71207H9.71168H9.71129H9.7109H9.7105H9.71011H9.70972H9.70933H9.70894H9.70854H9.70815H9.70776H9.70737H9.70698H9.70658H9.70619H9.7058H9.70541H9.70502H9.70463H9.70423H9.70384H9.70345H9.70306H9.70267H9.70227H9.70188H9.70149H9.7011H9.70071H9.70032H9.69992H9.69953H9.69914H9.69875H9.69836H9.69797H9.69757H9.69718H9.69679H9.6964H9.69601H9.69562H9.69522H9.69483H9.69444H9.69405H9.69366H9.69327H9.69287H9.69248H9.69209H9.6917H9.69131H9.69092H9.69052H9.69013H9.68974H9.68935H9.68896H9.68857H9.68818H9.68778H9.68739H9.687H9.68661H9.68622H9.68583H9.68543H9.68504H9.68465H9.68426H9.68387H9.68348H9.68309H9.68269H9.6823H9.68191H9.68152H9.68113H9.68074H9.68035H9.67995H9.67956H9.67917H9.67878H9.67839H9.678H9.67761H9.67722H9.67682H9.67643H9.67604H9.67565H9.67526H9.67487H9.67448H9.67408H9.67369H9.6733H9.67291H9.67252H9.67213H9.67174H9.67135H9.67095H9.67056H9.67017H9.66978H9.66939H9.669H9.66861H9.66821H9.66782H9.66743H9.66704H9.66665H9.66626H9.66587H9.66548H9.66508H9.66469H9.6643H9.66391H9.66352H9.66313H9.66274H9.66235H9.66195H9.66156H9.66117H9.66078H9.66039H9.66H9.65961C9.28701 47.3099 8.91925 47.4061 8.65018 47.6839C8.384 47.9587 8.29763 48.3257 8.29763 48.6863L8.29763 48.6866C8.29812 49.4197 8.29754 50.1542 8.29695 50.89C8.29512 53.1813 8.29328 55.4837 8.32396 57.7851L8.32434 57.8136L8.32796 57.8419C8.35926 58.0866 8.44704 58.3206 8.58427 58.5255C8.72153 58.7304 8.90456 58.9006 9.11886 59.0226L9.15245 59.0417L9.18858 59.0554C9.8545 59.3086 10.5268 59.3526 11.0468 58.9854C11.5633 58.6206 11.7521 57.9746 11.7521 57.2724V57.2645V57.2565V57.2486V57.2407V57.2327V57.2248V57.2169V57.2089V57.201V57.1931V57.1851V57.1772V57.1693V57.1613V57.1534V57.1455V57.1375V57.1296V57.1217V57.1137V57.1058V57.0979V57.0899V57.082V57.074V57.0661V57.0582V57.0502V57.0423V57.0344V57.0264V57.0185V57.0106V57.0026V56.9947V56.9868V56.9788V56.9709V56.9629V56.955V56.9471V56.9391V56.9312V56.9233V56.9153V56.9074V56.8995V56.8915V56.8836V56.8757V56.8677V56.8598V56.8518V56.8439V56.836V56.828V56.8201V56.8122V56.8042V56.7963V56.7884V56.7804V56.7725V56.7645V56.7566V56.7487V56.7407V56.7328V56.7249V56.7169V56.709V56.701V56.6931V56.6852V56.6772V56.6693V56.6614V56.6534V56.6455V56.6375V56.6296V56.6217V56.6137V56.6058V56.5979V56.5899V56.582V56.574V56.5661V56.5582V56.5502V56.5423V56.5344V56.5264V56.5185V56.5105V56.5026V56.4947V56.4867V56.4788V56.4709V56.4629V56.455V56.447V56.4391V56.4312V56.4232V56.4153V56.4074V56.3994V56.3915V56.3835V56.3756V56.3677V56.3597V56.3518V56.3438V56.3359V56.328V56.32V56.3121V56.3042V56.2962V56.2883V56.2803V56.2724V56.2645V56.2565V56.2486V56.2406V56.2327V56.2248V56.2168V56.2089V56.201V56.193V56.1851V56.1771V56.1692V56.1613V56.1533V56.1454V56.1374V56.1295V56.1216V56.1136V56.1057V56.0977V56.0898V56.0819V56.0739V56.066V56.058V56.0501V56.0422V56.0342V56.0263V56.0184V56.0104V56.0025V55.9945V55.9866V55.9787V55.9707V55.9628V55.9548V55.9469V55.939V55.931V55.9231V55.9151V55.9072V55.8993V55.8913V55.8834V55.8754V55.8675V55.8596V55.8516V55.8437V55.8357V55.8278V55.8199V55.8119V55.804V55.796V55.7881V55.7802V55.7722V55.7643V55.7563V55.7484V55.7405V55.7325V55.7246V55.7167V55.7087V55.7008V55.6928V55.6849V55.677V55.669V55.6611V55.6531V55.6452V55.6373V55.6293V55.6214V55.6134V55.6055V55.5976V55.5896V55.5817V55.5737V55.5658V55.5579V55.5499V55.542V55.534V55.5261V55.5182V55.5102V55.5023V55.4943V55.4864V55.4785V55.4705V55.4626V55.4546V55.4467V55.4388V55.4308V55.4229V55.4149V55.407V55.3991V55.3911V55.3832V55.3752Z" fill="#03001B" stroke="#F5DEA6"/>
<path d="M37.2939 53.9986C37.108 53.8489 36.9401 53.6783 36.7919 53.4869C36.2299 52.7611 35.9994 51.7983 36.0695 50.6911L37.2939 53.9986ZM37.2939 53.9986L36.9277 53.8735L36.7342 54.2702C36.283 55.1957 36.0418 56.0047 36.1325 56.716C36.229 57.4739 36.6846 58.0157 37.3653 58.4237C39.078 59.4553 40.9497 59.4371 42.7077 59.1399C43.0566 59.0816 43.3759 58.8915 43.627 58.6907C43.8847 58.4846 44.1131 58.2331 44.28 57.9929L44.28 57.9929L44.2835 57.9878C45.2566 56.5495 45.2892 54.9638 44.5792 53.4475L44.5789 53.4469C44.4141 53.096 44.2157 52.7854 43.9847 52.5159L44.2211 52.1954C44.8652 51.3224 45.1602 50.3881 44.9861 49.5442C44.8067 48.6748 44.1568 48.0298 43.1908 47.7151C42.0544 47.3435 40.8052 47.2976 39.6891 47.2576C38.6526 47.2181 37.7655 47.5181 37.1211 48.1433C36.4812 48.7641 36.1349 49.6527 36.0695 50.691L37.2939 53.9986ZM40.512 51.1379C40.887 51.1237 41.2486 51.1712 41.6003 51.2693C41.4283 51.2454 41.2523 51.23 41.0727 51.2228L41.0718 51.2228C40.9019 51.2163 40.7252 51.1867 40.512 51.1379ZM39.9379 54.8465C40.1242 54.8722 40.31 54.9017 40.4952 54.935C40.439 54.9326 40.3802 54.9271 40.3168 54.9188C40.2045 54.9041 40.0805 54.8804 39.9379 54.8465Z" fill="#03001B" stroke="#F5DEA6"/>
</svg>
