<svg width="54" height="55" viewBox="0 0 54 55" fill="none" xmlns="http://www.w3.org/2000/svg">
<path d="M8.53244 53.7206C8.43213 53.824 8.31363 53.9126 8.19541 53.9805C8.04012 54.0698 7.82794 54.1565 7.60035 54.1578C6.28246 54.1809 4.96376 54.1785 3.65083 54.1761C3.24964 54.1754 2.849 54.1747 2.44907 54.1747H2.42423L2.39951 54.1722C2.21737 54.1541 2.03664 54.1237 1.85857 54.0813L1.15626 53.9141L1.5598 53.3154C2.72049 51.5936 3.89227 49.9123 5.05609 48.2424C6.79938 45.7411 8.5248 43.2654 10.1683 40.7174L10.2175 40.6412L10.2904 40.587C10.3416 40.549 10.3927 40.5169 10.4322 40.4927C10.4491 40.4824 10.4631 40.4739 10.4755 40.4664C10.4971 40.4533 10.5142 40.443 10.5337 40.4305C10.563 40.4118 10.577 40.4007 10.5821 40.3965C11.9397 38.456 13.2953 36.5122 14.6487 34.5652L14.649 34.5648C15.2329 33.7264 16.2366 32.192 17.0984 30.8608C17.5284 30.1966 17.9216 29.5851 18.2074 29.1397C18.3503 28.917 18.4662 28.7359 18.5465 28.6104L18.6389 28.4658L18.663 28.4281L18.6691 28.4186L18.6706 28.4161L18.671 28.4156L18.6711 28.4154L19.0926 28.6843L18.6711 28.4154L18.8186 28.1843H19.0926H21.0578H21.2499L20.5139 26.6009L20.3924 26.3395L20.5578 26.1033L34.0765 6.80016H2.03916H1.63316L1.54981 6.4028C1.517 6.24636 1.49385 6.08802 1.48055 5.92866L1.47891 5.90898L1.47882 5.88923C1.47349 4.6621 1.47349 3.43437 1.47882 2.20606L1.97881 2.20823M8.53244 53.7206L8.40486 1.09391C7.11548 1.09863 5.8275 1.09706 4.53798 1.09548C3.89246 1.0947 3.24655 1.09391 2.59988 1.09391C2.45835 1.09391 2.31114 1.09801 2.17881 1.12235C2.04216 1.14749 1.87041 1.20293 1.72788 1.3457C1.58512 1.4887 1.53046 1.66043 1.50597 1.79595C1.48235 1.92666 1.47881 2.07158 1.47881 2.20823H1.97881M8.53244 53.7206L8.56942 53.7734L8.65815 53.9002L8.80743 54.1135H9.06779H51.2397H51.7417L51.7397 53.6115C51.7379 53.1511 51.7425 52.6897 51.7471 52.2264C51.758 51.1434 51.769 50.0498 51.6979 48.9331L51.6681 48.4649H51.1989H19.2743M8.53244 53.7206L19.2743 48.4649M1.97881 2.20823C1.97881 1.66926 2.04624 1.59391 2.59988 1.59391C3.24522 1.59391 3.89047 1.59469 4.53569 1.59548C5.82602 1.59706 7.11623 1.59863 8.40682 1.59391M1.97881 2.20823C1.97349 3.4351 1.97349 4.66137 1.97881 5.88706C1.9904 6.02587 2.01057 6.16383 2.03916 6.30016L8.40682 1.59391M8.40682 1.59391C9.19863 1.59079 9.99026 1.58271 10.7819 1.57463C11.7918 1.56432 12.8017 1.55402 13.8118 1.55402L8.40682 1.59391ZM35.9209 1.12493C36.9631 1.12171 37.977 1.11327 38.9925 1.10481C39.966 1.0967 40.9408 1.08859 41.9433 1.08504L41.9437 1.08504C42.5464 1.08343 43.1531 1.10565 43.7462 1.12737C43.8162 1.12994 43.8861 1.1325 43.9558 1.13501L43.9431 1.487L44.3494 1.77031L44.1881 2.24357L35.9209 1.12493ZM35.9209 1.12493C35.1955 1.12493 34.4823 1.11935 33.767 1.11375C33.1467 1.10889 32.5248 1.10402 31.8919 1.10277L31.8918 1.10277C30.4123 1.10021 28.9341 1.09976 27.4562 1.09931C25.346 1.09867 23.2365 1.09803 21.1251 1.09125L21.1248 1.09125C20.0201 1.08844 18.9085 1.08082 17.7956 1.0732C16.4665 1.0641 15.1355 1.05498 13.8122 1.05402H13.8118C12.8029 1.05402 11.7854 1.06438 10.7708 1.07471C9.97855 1.08278 9.18812 1.09083 8.40499 1.09391L35.9209 1.12493ZM19.2743 48.4649C23.6158 42.2568 27.885 36.1533 32.1426 30.0669L32.2093 29.9984L33.0355 29.1497H32.791L33.4231 28.2457L34.3473 26.9238H34.468V26.7512L51.7834 1.9859L52.2643 1.29816L51.4306 1.20265C51.3137 1.18926 51.2212 1.17664 51.1362 1.16503C51.1042 1.16067 51.0733 1.15646 51.0425 1.15239C50.935 1.1382 50.8255 1.12536 50.709 1.12408C49.9256 1.1146 49.1419 1.10986 48.358 1.10986C48.1892 1.10986 48.0197 1.10952 47.8497 1.10918C47.1478 1.10777 46.4363 1.10634 45.7267 1.12873L45.7265 1.12873C45.5731 1.13361 45.4027 1.16687 45.247 1.22604C45.1446 1.26496 45.0142 1.32809 44.8989 1.42936L44.5108 1.29706C44.4387 1.2725 44.3888 1.25292 44.338 1.23302C44.3165 1.2246 44.2948 1.21611 44.2713 1.20717C44.2071 1.1828 44.0909 1.13885 43.952 1.13489L43.942 1.48625L43.9393 1.48436L19.2743 48.4649ZM37.2131 12.8487C36.2745 14.1881 35.3358 15.527 34.3971 16.8657C33.8987 17.5765 33.4003 18.2872 32.9018 18.9979C32.6729 19.3244 32.4439 19.6509 32.2149 19.9774C32.2149 19.9775 32.2148 19.9775 32.2148 19.9776C31.4279 21.0997 30.641 22.2219 29.854 23.3445C29.8539 23.3446 29.8539 23.3446 29.8539 23.3446C29.2382 24.2229 28.6225 25.1014 28.0067 25.9804C28.0066 25.9805 28.0065 25.9806 28.0064 25.9808C27.4925 26.7144 26.9785 27.4483 26.4644 28.1825H26.696C26.9884 27.7698 27.2796 27.3561 27.5709 26.9424C27.7698 26.6599 27.9688 26.3773 28.1681 26.0949C28.7892 25.2197 29.4088 24.3436 30.0269 23.4666C30.8165 22.3479 31.6059 21.2271 32.3949 20.1042C32.5995 19.8138 32.8046 19.5238 33.0096 19.2338C33.5362 18.4888 34.0627 17.744 34.5819 16.9936C34.9724 16.4295 35.3584 15.8625 35.7444 15.2957C36.2786 14.5113 36.8126 13.727 37.3581 12.9504M37.2131 12.8487L42.6091 5.51467C42.4986 5.67369 42.3882 5.8327 42.2778 5.99167C42.0009 6.39006 41.7265 6.79015 41.452 7.19024C41.0095 7.83527 40.567 8.4803 40.1147 9.11823C39.6955 9.70993 39.2691 10.2967 38.8427 10.8836C38.3441 11.5698 37.8454 12.2561 37.3581 12.9504M37.2131 12.8487L37.3581 12.9504M37.2131 12.8487L37.2132 12.8486L37.3581 12.9504M25.1897 29.1435L25.4363 28.888L25.5029 28.8191L25.5805 28.7387L25.633 28.6843H25.5029H25.4363L25.1897 29.1435ZM25.1897 29.1435H24.9808M25.1897 29.1435H24.9808M24.9808 29.1435V28.6843V26.04V29.1435ZM26.817 28.8758C26.8629 28.8114 26.9086 28.747 26.9544 28.6825H27.7817V29.1435H26.3298H25.7918L25.9125 28.971C26.0088 28.8335 26.105 28.696 26.2013 28.5585C26.2199 28.5318 26.2385 28.5052 26.2572 28.4786C26.2574 28.4783 26.2575 28.4781 26.2577 28.4778C26.2817 28.4435 26.3058 28.4092 26.3298 28.3749V28.5291V28.5297V28.6825L26.6895 29.0298C26.7357 28.982 26.7784 28.9305 26.817 28.8758ZM24.9363 29.1523H24.4808H24.9363ZM26.2973 29.6435L26.6203 29.1825H27.7817V29.6435H26.2973Z" fill="#3290FF" stroke="#F5DEA6"/>
<path d="M25.4381 25.54H24.4773V29.6541H25.4381V29.6453H28.2808V28.6843H25.4381V25.54Z" fill="#F5DEA6"/>
<path d="M33.9635 26.4238V25.4638H30.1617V25.54H30.1342V29.6541H31.0951V29.6453H33.9635V28.6843H32.5244H31.0951V28.0345H33.0088V27.0736H31.0951V26.4238H33.9635Z" fill="#F5DEA6"/>
<path d="M20.5362 25.5391H19.5478L19.5611 25.5675L17.5985 29.6532H18.5603L19.0261 28.6843H21.0578L21.5228 29.6532H22.4845L20.5229 25.5657L20.5362 25.5391ZM20.5965 27.7234H19.4919L20.0464 26.571L20.5965 27.7234Z" fill="#F5DEA6"/>
<path d="M44.8516 25.3663H40.71V26.2935H42.1846V29.6222H43.4347C43.2262 28.4538 43.3637 27.3741 43.3247 26.2155L44.8516 26.3201V25.3663Z" fill="#F5DEA6"/>
<path d="M48.7004 25.2634C47.1974 25.2759 46.2312 26.1898 46.2481 27.5833C46.2641 28.8474 47.3004 29.8084 48.6374 29.7995C50.1297 29.7897 51.1456 28.8501 51.1288 27.4947C51.1128 26.2058 50.0756 25.2528 48.7004 25.2634ZM48.7279 28.9503C47.8895 28.9458 47.3296 28.3608 47.3456 27.508C47.3607 26.6809 47.9143 26.102 48.6809 26.1109C49.5424 26.1207 50.0038 26.6862 49.9975 27.7278C49.9949 28.3732 49.3916 28.9547 48.7279 28.9503Z" fill="#F5DEA6"/>
<path d="M1.9309 29.6319C2.27071 29.6488 2.61054 29.6674 2.95035 29.6816C3.91211 29.7224 4.88274 29.5699 5.87822 29.8013V28.7428H3.69917C3.7528 28.6386 3.81203 28.5374 3.87662 28.4397C4.48792 27.6073 5.10632 26.7802 5.7123 25.9442C5.81078 25.8086 5.85693 25.6358 5.9909 25.337H1.95131V26.3033H4.10285C3.32386 27.3848 2.58035 28.4193 1.83685 29.4529L1.9309 29.6319Z" fill="#F5DEA6"/>
<path d="M38.0297 29.6213V26.2208L39.5043 26.3157V25.2998H35.3857V26.3104L36.8497 26.2217V29.6249L38.0297 29.6213Z" fill="#F5DEA6"/>
<path d="M7.70944 25.4044V29.6204H8.95157C8.81138 28.1702 8.75104 26.7837 8.96487 25.4044H7.70944Z" fill="#F5DEA6"/>
<path d="M14.8507 29.6213H16.0494V25.4053H14.5633C14.4897 26.3574 13.8606 26.9575 13.5403 27.7057L13.3983 27.711L12.3053 25.3982H10.9407V29.6258H12.0684V27.5408L12.1908 27.508C12.5821 28.211 12.9734 28.9139 13.425 29.7242L14.7753 27.3396L14.9031 27.3715C14.9031 27.7314 14.9102 28.0913 14.9031 28.4503C14.8933 28.8262 14.8694 29.2002 14.8507 29.6213Z" fill="#F5DEA6"/>
<path d="M32.9574 28.0345L33.0089 27.961V28.0345H32.9574Z" fill="#F5DEA6"/>
<path d="M19.6569 27.7243C19.6569 27.7331 19.6489 27.7429 19.6445 27.7518L19.7882 27.8723L19.9417 27.7243" fill="#F5DEA6"/>
</svg>
