<svg width="90" height="50" viewBox="0 0 90 50" fill="none" xmlns="http://www.w3.org/2000/svg">
<path d="M32.1515 25.0492H31.6663H27.014H26.6058L26.5629 24.6461L26.5629 24.6459L26.5629 24.6457L26.5628 24.6455L26.5618 24.6376C26.5605 24.6289 26.5581 24.6137 26.5543 24.593C26.5465 24.5515 26.5328 24.4887 26.5101 24.4117C26.4643 24.2564 26.3842 24.0518 26.2485 23.85C25.9908 23.4666 25.5093 23.0523 24.5423 23.0523C23.9259 23.0523 23.4093 23.2736 23.0426 23.6832C22.6724 24.0967 22.4175 24.7448 22.4175 25.6601C22.4175 26.5672 22.6876 27.214 23.0761 27.6299C23.4638 28.045 24.004 28.2679 24.6222 28.2679C25.5877 28.2679 26.0451 27.8557 26.2824 27.4807C26.4085 27.2815 26.4799 27.079 26.5194 26.9245C26.539 26.848 26.5502 26.7856 26.5563 26.7443C26.5593 26.7238 26.5611 26.7087 26.562 26.7001L26.5627 26.6923L26.5628 26.6921C26.5628 26.6916 26.5628 26.6916 26.5628 26.692L26.591 26.2711H27.0155H31.6678H32.1529L32.1207 26.7551L31.6678 26.725C32.1207 26.7551 32.1207 26.7554 32.1206 26.7557L32.1206 26.7564L32.1205 26.7582L32.1201 26.7634L32.1187 26.7803C32.1175 26.7944 32.1158 26.8141 32.1132 26.839C32.108 26.8887 32.0998 26.9593 32.0869 27.0479C32.0611 27.2248 32.0167 27.474 31.9419 27.7717C31.7927 28.3654 31.5197 29.1608 31.0233 29.9598C30.0162 31.5809 28.1141 33.1694 24.6222 33.1694C22.1885 33.1694 20.2386 32.3378 18.8971 30.9619C17.5586 29.589 16.8574 27.7064 16.8574 25.6588L32.1515 25.0492ZM32.1515 25.0492L32.1192 24.565M32.1515 25.0492L32.1192 24.565M31.6663 24.5952C32.1192 24.565 32.1192 24.5648 32.1191 24.5645L32.1191 24.5638L32.119 24.562L32.1186 24.5567L32.1172 24.5398C32.116 24.5257 32.1142 24.506 32.1116 24.4812C32.1065 24.4314 32.0982 24.3608 32.0853 24.2723C32.0594 24.0954 32.0151 23.8461 31.9402 23.5485C31.7908 22.9548 31.5177 22.1593 31.0212 21.3604C30.0139 19.7394 28.1119 18.1508 24.6207 18.1508C22.187 18.1508 20.2371 18.9824 18.8958 20.358C17.5575 21.7305 16.8566 23.6124 16.8574 25.6586L31.6663 24.5952ZM31.6663 24.5952L32.1192 24.565M31.6663 24.5952L32.1192 24.565" fill="#3290FF" stroke="#F5DEA6" stroke-width="0.907837"/>
<path d="M37.3014 23.5752C37.302 23.5711 37.3032 23.5625 37.3055 23.5499C37.3101 23.5246 37.3187 23.4844 37.3338 23.4343C37.3644 23.333 37.4195 23.1987 37.5159 23.0659C37.6935 22.8211 38.0532 22.5207 38.8431 22.5207C39.5136 22.5207 39.9161 22.6744 40.1494 22.8858C40.3544 23.0716 40.4898 23.3579 40.5122 23.7977L39.85 23.8805L39.85 23.8805L39.8469 23.8809C39.8286 23.8833 39.8099 23.8858 39.7908 23.8883C38.873 24.0092 37.0276 24.2523 35.3941 24.9517C33.7315 25.6635 32.1414 26.919 32.1414 29.1236C32.1414 30.284 32.5056 31.3123 33.279 32.0485C34.0502 32.7826 35.1717 33.1724 36.5826 33.1724C37.9051 33.1724 39.0831 32.6652 39.9134 32.1781C40.1384 32.046 40.3404 31.914 40.5155 31.7914V32.1853V32.6392H40.9695H45.756H46.2099V32.1853V24.5968C46.2099 22.6474 45.6519 21.0143 44.4389 19.873C43.2302 18.7358 41.4402 18.1524 39.11 18.1524C35.844 18.1524 34.131 19.4525 33.2599 20.826C32.8333 21.4986 32.6215 22.1685 32.5158 22.6684C32.4628 22.919 32.436 23.1293 32.4224 23.2793C32.4156 23.3543 32.4121 23.4145 32.4103 23.4574C32.4094 23.4788 32.4089 23.496 32.4086 23.5085L32.4084 23.5237L32.4083 23.5287L32.4083 23.5305L32.4083 23.5313C32.4083 23.5316 32.4083 23.5319 32.8623 23.5319H32.4083L32.4083 23.9858H32.8623H36.8495H37.2642L37.3012 23.5766M37.3014 23.5752L37.3014 23.5748L37.3012 23.5766M37.3014 23.5752L37.3012 23.5763L37.3011 23.5778C37.3011 23.5781 37.3011 23.5777 37.3012 23.5766M37.3014 23.5752C37.3013 23.5758 37.3013 23.5763 37.3012 23.5766M37.7015 28.5104C37.7015 28.2738 37.8377 28.0318 38.2585 27.7944C38.6828 27.5549 39.3168 27.3725 40.1044 27.2558C40.1047 27.2557 40.1051 27.2556 40.1055 27.2556L40.5155 27.197V28.2018C39.5949 28.7398 38.8267 28.9355 38.3108 28.9355C38.0528 28.9355 37.9007 28.8685 37.8214 28.802C37.7509 28.7429 37.7015 28.6553 37.7015 28.5104Z" fill="#3290FF" stroke="#F5DEA6" stroke-width="0.907837"/>
<path d="M46.9037 19.2181L46.9262 19.6697H46.4964V22.597V23.0509H46.9504H49.1551V28.7219C49.1551 30.0667 49.3483 31.1089 50.062 31.7818C50.7664 32.4459 51.8623 32.6378 53.3309 32.6378H56.7873H57.2412V32.1839V28.9893V28.5354H56.7873H55.1918C54.9954 28.5354 54.9321 28.4866 54.9145 28.469C54.8967 28.4512 54.8479 28.3874 54.8479 28.1902V23.0524H57.7177H58.1716V22.5985V19.1365V18.6826H57.7177H54.8479V15.01V14.556H54.394H51.0703H50.6982L50.6252 14.9209L50.4654 15.7199L50.4654 15.7199L50.4649 15.7221C50.2718 16.7128 49.9676 17.5177 49.4394 18.1047C48.9221 18.6795 48.1455 19.0939 46.9037 19.2181Z" fill="#3290FF" stroke="#F5DEA6" stroke-width="0.907837"/>
<path d="M62.008 27.5373L61.9383 27.2856C62.2103 27.3532 62.4831 27.4099 62.7512 27.4593C63.2339 27.5483 63.7162 27.6162 64.1635 27.6791C64.2119 27.6859 64.2599 27.6926 64.3075 27.6993C64.8008 27.769 65.2404 27.834 65.6117 27.9183C65.9905 28.0042 66.2491 28.1 66.4054 28.2064C66.539 28.2973 66.5667 28.3699 66.5667 28.4575C66.5667 28.6331 66.4938 28.7917 66.248 28.9313C65.9767 29.0855 65.5088 29.2014 64.7872 29.2014C63.9357 29.2014 63.3256 29.0663 62.894 28.807C62.479 28.5577 62.1818 28.1649 62.008 27.5373ZM61.6322 27.2045H61.5705H58.1126H57.5842L57.6639 27.727C57.9478 29.5871 58.8361 30.965 60.1407 31.8687C61.4341 32.7647 63.1011 33.1709 64.9184 33.1709C66.9047 33.1709 68.7207 32.7331 70.0554 31.8587C71.4054 30.9743 72.258 29.6418 72.258 27.9243C72.258 26.433 71.67 25.4094 70.7727 24.7179C70.0125 24.1321 69.0528 23.8018 68.113 23.5855H71.4059H71.9857L71.8466 23.0227C71.4251 21.3173 70.5757 20.0823 69.372 19.282C68.1776 18.488 66.6782 18.1508 64.9998 18.1508C63.7732 18.1508 62.1046 18.3836 60.7247 19.1086C59.3232 19.845 58.1925 21.1115 58.1925 23.1316C58.1925 24.6238 58.7816 25.6338 59.6839 26.3053C60.2531 26.7288 60.9334 27.0076 61.6322 27.2045ZM67.3813 23.2594L67.4361 23.4464C66.9912 23.3644 66.5527 23.2998 66.1454 23.2401L66.1147 23.2356C65.6317 23.1649 65.2 23.1016 64.8321 23.024C64.4488 22.9432 64.1843 22.856 64.0236 22.7594C63.8837 22.6753 63.8838 22.6263 63.8839 22.6001C63.8839 22.5995 63.8839 22.599 63.8839 22.5984C63.8839 22.5103 63.9207 22.398 64.2093 22.286C64.501 22.1729 64.9272 22.1204 65.3979 22.1204C66.5217 22.1204 67.1915 22.6127 67.3813 23.2594Z" fill="#3290FF" stroke="#F5DEA6" stroke-width="0.907837"/>
<path d="M24.6503 48.6581H65.1923C78.3766 48.6581 89.0976 37.9172 89.0976 24.715C89.0976 11.5128 78.3751 0.771881 65.1923 0.771881H24.6503C11.4675 0.771881 0.744934 11.5128 0.744934 24.715C0.744934 37.9172 11.4675 48.6581 24.6503 48.6581ZM5.57366 24.7135C5.57366 14.1773 14.1328 5.60541 24.6503 5.60541H65.1923C75.7098 5.60541 84.2689 14.1773 84.2689 24.7135C84.2689 35.2497 75.7098 43.8215 65.1923 43.8215H24.6503C14.1328 43.8215 5.57366 35.2497 5.57366 24.7135Z" fill="#3290FF" stroke="#F5DEA6" stroke-width="0.907837"/>
<path d="M46.8903 18.4248C48.4343 18.4248 49.6847 17.1713 49.6847 15.6266C49.6847 14.0819 48.4343 12.8285 46.8903 12.8285C45.3463 12.8285 44.0959 14.0819 44.0959 15.6266C44.0959 17.1713 45.3463 18.4248 46.8903 18.4248Z" fill="#3290FF" stroke="#F5DEA6" stroke-width="0.907837"/>
</svg>
