<svg width="151" height="42" viewBox="0 0 151 42" fill="none" xmlns="http://www.w3.org/2000/svg">
<path d="M66.877 3.80048H67.1664H67.9538H68.4986L68.4002 4.33632L68.023 6.39248H69.7994H70.3622L70.243 6.94252C70.2152 7.07097 70.189 7.21025 70.162 7.36108L70.1619 7.36147L70.08 7.8166L70.0128 8.19011H69.6332H67.7386C67.5255 9.39996 67.3131 10.6011 67.1013 11.7935C66.9011 12.9206 66.7306 14.0504 66.5899 15.1831C66.8706 15.1443 67.1464 15.0732 67.4118 14.9707C67.844 14.8028 68.2625 14.6015 68.6635 14.3687L69.0033 14.1714L69.2472 14.4794L69.559 14.8731L69.8034 15.1818L69.5324 15.4674C69.2853 15.7278 69.0171 15.9674 68.7306 16.1837M66.877 3.80048L67.5851 16.3792L67.7985 16.7799C67.7986 16.7798 67.7987 16.7798 67.7988 16.7797C68.1248 16.6061 68.4363 16.4068 68.7306 16.1837M66.877 3.80048L66.7549 4.06287L65.7292 6.26662L63.8467 6.73112L63.5429 6.80608L63.5048 7.11666C63.4909 7.2309 63.4795 7.30746 63.4713 7.34416C63.4515 7.43349 63.4356 7.56251 63.4223 7.68152L63.3663 8.18556H63.8735H65.224M66.877 3.80048L65.224 8.18556M68.7306 16.1837C68.7304 16.1838 68.7303 16.1839 68.7302 16.184L68.4567 15.8217L68.731 16.1834C68.7308 16.1835 68.7307 16.1836 68.7306 16.1837ZM69.7994 6.8464V7.29614V7.29621V7.30032H69.7117L69.7152 7.28106C69.7425 7.12859 69.7698 6.98294 69.7994 6.8464ZM69.7994 6.8464L69.3557 6.75028C69.3489 6.78199 69.3421 6.81404 69.3355 6.8464H69.7994ZM65.224 8.18556C65.0151 9.23122 64.8167 10.2615 64.6287 11.2764C64.4081 12.4678 64.2005 13.7131 64.0059 15.0125C63.9627 15.2516 63.9394 15.4938 63.9363 15.7368C63.9159 16.154 64.0496 16.5644 64.3122 16.8897L64.3173 16.896L64.3226 16.9021C64.635 17.2619 65.1365 17.3702 65.6599 17.3702L65.6608 17.3702C66.0384 17.3694 66.4137 17.313 66.7747 17.2028M65.224 8.18556L66.7747 17.2028M66.7747 17.2028C66.7744 17.2029 66.7741 17.203 66.7738 17.2031L66.643 16.7684L66.7756 17.2025C66.7753 17.2026 66.775 17.2027 66.7747 17.2028ZM67.4782 6.8464H67.9397L67.5615 6.39248L67.4782 6.8464ZM66.0741 15.6715C66.2279 15.672 66.3814 15.6639 66.5339 15.6473L66.0741 15.6715Z" fill="#3290FF" stroke="#F5DEA6" stroke-width="0.907837"/>
<path d="M79.0587 15.0614C79.1299 14.6677 79.2102 14.2447 79.2997 13.7923C79.4424 13.0907 79.5821 12.3914 79.7188 11.6943C79.8566 10.9916 79.9716 10.3176 80.0638 9.67244C80.1454 9.12914 80.1903 8.58097 80.1983 8.03164L80.1984 8.02074L80.1981 8.00985C80.1831 7.56241 80.0182 7.13299 79.7298 6.79054L79.7251 6.78492L79.7201 6.77945C79.5676 6.60973 79.3794 6.47582 79.169 6.38733C78.9613 6.29999 78.7372 6.25902 78.5122 6.26722C77.9109 6.27143 77.3224 6.44201 76.812 6.7601C76.2993 7.07168 75.8264 7.44466 75.404 7.87077C75.0007 8.27354 74.6247 8.70274 74.2786 9.15551C74.3817 8.56624 74.4891 7.93503 74.6009 7.26191C74.8355 5.84773 75.0638 4.25431 75.2857 2.48212C75.3286 2.17467 75.2763 1.86142 75.136 1.58446L75.1305 1.57363L75.1244 1.56312C75.0247 1.39004 74.8764 1.25003 74.698 1.16042C74.5276 1.0749 74.3369 1.03888 74.1475 1.05613C73.9201 1.05934 73.6931 1.07471 73.4674 1.10219C73.2133 1.13101 72.958 1.17165 72.7063 1.22152C72.4539 1.27152 72.2057 1.33067 71.9648 1.39383C71.7247 1.45677 71.512 1.51753 71.3267 1.57382L71.0478 1.65855L71.0088 1.94741L70.9474 2.40255L70.8902 2.8261L71.3095 2.90865C71.6104 2.96787 71.9254 3.01715 72.2492 3.05908C72.4075 3.07958 72.5625 3.10246 72.7147 3.12717C72.5939 4.10276 72.4768 4.99679 72.3631 5.80939C72.2328 6.74109 72.1056 7.62025 71.9815 8.44691L71.9814 8.44771C71.859 9.27268 71.7321 10.0632 71.6008 10.8193C71.4689 11.5788 71.334 12.3519 71.1961 13.1386C71.1018 13.6602 71.0053 14.2105 70.9065 14.7894C70.8079 15.3673 70.704 15.9739 70.5948 16.6094L70.5808 16.6912L70.5965 16.7726C70.656 17.0797 70.9018 17.2177 71.0863 17.2692L71.209 17.3034L71.3317 17.2688C71.5123 17.2178 71.7013 17.1726 71.8994 17.1312C72.1062 17.0903 72.3069 17.0429 72.5012 16.9888C72.6707 16.9626 72.8284 16.8847 72.9524 16.7651L73.0116 16.708L73.0471 16.6338C73.1079 16.5065 73.1433 16.3687 73.1515 16.228C73.1664 16.1006 73.1837 15.9576 73.203 15.7981C73.2189 15.6674 73.236 15.5256 73.2543 15.3724C73.2942 15.0376 73.3432 14.7122 73.3974 14.3759C73.4514 14.0401 73.5033 13.7424 73.551 13.4723L73.553 13.4607L73.5545 13.449C73.5707 13.3173 73.6045 13.1884 73.6551 13.0658C73.7167 12.9288 73.8052 12.7554 73.9199 12.5373C74.029 12.3299 74.1452 12.1338 74.2629 11.9485C74.5173 11.5494 74.8383 11.0996 75.232 10.5963L75.233 10.5951C75.5871 10.139 75.9717 9.7074 76.384 9.30319C76.5859 9.12806 76.8004 8.96794 77.0257 8.82411L77.0332 8.81936L77.0404 8.81431C77.1796 8.71762 77.3436 8.66289 77.5129 8.65654C77.5306 8.65697 77.5392 8.65942 77.5418 8.66035C77.5433 8.6616 77.5462 8.66458 77.5506 8.67069C77.5747 8.70405 77.6201 8.80256 77.6337 9.02246C77.6308 9.49161 77.5786 9.95917 77.4782 10.4175L77.4781 10.4175L77.4763 10.4266C77.3514 11.0578 77.2152 11.73 77.072 12.4206C77.0469 12.5419 77.0219 12.6622 76.9972 12.7814C76.8817 13.338 76.7712 13.8704 76.6699 14.3766C76.5614 14.8493 76.4957 15.3308 76.4737 15.8153C76.4738 15.8147 76.4738 15.8142 76.4738 15.8136L79.0587 15.0614ZM79.0587 15.0614C79.149 15.0375 79.2382 15.0096 79.3261 14.9776C79.6363 14.8589 79.937 14.7169 80.2257 14.553L80.5574 14.3646L80.8001 14.6589L81.0891 15.0093L81.3315 15.3033L81.0841 15.5929C80.9066 15.8007 80.7114 15.9926 80.5007 16.1664C80.2663 16.3619 80.0196 16.5423 79.7622 16.7064C79.5011 16.8754 79.2246 17.0195 78.9366 17.1369L79.0587 15.0614ZM77.5408 8.6596C77.5408 8.65958 77.5411 8.65974 77.5416 8.66018L77.5408 8.6596Z" fill="#3290FF" stroke="#F5DEA6" stroke-width="0.907837"/>
<path d="M84.5256 11.4127C84.7428 11.3491 84.9569 11.2749 85.1671 11.1902L85.1706 11.1889L85.1706 11.1889C85.5714 11.0314 85.9516 10.8258 86.3029 10.5766L86.3051 10.575L86.3051 10.575C86.616 10.3574 86.8863 10.0871 87.1039 9.77625L87.1057 9.77366L87.1057 9.77367C87.2824 9.52496 87.3708 9.22429 87.3568 8.91952L87.3563 8.90902L87.3565 8.90902C87.3499 8.61975 87.2487 8.3406 87.0684 8.1143L87.0605 8.10435L87.0531 8.09397C87.0094 8.03236 86.9527 7.98115 86.8869 7.94399C86.8278 7.91059 86.7628 7.88929 86.6955 7.88123C86.4989 7.89304 86.3107 7.96611 86.1575 8.09052L86.1545 8.09291L86.1545 8.0929C85.8806 8.31155 85.6486 8.57816 85.47 8.87974L85.467 8.88483L85.4669 8.88481C85.2099 9.30615 85.0005 9.75481 84.8428 10.2225L84.5256 11.4127ZM84.5256 11.4127C84.6058 11.0099 84.7117 10.6123 84.8428 10.2226L84.5256 11.4127ZM89.0839 6.96793L89.0839 6.96794C89.5055 7.503 89.7395 8.1617 89.7501 8.84266C89.773 9.40414 89.6079 9.95728 89.2809 10.4144L89.2754 10.4222L89.2753 10.4221C88.9313 10.8823 88.5026 11.2726 88.0122 11.5721C87.4423 11.9276 86.8366 12.2224 86.2051 12.4517C85.6074 12.6731 84.9638 12.8837 84.2747 13.0836C84.2708 13.1255 84.2676 13.1675 84.2651 13.2095C84.2589 13.3225 84.2621 13.4359 84.2745 13.5484L84.2771 13.5727L84.2772 13.5972C84.278 14.0846 84.4033 14.5637 84.641 14.9892C84.7136 15.114 84.819 15.2166 84.9457 15.2858C85.0732 15.3554 85.2175 15.3886 85.3626 15.3816L85.3713 15.3812L85.38 15.3811C85.887 15.3763 86.3841 15.2404 86.8231 14.9868L86.8281 14.984L86.8281 14.984C87.3492 14.6917 87.8301 14.3329 88.2586 13.9165L88.5705 13.6133L88.8867 13.9121L89.2599 14.2649L89.5624 14.5508L89.3037 14.8769C89.0737 15.1668 88.8245 15.441 88.5577 15.6976C88.2443 16.0007 87.9001 16.2701 87.5306 16.5016C87.1345 16.7512 86.7107 16.954 86.2678 17.106M89.0839 6.96793L86.2667 17.1064C86.2671 17.1063 86.2674 17.1061 86.2678 17.106M89.0839 6.96793L89.0808 6.96407C88.864 6.6949 88.587 6.48034 88.2722 6.33761C87.9584 6.19534 87.6158 6.12839 87.2715 6.14206C86.7901 6.1553 86.3174 6.2741 85.8869 6.49007C85.4336 6.70288 85.006 6.96672 84.6125 7.27647C84.2165 7.5867 83.8461 7.92828 83.5049 8.29789C83.1946 8.6274 82.9172 8.98634 82.6765 9.36961L82.663 9.39115L82.6519 9.41408C82.3365 10.0691 82.0964 10.7577 81.9362 11.4668C81.7666 12.1662 81.6929 12.8855 81.7174 13.6047M89.0839 6.96793L81.7174 13.6047M86.2678 17.106C85.7901 17.2726 85.2878 17.358 84.7818 17.3585H84.7813C83.8309 17.3585 83.0476 17.0406 82.5092 16.3571C81.988 15.6955 81.7469 14.754 81.7174 13.6047M86.2678 17.106L81.7174 13.6047" fill="#3290FF" stroke="#F5DEA6" stroke-width="0.907837"/>
<path d="M2.61523 39.854V39.8539C2.37601 39.8539 2.11538 39.8636 1.82066 39.8745C1.74428 39.8774 1.66561 39.8803 1.58442 39.8832L1.1608 39.8981L1.11693 39.4765L0.994045 38.2954L0.95529 37.9229L1.31362 37.8141L2.83491 37.3521V27.2622L1.49926 26.861L1.1354 26.7517L1.17893 26.3743L1.32457 25.1113L1.37272 24.6937L1.79272 24.7097C2.15347 24.7234 2.456 24.7346 2.69426 24.739L2.7 24.7391L2.7 24.7392L3.41883 24.7617H3.41972H3.42105H3.42239H3.42372H3.42505H3.42639H3.42772H3.42905H3.43039H3.43172H3.43305H3.43439H3.43572H3.43705H3.43839H3.43972H3.44105H3.44239H3.44372H3.44505H3.44639H3.44772H3.44905H3.45039H3.45172H3.45305H3.45439H3.45572H3.45705H3.45839H3.45972H3.46105H3.46239H3.46372H3.46505H3.46639H3.46772H3.46906H3.47039H3.47172H3.47306H3.47439H3.47572H3.47706H3.47839H3.47972H3.48106H3.48239H3.48372H3.48506H3.48639H3.48772H3.48906H3.49039H3.49172H3.49306H3.49439H3.49572H3.49706H3.49839H3.49972H3.50106H3.50239H3.50372H3.50506H3.50639H3.50772H3.50906H3.51039H3.51172H3.51306H3.51439H3.51572H3.51706H3.51839H3.51972H3.52106H3.52239H3.52373H3.52506H3.52639H3.52773H3.52906H3.53039H3.53173H3.53306H3.53439H3.53573H3.53706H3.53839H3.53973H3.54106H3.54239H3.54373H3.54506H3.54639H3.54773H3.54906H3.55039H3.55173H3.55306H3.55439H3.55573H3.55706H3.55839H3.55973H3.56106H3.56239H3.56373H3.56506H3.56639H3.56773H3.56906H3.57039H3.57173H3.57306H3.57439H3.57573H3.57706H3.57839H3.57973H3.58106H3.5824H3.58373H3.58506H3.5864H3.58773H3.58906H3.5904H3.59173H3.59306H3.5944H3.59573H3.59706H3.5984H3.59973H3.60106H3.6024H3.60373H3.60506H3.6064H3.60773H3.60906H3.6104H3.61173H3.61306H3.6144H3.61573H3.61706H3.6184H3.61973H3.62106H3.6224H3.62373H3.62506H3.6264H3.62773H3.62906H3.6304H3.63173H3.63306H3.6344H3.63573H3.63706H3.6384H3.63973H3.64107H3.6424H3.64373H3.64507H3.6464H3.64773H3.64907H3.6504H3.65173H3.65307H3.6544H3.65573H3.65707H3.6584H3.65973H3.66107H3.6624H3.66373H3.66507H3.6664H3.66773H3.66907H3.6704H3.67173H3.67307H3.6744H3.67573H3.67707H3.6784H3.67973H3.68107H3.6824H3.68373H3.68507H3.6864H3.68773H3.68907H3.6904H3.69173H3.69307H3.6944H3.69573H3.69707H3.6984H3.69974H3.70107H3.7024H3.70374H3.70507H3.7064H3.70774H3.70907H3.7104H3.71174H3.71307H3.7144H3.71574H3.71707H3.7184H3.71974H3.72107H3.7224H3.72374H3.72507H3.7264H3.72774H3.72907H3.7304H3.73174H3.73307H3.7344H3.73574H3.73707H3.7384H3.73974H3.74107H3.7424H3.74374H3.74507H3.7464H3.74774H3.74907H3.7504H3.75174H3.75307H3.75441H3.75574H3.75707H3.75841H3.75974H3.76107H3.76241H3.76374H3.76507H3.76641H3.76774H3.76907H3.77041H3.77174H3.77307H3.77441H3.77574H3.77707H3.77841H3.77974H3.78107H3.78241H3.78374H3.78507H3.78641H3.78774H3.78907H3.79041H3.79174H3.79307H3.79441H3.79574H3.79707H3.79841H3.79974H3.80107H3.80241H3.80374H3.80507H3.80641H3.80774H3.80907H3.81041H3.81174H3.81308H3.81441H3.81574H3.81708H3.81841H3.81974H3.82108H3.82241H3.82374H3.82508H3.82641H3.82774H3.82908H3.83041H3.83174H3.83308H3.83441H3.83574H3.83708H3.83841H3.83974H3.84108H3.84241H3.84374H3.84508H3.84641H3.84774H3.84908H3.85041H3.85174H3.85308H3.85441H3.85574H3.85708H3.85841H3.85974H3.86108H3.86241H3.86374H3.86508H3.86641H3.86774H3.86908H3.87041H3.87175H3.87308H3.87441H3.87575H3.87708H3.87841H3.87975H3.88108H3.88241H3.88375H3.88508H3.88641H3.88775H3.88908H3.89041H3.89175H3.89308H3.89441H3.89575H3.89708H3.89841H3.89975H3.90108H3.90241H3.90375H3.90508H3.90641H3.90775H3.90908H3.91041H3.91175H3.91308H3.91441H3.91575H3.91708H3.91841H3.91975H3.92108H3.92241H3.92375H3.92508H3.92641H3.92775H3.92908H3.93042H3.93175H3.93308H3.93442H3.93575H3.93708H3.93842H3.93975H3.94108H3.94242H3.94375H3.94508H3.94642H3.94775H3.94908H3.95042H3.95175H3.95308H3.95442H3.95575H3.95708H3.95842H3.95975H3.96108H3.96242H3.96375H3.96508H3.96642H3.96775H3.96908H3.97042H3.97175H3.97308H3.97442H3.97575H3.97708H3.97842H3.97975H3.98108H3.98242H3.98375H3.98508H3.98642H3.98775H3.98909H3.99042H3.99175H3.99309H3.99442H3.99575H3.99709H3.99842H3.99975H4.00109H4.00242H4.00375H4.00509H4.00642H4.00775H4.00909H4.01042H4.01175H4.01309H4.01442H4.01575H4.01709H4.01842H4.01975H4.02109H4.02242H4.02375H4.02509H4.02642H4.02775H4.02909H4.03042H4.03175H4.03309H4.03442H4.03575H4.03709H4.03842H4.03975H4.04109H4.04242H4.04375H4.04509H4.04642H4.04776H4.04909H4.05042H4.05176H4.05309H4.05442H4.05576H4.05709H4.05842H4.05976H4.06109H4.06242H4.06376H4.06509H4.06642H4.06776H4.06909H4.07042H4.07176H4.07309H4.07442H4.07576H4.07709H4.07842H4.07976H4.08109H4.08242H4.08376H4.08509H4.08642H4.08776H4.08909H4.09042H4.09176H4.09309H4.09442H4.84085H4.8431H4.84535H4.84761H4.84986H4.85211H4.85436H4.8566H4.85885H4.8611H4.86334H4.86559H4.86783H4.87008H4.87232H4.87456H4.8768H4.87904H4.88128H4.88352H4.88576H4.888H4.89024H4.89247H4.89471H4.89694H4.89917H4.90141H4.90364H4.90587H4.9081H4.91033H4.91256H4.91479H4.91701H4.91924H4.92147H4.92369H4.92591H4.92814H4.93036H4.93258H4.9348H4.93702H4.93924H4.94146H4.94368H4.94589H4.94811H4.95033H4.95254H4.95475H4.95697H4.95918H4.96139H4.9636H4.96581H4.96802H4.97023H4.97243H4.97464H4.97685H4.97905H4.98125H4.98346H4.98566H4.98786H4.99006H4.99226H4.99446H4.99666H4.99886H5.00105H5.00325H5.00545H5.00764H5.00983H5.01203H5.01422H5.01641H5.0186H5.02079H5.02298H5.02517H5.02735H5.02954H5.03173H5.03391H5.03609H5.03828H5.04046H5.04264H5.04482H5.047H5.04918H5.05136H5.05354H5.05571H5.05789H5.06006H5.06224H5.06441H5.06658H5.06876H5.07093H5.0731H5.07527H5.07744H5.0796H5.08177H5.08394H5.0861H5.08827H5.09043H5.09259H5.09475H5.09692H5.09908H5.10123H5.10339H5.10555H5.10771H5.10986H5.11202H5.11418H5.11633H5.11848H5.12063H5.12279H5.12494H5.12709H5.12923H5.13138H5.13353H5.13568H5.13782H5.13997H5.14211H5.14425H5.1464H5.14854H5.15068H5.15282H5.15496H5.1571H5.15923H5.16137H5.16351H5.16564H5.16777H5.16991H5.17204H5.17417H5.1763H5.17843H5.18056H5.18269H5.18482H5.18694H5.18907H5.19119H5.19332H5.19544H5.19756H5.19969H5.20181H5.20393H5.20605H5.20816H5.21028H5.2124H5.21451H5.21663H5.21874H5.22086H5.22297H5.22508H5.22719H5.2293H5.23141H5.23352H5.23563H5.23773H5.23984H5.24194H5.24405H5.24615H5.24825H5.25036H5.25246H5.25456H5.25666H5.25875H5.26085H5.26295H5.26504H5.26714H5.26923H5.27133H5.27342H5.27551H5.2776H5.27969H5.28178H5.28387H5.28595H5.28804H5.29013H5.29221H5.29429H5.29638H5.29846H5.30054H5.30262H5.3047H5.30678H5.30886H5.31094H5.31301H5.31509H5.31716H5.31924H5.32131H5.32338H5.32545H5.32752H5.32959H5.33166H5.33373H5.3358H5.33786H5.33993H5.34199H5.34405H5.34612H5.34818H5.35024H5.3523H5.35436H5.35642H5.35848H5.36053H5.36259H5.36464H5.3667H5.36875H5.3708H5.37286H5.37491H5.37696H5.379H5.38105H5.3831H5.38515H5.38719H5.38924H5.39128H5.39332H5.39537H5.39741H5.39945H5.40149H5.40353H5.40556H5.4076H5.40964H5.41167H5.41371H5.41574H5.41777H5.41981H5.42184H5.42387H5.4259H5.42792H5.42995H5.43198H5.434H5.43603H5.43805H5.44008H5.4421H5.44412H5.44614H5.44816H5.45018H5.4522H5.45421H5.45623H5.45825H5.46026H5.46227H5.46429H5.4663H5.46831H5.47032H5.47233H5.47434H5.47634H5.47835H5.48036H5.48236H5.48437H5.48637H5.48837H5.49037H5.49237H5.49437H5.49637H5.49837H5.50037H5.50236H5.50436H5.50635H5.50835H5.51034H5.51233H5.51432H5.51631H5.5183H5.52029H5.52228H5.52426H5.52625H5.52823H5.53022H5.5322H5.53418H5.53616H5.53814H5.54012H5.5421H5.54408H5.54606H5.54803H5.55001H5.55198H5.55395H5.55593H5.5579H5.55987H5.56184H5.56381H5.56578H5.56774H5.56971H5.57167H5.57364H5.5756H5.57756H5.57953H5.58149H5.58345H5.58541H5.58736H5.58932H5.59128H5.59323H5.59519H5.59714H5.5991H5.60105H5.603H5.60495H5.6069H5.60885H5.61079H5.61274H5.61469H5.61663H5.61858H5.62052H5.62246H5.6244H5.62634H5.62828H5.63022H5.63216H5.63409H5.63603H5.63797H5.6399H5.64183H5.64376H5.6457H5.64763H5.64956H5.65148H5.65341H5.65534H5.65727H5.65919H5.66111H5.66304H5.66496H5.66688H5.6688H5.67072H5.67264H5.67456H5.67648H5.67839H5.68031H5.68222H5.68413H5.68605H5.68796H5.68987H5.69178H5.69369H5.6956H5.6975H5.69941H5.70131H5.70322H5.70512H5.70702H5.70893H5.71083H5.71273H5.71463H5.71652H5.71842H5.72032H5.72221H5.72411H5.726H5.72789H5.72978H5.73167H5.73356H5.73545H5.73734H5.73923H5.74111H5.743H5.74488H5.74677H5.74865H5.75053H5.75241H5.75429H5.75617H5.75805H5.75992H5.7618H5.76368H5.76555H5.76742H5.7693H5.77117H5.77304H5.77491H5.77678H5.77864H5.78051H5.78238H5.78424H5.78611H5.78797H5.78983H5.79169H5.79355H5.79541H5.79727H5.79913H5.80098H5.80284H5.8047H5.80655H5.8084H5.81025H5.81211H5.81396H5.8158H5.81765H5.8195H5.82135H5.82319H5.82504H5.82688H5.82872H5.83057H5.83241H5.83425H5.83609H5.83792H5.83976H5.8416H5.84343H5.84527H5.8471H5.84893H5.85077H5.8526H5.85443H5.85626H5.85808H5.85991H5.86174H5.86356H5.86539H5.86721H5.86903H5.87085H5.87267H5.87449H5.87631H5.87813H5.87995H5.88176H5.88358H5.88539C6.13973 24.7617 6.37545 24.7488 6.60466 24.7363C6.64073 24.7343 6.67664 24.7324 6.71243 24.7305C6.9713 24.7167 7.22125 24.7051 7.4678 24.6981C7.63635 24.6934 7.81424 24.695 7.98371 24.6965C8.06173 24.6972 8.13797 24.6979 8.21069 24.698C9.42963 24.659 10.643 24.8794 11.7704 25.3444L11.7772 25.3472L11.7772 25.3473C12.6866 25.7396 13.492 26.3387 14.1294 27.0968L14.1339 27.102L14.1338 27.1021C14.7186 27.8193 15.1469 28.6508 15.3914 29.5433C15.6351 30.4122 15.7593 31.3103 15.7606 32.2127L15.7607 32.2161C15.7576 32.7111 15.7212 33.2054 15.6517 33.6955C15.5761 34.2576 15.4488 34.8115 15.2714 35.3501L15.2712 35.3505C15.0784 35.9343 14.8162 36.4929 14.4902 37.0142M2.61523 39.854L14.1052 36.7738M2.61523 39.854L2.62681 39.8537L3.51308 39.8311M2.61523 39.854V39.4M14.4902 37.0142C14.4901 37.0143 14.4901 37.0144 14.49 37.0145L14.1052 36.7738M14.4902 37.0142C14.4902 37.0141 14.4903 37.0141 14.4903 37.014L14.1052 36.7738M14.4902 37.0142C14.1369 37.5806 13.6884 38.0818 13.1644 38.4955L13.1601 38.4989L13.16 38.4989C12.5762 38.9484 11.92 39.2951 11.2196 39.5242L11.2166 39.5252L11.2165 39.5252C10.3676 39.7962 9.47996 39.9257 8.58904 39.9085M14.1052 36.7738C13.7795 37.296 13.3661 37.7579 12.8831 38.1392C12.3401 38.5573 11.7299 38.8797 11.0785 39.0927C10.2757 39.349 9.43606 39.4713 8.59346 39.4546M8.58904 39.9085H8.59346V39.4546M8.58904 39.9085C8.58751 39.9085 8.58599 39.9084 8.58446 39.9084L8.59346 39.4546M8.58904 39.9085H8.00178H7.99347L7.98517 39.9082L6.99383 39.8719M8.59346 39.4546H8.00178L7.0073 39.4182M6.99383 39.8719L6.99701 39.872L7.0073 39.4182M6.99383 39.8719L6.99069 39.8718L7.0073 39.4182M6.99383 39.8719L5.99343 39.8492L5.98105 39.8489L5.98106 39.8488C5.67109 39.8333 5.45799 39.8311 5.33923 39.8311H4.36523H4.36354H4.36185H4.36015H4.35846H4.35677H4.35507H4.35338H4.35169H4.34999H4.3483H4.34661H4.34491H4.34322H4.34153H4.33984H4.33814H4.33645H4.33476H4.33307H4.33137H4.32968H4.32799H4.3263H4.3246H4.32291H4.32122H4.31953H4.31784H4.31614H4.31445H4.31276H4.31107H4.30938H4.30769H4.30599H4.3043H4.30261H4.30092H4.29923H4.29754H4.29585H4.29415H4.29246H4.29077H4.28908H4.28739H4.2857H4.28401H4.28232H4.28063H4.27894H4.27725H4.27556H4.27386H4.27217H4.27048H4.26879H4.2671H4.26541H4.26372H4.26203H4.26034H4.25865H4.25696H4.25527H4.25358H4.25189H4.2502H4.24851H4.24682H4.24514H4.24345H4.24176H4.24007H4.23838H4.23669H4.235H4.23331H4.23162H4.22993H4.22824H4.22655H4.22487H4.22318H4.22149H4.2198H4.21811H4.21642H4.21473H4.21305H4.21136H4.20967H4.20798H4.20629H4.20461H4.20292H4.20123H4.19954H4.19785H4.19617H4.19448H4.19279H4.1911H4.18942H4.18773H4.18604H4.18435H4.18267H4.18098H4.17929H4.1776H4.17592H4.17423H4.17254H4.17086H4.16917H4.16748H4.1658H4.16411H4.16242H4.16074H4.15905H4.15737H4.15568H4.15399H4.15231H4.15062H4.14893H4.14725H4.14556H4.14388H4.14219H4.14051H4.13882H4.13713H4.13545H4.13376H4.13208H4.13039H4.12871H4.12702H4.12534H4.12365H4.12197H4.12028H4.1186H4.11691H4.11523H4.11354H4.11186H4.11018H4.10849H4.10681H4.10512H4.10344H4.10175H4.10007H4.09839H4.0967H4.09502H4.09333H4.09165H4.08997H4.08828H4.0866H4.08492H4.08323H4.08155H4.07987H4.07818H4.0765H4.07482H4.07314H4.07145H4.06977H4.06809H4.0664H4.06472H4.06304H4.06136H4.05967H4.05799H4.05631H4.05463H4.05295H4.05126H4.04958H4.0479H4.04622H4.04454H4.04285H4.04117H4.03949H4.03781H4.03613H4.03445H4.03277H4.03108H4.0294H4.02772H4.02604H4.02436H4.02268H4.021H4.01932H4.01764H4.01596H4.01428H4.0126H4.01092H4.00924H4.00756H4.00588H4.0042H4.00252H4.00084H3.99916H3.99748H3.9958H3.99412H3.99244H3.99076H3.98908H3.9874H3.98572H3.98404H3.98236H3.98068H3.97901H3.97733H3.97565H3.97397H3.97229H3.97061H3.96893H3.96726H3.96558H3.9639H3.96222H3.96054H3.95886H3.95719H3.95551H3.95383H3.95215H3.95048H3.9488H3.94712H3.94544H3.94377H3.94209H3.94041H3.93873H3.93706H3.93538H3.9337H3.93203H3.93035H3.92867H3.927H3.92532H3.92365H3.92197H3.92029H3.91862H3.91694H3.91526H3.91359H3.91191H3.91024H3.90856H3.90689H3.90521H3.90354H3.90186H3.90018H3.89851H3.89683H3.89516H3.89348H3.89181H3.89014H3.88846H3.88679H3.88511H3.88344H3.88176H3.88009H3.87841H3.87674H3.87507H3.87339H3.87172H3.87004H3.86837H3.8667H3.86502H3.86335H3.86168H3.86H3.85833H3.85666H3.85498H3.85331H3.85164H3.84997H3.84829H3.84662H3.84495H3.84328H3.8416H3.83993H3.83826H3.83659H3.83491H3.83324H3.83157H3.8299H3.82823H3.82656H3.82488H3.82321H3.82154H3.81987H3.8182H3.81653H3.81486H3.81319H3.81152H3.80984H3.80817H3.8065H3.80483H3.80316H3.80149H3.79982H3.79815H3.79648H3.79481H3.79314H3.79147H3.7898H3.78813H3.78646H3.78479H3.78312H3.78145H3.77979H3.77812H3.77645H3.77478H3.77311H3.77144H3.76977H3.7681H3.76644H3.76477H3.7631H3.76143H3.75976H3.75809H3.75643H3.75476H3.75309H3.75142H3.74976H3.74809H3.74642H3.74475H3.74309H3.74142H3.73975H3.73808H3.73642H3.73475H3.73308H3.73142H3.72975H3.72808H3.72642H3.72475H3.72309H3.72142H3.71975H3.71809H3.71642H3.71476H3.71309H3.71143H3.70976H3.70809H3.70643H3.70476H3.7031H3.70143H3.69977H3.6981H3.69644H3.69478H3.69311H3.69145H3.68978H3.68812H3.68645H3.68479H3.68313H3.68146H3.6798H3.67813H3.67647H3.67481H3.67314H3.67148H3.66982H3.66815H3.66649H3.66483H3.66317H3.6615H3.65984H3.65818H3.65652H3.65485H3.65319H3.65153H3.64987H3.6482H3.64654H3.64488H3.64322H3.64156H3.6399H3.63823H3.63657H3.63491H3.63325H3.63159H3.62993H3.62827H3.62661H3.62495H3.62329H3.62163H3.61997H3.61831H3.61665H3.61499H3.61333H3.61167H3.61001H3.60835H3.60669H3.60503H3.60337H3.60171H3.60005H3.59839H3.59673H3.59507H3.59341H3.59176H3.5901H3.58844H3.58678H3.58512H3.58346H3.58181H3.58015H3.57849H3.57683H3.57517H3.57352H3.57186H3.5702H3.56854H3.56689H3.56523H3.56357H3.56192H3.56026H3.5586H3.55695H3.55529H3.55363H3.55198H3.55032H3.54867H3.54701H3.54535H3.5437H3.54204H3.54039H3.53873H3.53708H3.53542H3.53377H3.53211H3.53046H3.5288H3.52715H3.52549H3.52384H3.52218H3.52053H3.51887H3.51722H3.51557H3.51391H3.51308M7.0073 39.4182L6.00373 39.3954C5.68513 39.3795 5.46439 39.3772 5.33923 39.3772H4.36523H3.5073M3.51308 39.8311L3.51887 39.831L3.5073 39.3772M3.51308 39.8311H3.51226H3.5106H3.50895H3.5073V39.3772M3.5073 39.3772L2.61523 39.4M2.61523 39.4C2.36674 39.4 2.09512 39.4101 1.79921 39.4211C1.72386 39.4239 1.64693 39.4268 1.56841 39.4295L2.61523 39.4ZM7.26102 37.0695L7.26395 37.0697C7.55264 37.0897 7.81482 37.1005 8.04957 37.1005H8.0615L8.0615 37.1006C8.63807 37.1158 9.20841 36.9785 9.71494 36.7028C10.1543 36.4516 10.5234 36.0939 10.7881 35.6625C11.0825 35.1707 11.2895 34.6317 11.4 34.0693L11.401 34.0641L11.4011 34.0641C11.5351 33.4216 11.6013 32.7668 11.5986 32.1105L11.5986 32.1029L11.5988 32.0953C11.6218 31.3094 11.5046 30.5255 11.2525 29.7807C11.0725 29.269 10.7736 28.8074 10.3804 28.4338C10.0274 28.1133 9.60206 27.8828 9.14072 27.762L9.13776 27.7612L9.13777 27.7612C8.61447 27.6205 8.07493 27.5492 7.53303 27.5492H7.53299L7.26102 37.0695ZM7.26102 37.0695C7.1376 37.0617 7.0146 37.049 6.8923 37.0314L7.26102 37.0695Z" fill="#3290FF" stroke="#F5DEA6" stroke-width="0.907837"/>
<path d="M27.3251 39.8927H27.7578L27.7785 39.4604L27.8399 38.1746L27.858 37.7972L27.4901 37.711L25.8105 37.3175V27.2823L27.4901 26.8888L27.8583 26.8025L27.8399 26.4248L27.7785 25.1618L27.7575 24.7299H27.3251H20.382H19.9585L19.9291 25.1524L19.8472 26.3335L19.8222 26.694L20.1679 26.7992L21.7532 27.2816V37.34L20.1487 37.823L19.8017 37.9275L19.8267 38.2891L19.9087 39.4701L19.938 39.8927H20.3615H27.3251Z" fill="#3290FF" stroke="#F5DEA6" stroke-width="0.907837"/>
<path d="M39.2252 34.069L39.2124 34.0683L38.487 34.0274C38.3496 34.0198 38.2126 34.0073 38.0762 33.9899V37.3138L39.7515 37.6894L40.1294 37.7741L40.1052 38.1607L40.0233 39.467L39.9966 39.8925H39.5702H32.7432H32.3202L32.2904 39.4705L32.2085 38.3099L32.1835 37.9563L32.5206 37.8464L34.0506 37.3477V27.2409L32.6986 26.841L32.3313 26.7323L32.3767 26.3519L32.52 25.1504L32.5689 24.7407L32.9814 24.7504C33.5613 24.764 34.0778 24.7738 34.5311 24.7799C34.984 24.7859 35.5131 24.7897 36.1186 24.7912C36.8327 24.7912 37.5174 24.7799 38.1772 24.7596C38.8465 24.7389 39.504 24.7298 40.1589 24.7298M39.2252 34.069L45.3116 30.4375C45.4252 30.0059 45.4822 29.5613 45.4813 29.1151C45.5003 28.4249 45.3579 27.7399 45.0653 27.1145L45.0653 27.1145L45.0615 27.1066C44.7897 26.5539 44.3836 26.0782 43.8804 25.7231L43.8804 25.723L43.8751 25.7194C43.3582 25.3656 42.7799 25.1114 42.1698 24.9697C41.5118 24.8081 40.8365 24.7275 40.1589 24.7298M39.2252 34.069H39.238M39.2252 34.069H39.238M40.1589 24.7298C40.1586 24.7298 40.1584 24.7298 40.1581 24.7298L40.1596 25.1837V24.7298C40.1594 24.7298 40.1591 24.7298 40.1589 24.7298ZM39.238 34.069H39.2844L43.4825 40.3529L43.6548 40.6109L43.9577 40.544L46.5361 39.9751L46.7959 39.9178L46.8728 39.663L47.1414 38.7732L47.2109 38.5427L47.059 38.3558L42.9431 33.2921C43.2383 33.1441 43.518 32.9659 43.7776 32.7602L43.7792 32.759C44.1578 32.4564 44.487 32.0966 44.7548 31.6926L44.7568 31.6895M39.238 34.069L44.7568 31.6895M44.7568 31.6895C45.0075 31.3046 45.1948 30.8819 45.3116 30.4377L44.7568 31.6895ZM41.333 29.3372L41.3328 29.3372L41.3328 29.3497C41.3336 29.5957 41.2986 29.8406 41.2288 30.0765C41.1642 30.2917 41.0439 30.486 40.8801 30.6397C40.6542 30.8455 40.3858 30.999 40.094 31.0893C39.6328 31.2264 39.1529 31.2897 38.6719 31.2771L38.6719 31.2769H38.66C38.6215 31.2769 38.5759 31.2752 38.5113 31.2728C38.5003 31.2724 38.4888 31.272 38.4766 31.2715C38.399 31.2687 38.3058 31.2656 38.1999 31.2655C38.1594 31.2644 38.1189 31.2626 38.0784 31.2602V27.5772C38.3467 27.5407 38.6172 27.5222 38.8882 27.5219L38.8904 27.5218C39.2448 27.5196 39.5986 27.5545 39.9458 27.626C40.2134 27.6833 40.4677 27.7907 40.6954 27.9426C40.8895 28.0751 41.0461 28.2555 41.1501 28.4662C41.2776 28.7384 41.3402 29.0366 41.333 29.3372Z" fill="#3290FF" stroke="#F5DEA6" stroke-width="0.907837"/>
<path d="M63.3098 34.8077L63.7197 34.8966L63.6634 35.3123L63.124 39.2902L63.102 39.4524L62.9815 39.5632L62.754 39.7726L62.6237 39.8924H62.4466H62.4437H62.4408H62.4379H62.4349H62.432H62.4291H62.4262H62.4233H62.4203H62.4174H62.4145H62.4116H62.4087H62.4058H62.4028H62.3999H62.397H62.3941H62.3912H62.3883H62.3854H62.3825H62.3796H62.3766H62.3737H62.3708H62.3679H62.365H62.3621H62.3592H62.3563H62.3534H62.3505H62.3476H62.3447H62.3418H62.3389H62.336H62.3331H62.3302H62.3273H62.3244H62.3215H62.3186H62.3157H62.3128H62.3099H62.307H62.3041H62.3013H62.2984H62.2955H62.2926H62.2897H62.2868H62.2839H62.281H62.2782H62.2753H62.2724H62.2695H62.2666H62.2637H62.2609H62.258H62.2551H62.2522H62.2493H62.2465H62.2436H62.2407H62.2378H62.2349H62.2321H62.2292H62.2263H62.2235H62.2206H62.2177H62.2148H62.212H62.2091H62.2062H62.2034H62.2005H62.1976H62.1948H62.1919H62.189H62.1862H62.1833H62.1804H62.1776H62.1747H62.1719H62.169H62.1661H62.1633H62.1604H62.1576H62.1547H62.1519H62.149H62.1461H62.1433H62.1404H62.1376H62.1347H62.1319H62.129H62.1262H62.1233H62.1205H62.1176H62.1148H62.1119H62.1091H62.1063H62.1034H62.1006H62.0977H62.0949H62.092H62.0892H62.0864H62.0835H62.0807H62.0778H62.075H62.0722H62.0693H62.0665H62.0637H62.0608H62.058H62.0552H62.0523H62.0495H62.0467H62.0438H62.041H62.0382H62.0353H62.0325H62.0297H62.0269H62.024H62.0212H62.0184H62.0156H62.0127H62.0099H62.0071H62.0043H62.0015H61.9986H61.9958H61.993H61.9902H61.9874H61.9846H61.9817H61.9789H61.9761H61.9733H61.9705H61.9677H61.9649H61.9621H61.9592H61.9564H61.9536H61.9508H61.948H61.9452H61.9424H61.9396H61.9368H61.934H61.9312H61.9284H61.9256H61.9228H61.92H61.9172H61.9144H61.9116H61.9088H61.906H61.9032H61.9004H61.8976H61.8948H61.892H61.8892H61.8864H61.8836H61.8808H61.8781H61.8753H61.8725H61.8697H61.8669H61.8641H61.8613H61.8585H61.8558H61.853H61.8502H61.8474H61.8446H61.8418H61.8391H61.8363H61.8335H61.8307H61.8279H61.8252H61.8224H61.8196H61.8168H61.8141H61.8113H61.8085H61.8057H61.803H61.8002H61.7974H61.7947H61.7919H61.7891H61.7864H61.7836H61.7808H61.7781H61.7753H61.7725H61.7698H61.767H61.7642H61.7615H61.7587H61.756H61.7532H61.7504H61.7477H61.7449H61.7422H61.7394H61.7366H61.7339H61.7311H61.7284H61.7256H61.7229H61.7201H61.7174H61.7146H61.7119H61.7091H61.7064H61.7036H61.7009H61.6981H61.6954H61.6926H61.6899H61.6872H61.6844H61.6817H61.6789H61.6762H61.6735H61.6707H61.668H61.6652H61.6625H61.6598H61.657H61.6543H61.6516H61.6488H61.6461H61.6434H61.6406H61.6379H61.6352H61.6324H61.6297H61.627H61.6242H61.6215H61.6188H61.6161H61.6133H61.6106H61.6079H61.6052H61.6024H61.5997H61.597H61.5943H61.5916H61.5888H61.5861H61.5834H61.5807H61.578H61.5753H61.5725H61.5698H61.5671H61.5644H61.5617H61.559H61.5563H61.5536H61.5509H61.5481H61.5454H61.5427H61.54H61.5373H61.5346H61.5319H61.5292H61.5265H61.5238H61.5211H61.5184H61.5157H61.513H61.5103H61.5076H61.5049H61.5022H61.4995H61.4968H61.4941H61.4914H61.4887H61.486H61.4833H61.4806H61.4779H61.4753H61.4726H61.4699H61.4672H61.4645H61.4618H61.4591H61.4564H61.4538H61.4511H61.4484H61.4457H61.443H61.4403H61.4377H61.435H61.4323H61.4296H61.4269H61.4243H61.4216H61.4189H61.4162H61.4136H61.4109H61.4082H61.4055H61.4029H61.4002H61.3975H61.3949H61.3922H61.3895H61.3868H61.3842H61.3815H61.3788H61.3762H61.3735H61.3708H61.3682H61.3655H61.3629H61.3602H61.3575H61.3549H61.3522H61.3496H61.3469H61.3442H61.3416H61.3389H61.3363H61.3336H61.331H61.3283H61.3257H61.323H61.3204H61.3177H61.3151H61.3124H61.3098H61.3071H61.3045H61.3018H61.2992H61.2965H61.2939H61.2912H61.2886H61.2859H61.2833H61.2807H61.278H61.2754H61.2727H61.2701H61.2675H61.2648H61.2622H61.2596H61.2569H61.2543H61.2517H61.249H61.2464H61.2438H61.2411H61.2385H61.2359H61.2332H61.2306H61.228H61.2254H61.2227H61.2201H61.2175H61.2149H61.2122H61.2096H61.207H61.2044H61.2017H61.1991H61.1965H61.1939H61.1913H61.1887H61.186H61.1834H61.1808H61.1782H61.1756H61.173H61.1703H61.1677H61.1651H61.1625H61.1599H61.1573H61.1547H61.1521H61.1495H61.1469H61.1443H61.1417H61.139H61.1364H61.1338H61.1312H61.1286H61.126H61.1234H61.1208H61.1182H61.1156H61.113H61.1104H61.1078H61.1052H61.1027H61.1001H61.0975H61.0949H61.0923H61.0897H61.0871H61.0845H61.0819H61.0793H61.0767H61.0741H61.0716H61.069H61.0664H61.0638H61.0612H61.0586H61.0561H61.0535H61.0509H61.0483H61.0457H61.0431H61.0406H61.038H61.031L61.031 39.8924L59.7045 39.8719L59.7043 39.8719L58.3289 39.8515C57.8519 39.8515 57.3308 39.8477 56.7658 39.8401H55.5217C55.0508 39.8401 54.563 39.8439 54.0584 39.8514L54.0578 39.8514L52.5422 39.8719L52.536 39.872V39.872C52.0446 39.872 51.6037 39.8825 51.2129 39.9032L50.7901 39.9256L50.7383 39.5055L50.5927 38.3244L50.5456 37.943L50.914 37.8337L52.4758 37.3702V27.2614L51.1238 26.8614L50.758 26.7532L50.8016 26.3743L50.9472 25.109L50.9954 24.6906L51.4162 24.7073C51.7552 24.7208 52.1745 24.7321 52.6696 24.7389L63.3098 34.8077ZM63.3098 34.8077L63.2136 35.2513L63.3098 34.8077ZM58.4632 37.048H58.4654H58.466H58.4632ZM58.4632 37.048H58.4604M58.4632 37.048H58.4604M58.4604 37.048H58.4576M58.4604 37.048H58.4576M58.4576 37.048H58.4548M58.4576 37.048H58.4548M58.4548 37.048H58.452M58.4548 37.048H58.452M58.452 37.048H58.4492M58.452 37.048H58.4492M58.4492 37.048H58.4464M58.4492 37.048H58.4464M58.4464 37.048H58.4436M58.4464 37.048H58.4436M58.4436 37.048H58.4409M58.4436 37.048H58.4409M58.4409 37.048H58.4381M58.4409 37.048H58.4381M58.4381 37.048H58.4353M58.4381 37.048H58.4353M58.4353 37.048H58.4325M58.4353 37.048H58.4325M58.4325 37.048H58.4297M58.4325 37.048H58.4297M58.4297 37.048H58.4269M58.4297 37.048H58.4269M58.4269 37.048H58.4241M58.4269 37.048H58.4241M58.4241 37.048H58.4214M58.4241 37.048H58.4214M58.4214 37.048H58.4186M58.4214 37.048H58.4186M58.4186 37.048H58.4158M58.4186 37.048H58.4158M58.4158 37.048H58.413M58.4158 37.048H58.413M58.413 37.048H58.4102M58.413 37.048H58.4102M58.4102 37.048H58.4075M58.4102 37.048H58.4075M58.4075 37.048H58.4047M58.4075 37.048H58.4047M58.4047 37.048H58.4019M58.4047 37.048H58.4019M58.4019 37.048H58.3991M58.4019 37.048H58.3991M58.3991 37.048H58.3963M58.3991 37.048H58.3963M58.3963 37.048H58.3936M58.3963 37.048H58.3936M58.3936 37.048H58.3908M58.3936 37.048H58.3908M58.3908 37.048H58.388M58.3908 37.048H58.388M58.388 37.048H58.3852M58.388 37.048H58.3852M58.3852 37.048H58.3825M58.3852 37.048H58.3825M58.3825 37.048H58.3797M58.3825 37.048H58.3797M58.3797 37.048H58.3769M58.3797 37.048H58.3769M58.3769 37.048H58.3741M58.3769 37.048H58.3741M58.3741 37.048H58.3713M58.3741 37.048H58.3713M58.3713 37.048H58.3686M58.3713 37.048H58.3686M58.3686 37.048H58.3658M58.3686 37.048H58.3658M58.3658 37.048H58.363M58.3658 37.048H58.363M58.363 37.048H58.3603M58.363 37.048H58.3603M58.3603 37.048H58.3575M58.3603 37.048H58.3575M58.3575 37.048H58.3547M58.3575 37.048H58.3547M58.3547 37.048H58.3519M58.3547 37.048H58.3519M58.3519 37.048H58.3492M58.3519 37.048H58.3492M58.3492 37.048H58.3464M58.3492 37.048H58.3464M58.3464 37.048H58.3436M58.3464 37.048H58.3436M58.3436 37.048H58.3409M58.3436 37.048H58.3409M58.3409 37.048H58.3381M58.3409 37.048H58.3381M58.3381 37.048H58.3353M58.3381 37.048H58.3353M58.3353 37.048H58.3326M58.3353 37.048H58.3326M58.3326 37.048H58.3298M58.3326 37.048H58.3298M58.3298 37.048H58.327M58.3298 37.048H58.327M58.327 37.048H58.3243M58.327 37.048H58.3243M58.3243 37.048H58.3215M58.3243 37.048H58.3215M58.3215 37.048H58.3187M58.3215 37.048H58.3187M58.3187 37.048H58.316M58.3187 37.048H58.316M58.316 37.048H58.3132M58.316 37.048H58.3132M58.3132 37.048H58.3104M58.3132 37.048H58.3104M58.3104 37.048H58.3077M58.3104 37.048H58.3077M58.3077 37.048H58.3049M58.3077 37.048H58.3049M58.3049 37.048H58.3021M58.3049 37.048H58.3021M58.3021 37.048H58.2994M58.3021 37.048H58.2994M58.2994 37.048H58.2966M58.2994 37.048H58.2966M58.2966 37.048H58.2939M58.2966 37.048H58.2939M58.2939 37.048H58.2911M58.2939 37.048H58.2911M58.2911 37.048H58.2883M58.2911 37.048H58.2883M58.2883 37.048H58.2856M58.2883 37.048H58.2856M58.2856 37.048H58.2828M58.2856 37.048H58.2828M58.2828 37.048H58.2801M58.2828 37.048H58.2801M58.2801 37.048H58.2773M58.2801 37.048H58.2773M58.2773 37.048H58.2745M58.2773 37.048H58.2745M58.2745 37.048H58.2718M58.2745 37.048H58.2718M58.2718 37.048H58.269M58.2718 37.048H58.269M58.269 37.048H58.2663M58.269 37.048H58.2663M58.2663 37.048H58.2635M58.2663 37.048H58.2635M58.2635 37.048H58.2608M58.2635 37.048H58.2608M58.2608 37.048H58.258M58.2608 37.048H58.258M58.258 37.048H58.2553M58.258 37.048H58.2553M58.2553 37.048H58.2525M58.2553 37.048H58.2525M58.2525 37.048H58.2498M58.2525 37.048H58.2498M58.2498 37.048H58.247M58.2498 37.048H58.247M58.247 37.048H58.2442M58.247 37.048H58.2442M58.2442 37.048H58.2415M58.2442 37.048H58.2415M58.2415 37.048H58.2387M58.2415 37.048H58.2387M58.2387 37.048H58.236M58.2387 37.048H58.236M58.236 37.048H58.2332M58.236 37.048H58.2332M58.2332 37.048H58.2305M58.2332 37.048H58.2305M58.2305 37.048H58.2277M58.2305 37.048H58.2277M58.2277 37.048H58.225M58.2277 37.048H58.225M58.225 37.048H58.2222M58.225 37.048H58.2222M58.2222 37.048H58.2195M58.2222 37.048H58.2195M58.2195 37.048H58.2168M58.2195 37.048H58.2168M58.2168 37.048H58.214M58.2168 37.048H58.214M58.214 37.048H58.2113M58.214 37.048H58.2113M58.2113 37.048H58.2085M58.2113 37.048H58.2085M58.2085 37.048H58.2058M58.2085 37.048H58.2058M58.2058 37.048H58.203M58.2058 37.048H58.203M58.203 37.048H58.2003M58.203 37.048H58.2003M58.2003 37.048H58.1975M58.2003 37.048H58.1975M58.1975 37.048H58.1948M58.1975 37.048H58.1948M58.1948 37.048H58.1921M58.1948 37.048H58.1921M58.1921 37.048H58.1893M58.1921 37.048H58.1893M58.1893 37.048H58.1866M58.1893 37.048H58.1866M58.1866 37.048H58.1838M58.1866 37.048H58.1838M58.1838 37.048H58.1811M58.1838 37.048H58.1811M58.1811 37.048H58.1783M58.1811 37.048H58.1783M58.1783 37.048H58.1756M58.1783 37.048H58.1756M58.1756 37.048H58.1729M58.1756 37.048H58.1729M58.1729 37.048H58.1701M58.1729 37.048H58.1701M58.1701 37.048H58.1674M58.1701 37.048H58.1674M58.1674 37.048H58.1646M58.1674 37.048H58.1646M58.1646 37.048H58.1619M58.1646 37.048H58.1619M58.1619 37.048H58.1592M58.1619 37.048H58.1592M58.1592 37.048H58.1564M58.1592 37.048H58.1564M58.1564 37.048H58.1537M58.1564 37.048H58.1537M58.1537 37.048H58.151M58.1537 37.048H58.151M58.151 37.048H58.1482M58.151 37.048H58.1482M58.1482 37.048H58.1455M58.1482 37.048H58.1455M58.1455 37.048H58.1428M58.1455 37.048H58.1428M58.1428 37.048H58.14M58.1428 37.048H58.14M58.14 37.048H58.1373M58.14 37.048H58.1373M58.1373 37.048H58.1346M58.1373 37.048H58.1346M58.1346 37.048H58.1318M58.1346 37.048H58.1318M58.1318 37.048H58.1291M58.1318 37.048H58.1291M58.1291 37.048H58.1264M58.1291 37.048H58.1264M58.1264 37.048H58.1236M58.1264 37.048H58.1236M58.1236 37.048H58.1209M58.1236 37.048H58.1209M58.1209 37.048H58.1182M58.1209 37.048H58.1182M58.1182 37.048H58.1154M58.1182 37.048H58.1154M58.1154 37.048H58.1127M58.1154 37.048H58.1127M58.1127 37.048H58.11M58.1127 37.048H58.11M58.11 37.048H58.1073M58.11 37.048H58.1073M58.1073 37.048H58.1045M58.1073 37.048H58.1045M58.1045 37.048H58.1018M58.1045 37.048H58.1018M58.1018 37.048H58.0991M58.1018 37.048H58.0991M58.0991 37.048H58.0964M58.0991 37.048H58.0964M58.0964 37.048H58.0936M58.0964 37.048H58.0936M58.0936 37.048H58.0909M58.0936 37.048H58.0909M58.0909 37.048H58.0882M58.0909 37.048H58.0882M58.0882 37.048H58.0855M58.0882 37.048H58.0855M58.0855 37.048H58.0827M58.0855 37.048H58.0827M58.0827 37.048H58.08M58.0827 37.048H58.08M58.08 37.048H58.0773M58.08 37.048H58.0773M58.0773 37.048H58.0746M58.0773 37.048H58.0746M58.0746 37.048H58.0718M58.0746 37.048H58.0718M58.0718 37.048H58.0691M58.0718 37.048H58.0691M58.0691 37.048H58.0664M58.0691 37.048H58.0664M58.0664 37.048H58.0637M58.0664 37.048H58.0637M58.0637 37.048H58.061M58.0637 37.048H58.061M58.061 37.048H58.0582M58.061 37.048H58.0582M58.0582 37.048H58.0555M58.0582 37.048H58.0555M58.0555 37.048H58.0528M58.0555 37.048H58.0528M58.0528 37.048H58.0501M58.0528 37.048H58.0501M58.0501 37.048H58.0474M58.0501 37.048H58.0474M58.0474 37.048H58.0447M58.0474 37.048H58.0447M58.0447 37.048H58.0419M58.0447 37.048H58.0419M58.0419 37.048H58.0392M58.0419 37.048H58.0392M58.0392 37.048H58.0365M58.0392 37.048H58.0365M58.0365 37.048H58.0338M58.0365 37.048H58.0338M58.0338 37.048H58.0311M58.0338 37.048H58.0311M58.0311 37.048H58.0284M58.0311 37.048H58.0284M58.0284 37.048H58.0257M58.0284 37.048H58.0257M58.0257 37.048H58.0229M58.0257 37.048H58.0229M58.0229 37.048H58.0202M58.0229 37.048H58.0202M58.0202 37.048H58.0175M58.0202 37.048H58.0175M58.0175 37.048H58.0148M58.0175 37.048H58.0148M58.0148 37.048H58.0121M58.0148 37.048H58.0121M58.0121 37.048H58.0094M58.0121 37.048H58.0094M58.0094 37.048H58.0067M58.0094 37.048H58.0067M58.0067 37.048H58.004M58.0067 37.048H58.004M58.004 37.048H58.0013M58.004 37.048H58.0013M58.0013 37.048H57.9985M58.0013 37.048H57.9985M57.9985 37.048H57.9958M57.9985 37.048H57.9958M57.9958 37.048H57.9931M57.9958 37.048H57.9931M57.9931 37.048H57.9904M57.9931 37.048H57.9904M57.9904 37.048H57.9877M57.9904 37.048H57.9877M57.9877 37.048H57.985M57.9877 37.048H57.985M57.985 37.048H57.9823M57.985 37.048H57.9823M57.9823 37.048H57.9796M57.9823 37.048H57.9796M57.9796 37.048H57.9769M57.9796 37.048H57.9769M57.9769 37.048H57.9742M57.9769 37.048H57.9742M57.9742 37.048H57.9715M57.9742 37.048H57.9715M57.9715 37.048H57.9688M57.9715 37.048H57.9688M57.9688 37.048H57.9661M57.9688 37.048H57.9661M57.9661 37.048H57.9634M57.9661 37.048H57.9634M57.9634 37.048H57.9607M57.9634 37.048H57.9607M57.9607 37.048H57.958M57.9607 37.048H57.958M57.958 37.048H57.9553M57.958 37.048H57.9553M57.9553 37.048H57.9526M57.9553 37.048H57.9526M57.9526 37.048H57.9499M57.9526 37.048H57.9499M57.9499 37.048H57.9472M57.9499 37.048H57.9472M57.9472 37.048H57.9445M57.9472 37.048H57.9445M57.9445 37.048H57.9418M57.9445 37.048H57.9418M57.9418 37.048H57.9391M57.9418 37.048H57.9391M57.9391 37.048H57.9364M57.9391 37.048H57.9364M57.9364 37.048H57.9337M57.9364 37.048H57.9337M57.9337 37.048H57.931M57.9337 37.048H57.931M57.931 37.048H57.9283M57.931 37.048H57.9283M57.9283 37.048H57.9256M57.9283 37.048H57.9256M57.9256 37.048H57.9229M57.9256 37.048H57.9229M57.9229 37.048H57.9202M57.9229 37.048H57.9202M57.9202 37.048H57.9175M57.9202 37.048H57.9175M57.9175 37.048H57.9148M57.9175 37.048H57.9148M57.9148 37.048H57.9121M57.9148 37.048H57.9121M57.9121 37.048H57.9094M57.9121 37.048H57.9094M57.9094 37.048H57.9068M57.9094 37.048H57.9068M57.9068 37.048H57.9041M57.9068 37.048H57.9041M57.9041 37.048H57.9014M57.9041 37.048H57.9014M57.9014 37.048H57.8987M57.9014 37.048H57.8987M57.8987 37.048H57.896M57.8987 37.048H57.896M57.896 37.048H57.8933M57.896 37.048H57.8933M57.8933 37.048H57.8906M57.8933 37.048H57.8906M57.8906 37.048H57.8879M57.8906 37.048H57.8879M57.8879 37.048H57.8852M57.8879 37.048H57.8852M57.8852 37.048H57.8825M57.8852 37.048H57.8825M57.8825 37.048H57.8799M57.8825 37.048H57.8799M57.8799 37.048H57.8772M57.8799 37.048H57.8772M57.8772 37.048H57.8745M57.8772 37.048H57.8745M57.8745 37.048H57.8718M57.8745 37.048H57.8718M57.8718 37.048H57.8691M57.8718 37.048H57.8691M57.8691 37.048H57.8664M57.8691 37.048H57.8664M57.8664 37.048H57.8637M57.8664 37.048H57.8637M57.8637 37.048H57.8611M57.8637 37.048H57.8611M57.8611 37.048H57.8584M57.8611 37.048H57.8584M57.8584 37.048H57.8557M57.8584 37.048H57.8557M57.8557 37.048H57.853M57.8557 37.048H57.853M57.853 37.048H57.8503M57.853 37.048H57.8503M57.8503 37.048H57.8477M57.8503 37.048H57.8477M57.8477 37.048H57.845M57.8477 37.048H57.845M57.845 37.048H57.8423M57.845 37.048H57.8423M57.8423 37.048H57.8396M57.8423 37.048H57.8396M57.8396 37.048H57.8369M57.8396 37.048H57.8369M57.8369 37.048H57.8343M57.8369 37.048H57.8343M57.8343 37.048H57.8316M57.8343 37.048H57.8316M57.8316 37.048H57.8289M57.8316 37.048H57.8289M57.8289 37.048H57.8262M57.8289 37.048H57.8262M57.8262 37.048H57.8235M57.8262 37.048H57.8235M57.8235 37.048H57.8209M57.8235 37.048H57.8209M57.8209 37.048H57.8182M57.8209 37.048H57.8182M57.8182 37.048H57.8155H57.8182ZM54.1844 24.7593L52.6697 24.7389L57.1033 37.048H56.5309V33.3507L60.6415 33.4998L61.1119 33.5168V33.0461V31.0777V30.607L60.6415 30.624L56.5309 30.7731V27.5537H56.9691C57.0874 27.5537 57.2119 27.5549 57.3405 27.5561C57.6127 27.5586 57.9035 27.5614 58.1943 27.5535C58.6082 27.5423 59.0028 27.5423 59.3836 27.5423H59.9414L60.8206 29.6078L60.9658 29.9489L61.329 29.8748L62.344 29.6677L62.7112 29.5928L62.7071 29.218L62.6639 25.2606L62.661 24.9956L62.4287 24.8678L62.2012 24.7427L62.0929 24.6832L61.9695 24.6867C61.8545 24.6899 61.7418 24.6934 61.6313 24.6968C61.2732 24.7079 60.9374 24.7183 60.617 24.7183V24.7183L60.6097 24.7184L59.3353 24.7389L58.0646 24.7593H58.0631H58.0606H58.058H58.0555H58.0529H58.0504H58.0478H58.0453H58.0427H58.0402H58.0377H58.0351H58.0326H58.03H58.0275H58.0249H58.0224H58.0198H58.0173H58.0147H58.0122H58.0096H58.0071H58.0045H58.002H57.9994H57.9968H57.9943H57.9917H57.9892H57.9866H57.9841H57.9815H57.979H57.9764H57.9739H57.9713H57.9688H57.9662H57.9637H57.9611H57.9586H57.956H57.9534H57.9509H57.9483H57.9458H57.9432H57.9407H57.9381H57.9356H57.933H57.9304H57.9279H57.9253H57.9228H57.9202H57.9177H57.9151H57.9125H57.91H57.9074H57.9049H57.9023H57.8998H57.8972H57.8946H57.8921H57.8895H57.887H57.8844H57.8818H57.8793H57.8767H57.8741H57.8716H57.869H57.8665H57.8639H57.8613H57.8588H57.8562H57.8536H57.8511H57.8485H57.846H57.8434H57.8408H57.8383H57.8357H57.8331H57.8306H57.828H57.8254H57.8229H57.8203H57.8177H57.8152H57.8126H57.81H57.8075H57.8049H57.8023H57.7998H57.7972H57.7946H57.7921H57.7895H57.7869H57.7844H57.7818H57.7792H57.7766H57.7741H57.7715H57.7689H57.7664H57.7638H57.7612H57.7586H57.7561H57.7535H57.7509H57.7484H57.7458H57.7432H57.7406H57.7381H57.7355H57.7329H57.7303H57.7278H57.7252H57.7226H57.72H57.7175H57.7149H57.7123H57.7097H57.7071H57.7046H57.702H57.6994H57.6968H57.6942H57.6917H57.6891H57.6865H57.6839H57.6813H57.6788H57.6762H57.6736H57.671H57.6684H57.6659H57.6633H57.6607H57.6581H57.6555H57.6529H57.6504H57.6478H57.6452H57.6426H57.64H57.6374H57.6348H57.6323H57.6297H57.6271H57.6245H57.6219H57.6193H57.6167H57.6141H57.6116H57.609H57.6064H57.6038H57.6012H57.5986H57.596H57.5934H57.5908H57.5882H57.5856H57.5831H57.5805H57.5779H57.5753H57.5727H57.5701H57.5675H57.5649H57.5623H57.5597H57.5571H57.5545H57.5519H57.5493H57.5467H57.5441H57.5415H57.5389H57.5363H57.5337H57.5311H57.5285H57.5259H57.5233H57.5207H57.5181H57.5155H57.5129H57.5103H57.5077H57.5051H57.5025H57.4999H57.4973H57.4947H57.4921H57.4895H57.4869H57.4843H57.4817H57.4791H57.4765H57.4739H57.4713H57.4686H57.466H57.4634H57.4608H57.4582H57.4556H57.453H57.4504H57.4478H57.4452H57.4425H57.4399H57.4373H57.4347H57.4321H57.4295H57.4269H57.4243H57.4216H57.419H57.4164H57.4138H57.4112H57.4086H57.4059H57.4033H57.4007H57.3981H57.3955H57.3929H57.3902H57.3876H57.385H57.3824H57.3798H57.3771H57.3745H57.3719H57.3693H57.3666H57.364H57.3614H57.3588H57.3561H57.3535H57.3509H57.3483H57.3456H57.343H57.3404H57.3378H57.3351H57.3325H57.3299H57.3272H57.3246H57.322H57.3194H57.3167H57.3141H57.3115H57.3088H57.3062H57.3036H57.3009H57.2983H57.2957H57.293H57.2904H57.2878H57.2851H57.2825H57.2798H57.2772H57.2746H57.2719H57.2693H57.2667H57.264H57.2614H57.2587H57.2561H57.2535H57.2508H57.2482H57.2455H57.2429H57.2402H57.2376H57.235H57.2323H57.2297H57.227H57.2244H57.2217H57.2191H57.2164H57.2138H57.2111H57.2085H57.2058H57.2032H57.2005H57.1979H57.1952H57.1926H57.1899H57.1873H57.1846H57.182H57.1793H57.1767H57.174H57.1714H57.1687H57.166H57.1634H57.1607H57.1581H57.1554H57.1528H57.1501H57.1474H57.1448H57.1421H57.1394H57.1368H57.1341H57.1315H57.1288H57.1261H57.1235H57.1208H57.1181H57.1155H57.1128H57.1101H57.1075H57.1048H57.1021H57.0995H57.0968H57.0941H57.0915H57.0888H57.0861H57.0835H57.0808H57.0781H57.0754H57.0728H57.0701H57.0674H57.0647H57.0621H57.0594H57.0567H57.054H57.0514H57.0487H57.046H57.0433H57.0406H57.038H57.0353H57.0326H57.0299H57.0272H57.0245H57.0219H57.0192H57.0165H57.0138H57.0111H57.0084H57.0058H57.0031H57.0004H56.9977H56.995H56.9923H56.9896H56.9869H56.9842H56.9816H56.9789H56.9762H56.9735H56.9708H56.9681H56.9654H56.9627H56.96H56.9573H56.9546H56.9519H56.9492H56.9465H56.9438H56.9411H56.9384H56.9357H56.933H56.9303H56.9276H56.9249H56.9222H56.9195H56.9168H56.9141H56.9114H56.9087H56.906H56.9033H56.9006H56.8978H56.8951H56.8924H56.8897H56.887H56.8843H56.8816H56.8789H56.8762H56.8734H56.8707H56.868H56.8653H56.8626H56.8599H56.8572H56.8544H56.8517H56.849H56.8463H56.8436H56.8408H56.8381H56.8354H56.8327H56.83H56.8272H56.8245H56.8218H56.8191H56.8163H56.8136H56.8109H56.8081H56.8054H56.8027H56.8H56.7972H56.7945H56.7918H56.789H56.7863H56.7836H56.7808H56.7781H56.7754H56.7726H56.7699H56.7672H56.7644H56.7617H56.7589H56.7562H56.7535H56.7507H56.748H56.7452H56.7425H56.7398H56.737H56.7343H56.7315H56.7288H56.726H56.7233H55.631H55.6283H55.6257H55.623H55.6204H55.6178H55.6151H55.6125H55.6098H55.6072H55.6045H55.6019H55.5992H55.5966H55.5939H55.5913H55.5886H55.586H55.5833H55.5807H55.578H55.5754H55.5727H55.57H55.5674H55.5647H55.5621H55.5594H55.5567H55.5541H55.5514H55.5487H55.5461H55.5434H55.5408H55.5381H55.5354H55.5327H55.5301H55.5274H55.5247H55.5221H55.5194H55.5167H55.514H55.5114H55.5087H55.506H55.5033H55.5007H55.498H55.4953H55.4926H55.4899H55.4873H55.4846H55.4819H55.4792H55.4765H55.4738H55.4712H55.4685H55.4658H55.4631H55.4604H55.4577H55.455H55.4523H55.4496H55.4469H55.4443H55.4416H55.4389H55.4362H55.4335H55.4308H55.4281H55.4254H55.4227H55.42H55.4173H55.4146H55.4119H55.4092H55.4065H55.4038H55.401H55.3983H55.3956H55.3929H55.3902H55.3875H55.3848H55.3821H55.3794H55.3767H55.3739H55.3712H55.3685H55.3658H55.3631H55.3604H55.3576H55.3549H55.3522H55.3495H55.3468H55.344H55.3413H55.3386H55.3359H55.3331H55.3304H55.3277H55.325H55.3222H55.3195H55.3168H55.314H55.3113H55.3086H55.3058H55.3031H55.3004H55.2976H55.2949H55.2922H55.2894H55.2867H55.284H55.2812H55.2785H55.2757H55.273H55.2703H55.2675H55.2648H55.262H55.2593H55.2565H55.2538H55.251H55.2483H55.2455H55.2428H55.24H55.2373H55.2345H55.2318H55.229H55.2263H55.2235H55.2208H55.218H55.2152H55.2125H55.2097H55.207H55.2042H55.2014H55.1987H55.1959H55.1932H55.1904H55.1876H55.1849H55.1821H55.1793H55.1766H55.1738H55.171H55.1682H55.1655H55.1627H55.1599H55.1572H55.1544H55.1516H55.1488H55.1461H55.1433H55.1405H55.1377H55.1349H55.1322H55.1294H55.1266H55.1238H55.121H55.1183H55.1155H55.1127H55.1099H55.1071H55.1043H55.1015H55.0987H55.096H55.0932H55.0904H55.0876H55.0848H55.082H55.0792H55.0764H55.0736H55.0708H55.068H55.0652H55.0624H55.0596H55.0568H55.054H55.0512H55.0484H55.0456H55.0428H55.04H55.0372H55.0344H55.0316H55.0288H55.026H55.0232H55.0204H55.0175H55.0147H55.0119H55.0091H55.0063H55.0035H55.0007H54.9978H54.995H54.9922H54.9894H54.9866H54.9838H54.9809H54.9781H54.9753H54.9725H54.9697H54.9668H54.964H54.9612H54.9584H54.9555H54.9527H54.9499H54.947H54.9442H54.9414H54.9386H54.9357H54.9329H54.9301H54.9272H54.9244H54.9216H54.9187H54.9159H54.913H54.9102H54.9074H54.9045H54.9017H54.8988H54.896H54.8932H54.8903H54.8875H54.8846H54.8818H54.8789H54.8761H54.8732H54.8704H54.8675H54.8647H54.8618H54.859H54.8561H54.8533H54.8504H54.8476H54.8447H54.8419H54.839H54.8362H54.8333H54.8304H54.8276H54.8247H54.8219H54.819H54.8161H54.8133H54.8104H54.8075H54.8047H54.8018H54.7989H54.7961H54.7932H54.7903H54.7875H54.7846H54.7817H54.7789H54.776H54.7731H54.7702H54.7674H54.7645H54.7616H54.7587H54.7559H54.753H54.7501H54.7472H54.7443H54.7415H54.7386H54.7357H54.7328H54.7299H54.7271H54.7242H54.7213H54.7184H54.7155H54.7126H54.7097H54.7068H54.704H54.7011H54.6982H54.6953H54.6924H54.6895H54.6866H54.6837H54.6808H54.6779H54.675H54.6721H54.6692H54.6663H54.6634H54.6605H54.6576H54.6547H54.6518H54.6489H54.646H54.6431H54.6402H54.6373H54.6344H54.6315H54.6286H54.6256H54.6227H54.6198H54.6169H54.614H54.6111H54.6082H54.6053H54.6023H54.5994H54.5965H54.5936H54.5907H54.5878H54.5848H54.5819H54.579H54.5761H54.5732H54.5702H54.5673H54.5644H54.5615H54.5585H54.5556H54.5527H54.5498H54.5468H54.5439H54.541H54.538H54.5351H54.5322H54.5292H54.5263H54.5234H54.5204H54.5175H54.5146H54.5116H54.5087H54.5058H54.5028H54.4999H54.4969H54.494H54.4911H54.4881H54.4852H54.4822H54.4793H54.4763H54.4734H54.4704H54.4675H54.4646H54.4616H54.4587H54.4557H54.4528H54.4498H54.4469H54.4439H54.4409H54.438H54.435H54.4321H54.4291H54.4262H54.4232H54.4203H54.4173H54.4143H54.4114H54.4084H54.4054H54.4025H54.3995H54.3966H54.3936H54.3906H54.3877H54.3847H54.3817H54.3788H54.3758H54.3728H54.3699H54.3669H54.3639H54.3609H54.358H54.355H54.352H54.349H54.3461H54.3431H54.3401H54.3371H54.3342H54.3312H54.3282H54.3252H54.3222H54.3193H54.3163H54.3133H54.3103H54.3073H54.3043H54.3014H54.2984H54.2954H54.2924H54.2894H54.2864H54.2834H54.2804H54.2774H54.2744H54.2715H54.2685H54.2655H54.2625H54.2595H54.2565H54.2535H54.2505H54.2475H54.2445H54.2415H54.2385H54.2355H54.2325H54.2295H54.2265H54.2235H54.2205H54.2175H54.2145H54.2115H54.2084H54.2054H54.2024H54.1994H54.1964H54.1934H54.1904H54.1874H54.1844H54.1844ZM62.3653 34.6029L62.0426 34.5329L61.8767 34.8184L62.2691 35.0465L62.3653 34.6029Z" fill="#3290FF" stroke="#F5DEA6" stroke-width="0.907837"/>
<path d="M69.1925 26.9878L69.1925 26.9878L69.1905 26.9906C68.6307 27.7729 68.2211 28.6523 67.9826 29.5842C67.7333 30.5203 67.6068 31.4848 67.606 32.4536C67.5953 35.0201 68.1649 37.0041 69.4091 38.3052C70.6503 39.6032 72.456 40.2158 74.7436 40.2158C75.1029 40.2158 75.4934 40.1943 75.9254 40.1523L75.927 40.1521C76.3619 40.1083 76.806 40.0443 77.2592 39.9602L77.2606 39.9599C77.7258 39.872 78.1855 39.7569 78.6373 39.6152C79.0804 39.4798 79.5094 39.3018 79.9183 39.0837L80.2361 38.9142L80.1432 38.5662L79.6676 36.7843L79.545 36.3252L79.092 36.4686C78.4161 36.6827 77.7206 36.8289 77.0157 36.905C76.3416 36.9724 75.7943 37.005 75.374 37.005H75.3648L75.3555 37.0054C74.7311 37.0308 74.1099 36.9046 73.5449 36.6376C73.1179 36.4178 72.7601 36.084 72.5112 35.6733C72.2402 35.2177 72.0595 34.7142 71.979 34.1903L71.979 34.1903L71.9785 34.1873C71.8768 33.554 71.8269 32.9136 71.8296 32.2722L71.8295 32.268C71.8261 31.6062 71.8888 30.9457 72.0167 30.2963L72.0167 30.2963L72.0171 30.2943C72.1216 29.7505 72.314 29.2273 72.5867 28.7453C72.8167 28.3474 73.1423 28.0132 73.5341 27.773C73.9636 27.5285 74.4522 27.4069 74.9462 27.4217L74.9534 27.4219L74.9605 27.4219C75.369 27.4213 75.7766 27.4603 76.1776 27.5384C76.5239 27.6087 76.8536 27.7435 77.1497 27.9352L78.0298 29.8329L78.1715 30.1383L78.5049 30.0914L79.5403 29.9458L79.9327 29.8906L79.931 29.4943L79.9105 24.8519L79.9085 24.4H79.4566H78.3984H78.1423L78.0099 24.6192L77.7529 25.0445C77.2851 24.8243 76.7925 24.6598 76.2851 24.555L76.2851 24.5549L76.2743 24.5529C75.7197 24.4523 75.1573 24.4012 74.5937 24.4C73.4799 24.3675 72.3753 24.6105 71.378 25.1076L71.3779 25.1075L71.3707 25.1113C70.5094 25.56 69.7638 26.2023 69.1925 26.9878Z" fill="#3290FF" stroke="#F5DEA6" stroke-width="0.907837"/>
<path d="M97.032 24.7456L96.9221 24.6833L96.7957 24.6868C95.8031 24.714 94.7434 24.7344 93.6167 24.7481C92.4896 24.7617 91.4294 24.7685 90.4362 24.7685C89.4036 24.7685 88.3389 24.7617 87.2423 24.7481C86.1459 24.7344 85.1083 24.714 84.1293 24.6868L84.0148 24.6836L83.9125 24.7351L83.5826 24.9012L83.3341 25.0263L83.3328 25.3045L83.3123 29.5919L83.3104 29.9883L83.703 30.0435L84.7384 30.1892L85.0918 30.2389L85.2235 29.9072L86.2704 27.2716H88.4098V37.3456L86.7778 37.8661L86.431 37.9767L86.4637 38.3392L86.5661 39.477L86.6033 39.8903H87.0182H93.9977H94.4301L94.4511 39.4584L94.5125 38.1954L94.5306 37.8245L94.1706 37.7333L92.4649 37.3012V27.2716H94.634L95.6808 29.9072L95.8126 30.2389L96.1659 30.1892L97.2014 30.0435L97.5958 29.988L97.592 29.5897L97.5511 25.3L97.5486 25.0385L97.321 24.9095L97.032 24.7456Z" fill="#3290FF" stroke="#F5DEA6" stroke-width="0.907837"/>
<path d="M114.089 37.6757L114.089 37.6757L114.093 37.67C114.666 36.8973 115.079 36.0181 115.307 35.0839C115.553 34.1214 115.676 33.1318 115.673 32.1385C115.687 31.0825 115.543 30.0304 115.248 29.0165L115.248 29.016C114.983 28.1115 114.533 27.272 113.926 26.5507L113.926 26.5507L113.922 26.5455C113.317 25.848 112.557 25.3024 111.702 24.9527L111.702 24.9527L111.7 24.9516C110.745 24.5681 109.724 24.3805 108.696 24.3999C107.525 24.3624 106.361 24.5989 105.298 25.0905L105.298 25.0904L105.289 25.0946C104.403 25.5275 103.63 26.1625 103.033 26.9485L103.033 26.9485L103.03 26.9529C102.454 27.7314 102.038 28.6163 101.805 29.5566C101.561 30.5173 101.438 31.5049 101.439 32.4962L101.439 32.4966C101.444 34.8698 101.998 36.774 103.165 38.1466C104.353 39.5438 106.168 40.2009 108.511 40.2022C109.663 40.2362 110.807 39.9985 111.851 39.5083L111.851 39.5083L111.858 39.505C112.733 39.0758 113.497 38.4496 114.089 37.6757ZM107.115 27.6753C107.415 27.4689 107.757 27.3363 108.114 27.2855V27.289L108.584 27.2714C109.073 27.2532 109.554 27.3927 109.957 27.6693C110.34 27.9551 110.65 28.327 110.862 28.7548C111.117 29.2757 111.291 29.8322 111.38 30.4053L111.38 30.4053L111.38 30.4089C111.487 31.0664 111.541 31.7315 111.541 32.3976V32.3978C111.541 33.0079 111.49 33.617 111.39 34.2188L111.39 34.2188L111.389 34.2244C111.305 34.7689 111.135 35.2965 110.885 35.7872L110.884 35.7885C110.673 36.2062 110.365 36.5671 109.985 36.8411C109.573 37.1094 109.087 37.241 108.596 37.2172L108.577 37.2163L108.558 37.2169C108.077 37.2339 107.6 37.119 107.178 36.8849C106.811 36.6595 106.513 36.3367 106.317 35.9523C106.064 35.4497 105.894 34.9097 105.812 34.353L105.812 34.353L105.812 34.3488C105.699 33.6255 105.645 32.8943 105.651 32.1623L105.651 32.1604C105.653 31.5646 105.696 30.9696 105.781 30.3799L105.781 30.3799L105.782 30.374C105.853 29.8202 106.007 29.2801 106.236 28.7712C106.433 28.3383 106.735 27.9617 107.115 27.6753Z" fill="#3290FF" stroke="#F5DEA6" stroke-width="0.907837"/>
<path d="M127.058 34.067L127.045 34.0662L126.32 34.0253C126.182 34.0177 126.045 34.0052 125.909 33.9879V37.3117L127.584 37.6874L127.962 37.7721L127.938 38.1587L127.856 39.4649L127.829 39.8904H127.403H120.578H120.155L120.125 39.4685L120.043 38.3079L120.018 37.9542L120.356 37.8444L121.886 37.3457V27.2413L120.531 26.8413L120.163 26.7325L120.209 26.3513L120.355 25.1498L120.405 24.7409L120.816 24.7506C121.396 24.7642 121.913 24.7741 122.366 24.7801C122.819 24.7861 123.348 24.7899 123.954 24.7914C124.668 24.7914 125.352 24.7801 126.012 24.7598C126.681 24.7392 127.338 24.7277 127.995 24.7277M127.058 34.067L127.995 25.1816M127.058 34.067H127.071H127.117L131.315 40.3531L131.488 40.6113L131.791 40.5442L134.371 39.973L134.631 39.9156L134.708 39.661L134.976 38.7712L135.046 38.5406L134.894 38.3537L130.778 33.2895M127.058 34.067L130.778 33.2895M127.995 24.7277V25.1816M127.995 24.7277C127.994 24.7277 127.994 24.7277 127.994 24.7277L127.995 25.1816M127.995 24.7277C128.672 24.7267 129.347 24.8072 130.004 24.9676M127.995 25.1816C128.636 25.1806 129.276 25.257 129.899 25.4092M130.004 24.9676C130.004 24.9674 130.003 24.9672 130.002 24.967L129.899 25.4092M130.004 24.9676C130.615 25.1092 131.193 25.3635 131.71 25.7173L131.715 25.721L131.715 25.721C132.219 26.0761 132.625 26.5518 132.896 27.1046L132.9 27.1124L132.9 27.1125C133.193 27.7378 133.335 28.4229 133.316 29.113C133.317 29.5594 133.26 30.004 133.147 30.4356C133.03 30.8799 132.843 31.3026 132.592 31.6875L132.589 31.6913L132.589 31.6912C132.321 32.0943 131.992 32.4536 131.615 32.7565L131.612 32.7588L131.612 32.7588C131.352 32.9638 131.072 33.1415 130.778 33.2895M130.004 24.9676C130.005 24.9678 130.006 24.968 130.007 24.9682L129.899 25.4092M129.899 25.4092L130.778 33.2895M129.166 29.3349L129.166 29.3349L129.166 29.3459C129.165 29.5887 129.13 29.8302 129.062 30.063C128.997 30.2781 128.877 30.4723 128.713 30.6261C128.486 30.832 128.217 30.9856 127.924 31.0759C127.464 31.213 126.985 31.2764 126.505 31.2636L126.505 31.2635H126.493H126.492H126.491H126.491H126.49H126.489H126.489H126.488H126.487H126.487H126.486H126.485H126.485H126.484H126.483H126.483H126.482H126.481H126.481H126.48H126.479H126.479H126.478H126.477H126.477H126.476H126.475H126.475H126.474H126.473H126.473H126.472H126.471H126.471H126.47H126.469H126.468H126.468H126.467H126.466H126.466H126.465H126.464H126.464H126.463H126.462H126.462H126.461H126.46H126.459H126.459H126.458H126.457H126.457H126.456H126.455H126.455H126.454H126.453H126.452H126.452H126.451H126.45H126.45H126.449H126.448H126.447H126.447H126.446H126.445H126.444H126.444H126.443H126.442H126.442H126.441H126.44H126.439H126.439H126.438H126.437H126.436H126.436H126.435H126.434H126.434H126.433H126.432H126.431H126.431H126.43H126.429H126.428H126.428H126.427H126.426H126.425H126.425H126.424H126.423H126.422H126.422H126.421H126.42H126.419H126.419H126.418H126.417H126.416H126.416H126.415H126.414H126.413H126.412H126.412H126.411H126.41H126.409H126.409H126.408H126.407H126.406H126.406H126.405H126.404H126.403H126.402H126.402H126.401H126.4H126.399H126.399H126.398H126.397H126.396H126.395H126.395H126.394H126.393H126.392H126.391H126.391H126.39H126.389H126.388H126.387H126.387H126.386H126.385H126.384H126.383H126.383H126.382H126.381H126.38H126.379H126.379H126.378H126.377H126.376H126.375H126.375H126.374H126.373H126.372H126.371H126.37H126.37H126.369H126.368H126.367H126.366H126.366H126.365H126.364H126.363H126.362H126.361H126.361H126.36H126.359H126.358H126.357H126.356H126.356H126.355H126.354H126.353H126.352H126.351H126.351H126.35H126.349H126.348H126.347H126.346H126.345H126.345H126.344H126.343H126.342H126.341H126.34H126.339H126.339H126.338H126.337H126.336H126.335H126.334H126.333H126.333H126.332H126.331H126.33H126.329H126.328H126.327H126.327H126.326H126.325H126.324H126.323H126.322H126.321H126.32H126.32H126.319H126.318H126.317H126.316H126.315H126.314H126.313H126.312H126.312H126.311H126.31H126.309H126.308H126.307H126.306H126.305H126.304H126.304H126.303H126.302H126.301H126.3H126.299H126.298H126.297H126.296H126.295H126.295H126.294H126.293H126.292H126.291H126.29H126.289H126.288H126.287H126.286H126.285H126.284H126.284H126.283H126.282H126.281H126.28H126.279H126.278H126.277H126.276H126.275H126.274H126.273H126.272H126.271H126.271H126.27H126.269H126.268H126.267H126.266H126.265H126.264H126.263H126.262H126.261H126.26H126.259H126.258H126.257H126.256H126.255H126.255H126.254H126.253H126.252H126.251H126.25H126.249H126.248H126.247H126.246H126.245H126.244H126.243H126.242H126.241H126.24H126.239H126.238H126.237H126.236H126.235H126.234H126.233H126.232H126.231H126.23H126.229H126.228H126.227H126.226H126.226H126.225H126.224H126.223H126.222H126.221H126.22H126.219H126.218H126.217H126.216H126.215H126.214H126.213H126.212H126.211H126.21H126.209H126.208H126.207H126.206H126.205H126.204H126.203H126.202H126.201H126.2H126.199H126.198H126.197H126.196H126.195H126.194H126.193H126.192H126.19H126.189H126.188H126.187H126.186H126.185H126.184H126.183H126.182H126.181H126.18H126.179H126.178H126.177H126.176H126.175H126.174H126.173H126.172H126.171H126.17H126.169H126.168H126.167H126.166H126.165H126.164H126.163H126.162H126.161H126.159H126.158H126.157H126.156H126.155H126.154H126.153H126.152H126.151H126.15H126.149H126.148H126.147H126.146H126.145H126.144H126.143H126.141H126.14H126.139H126.138H126.137H126.136H126.135H126.134H126.133H126.132H126.131H126.13H126.129H126.128H126.126H126.125H126.124H126.123H126.122H126.121H126.12H126.119H126.118H126.117H126.116H126.115H126.113H126.112H126.111H126.11H126.109H126.108H126.107H126.106H126.105H126.104H126.102H126.101H126.1H126.099H126.098H126.097H126.096H126.095H126.094H126.092H126.091H126.09H126.089H126.088H126.087H126.086H126.085H126.084H126.082H126.081H126.08H126.079H126.078H126.077H126.076H126.075H126.073H126.072H126.071H126.07H126.069H126.068H126.067H126.065H126.064H126.063H126.062H126.061H126.06H126.059H126.057H126.056H126.055H126.054H126.053H126.052H126.051H126.049H126.048H126.047H126.046H126.045H126.044H126.042H126.041H126.04H126.039H126.038H126.037H126.035H126.034H126.033H126.032C125.992 31.2623 125.952 31.2605 125.911 31.2581V27.5752C126.179 27.5387 126.45 27.5202 126.721 27.5198L126.722 27.5198C127.073 27.5182 127.423 27.5532 127.766 27.6242L127.767 27.6244C128.039 27.68 128.297 27.7875 128.529 27.9408C128.722 28.0734 128.879 28.2537 128.983 28.4643C129.111 28.7363 129.173 29.0344 129.166 29.3349Z" fill="#3290FF" stroke="#F5DEA6" stroke-width="0.907837"/>
<path d="M147.01 24.7441L147.01 24.7441L147.008 24.7436C146.673 24.6592 146.35 24.5902 146.036 24.5399C145.746 24.4934 145.481 24.4655 145.224 24.4384C145.203 24.4362 145.183 24.4341 145.163 24.432C144.862 24.4001 144.621 24.3999 144.44 24.3999C143.616 24.3751 142.794 24.4882 142.008 24.7348L142.008 24.7347L142 24.7373C141.361 24.9506 140.771 25.2913 140.267 25.7388L140.267 25.7389C139.819 26.1378 139.467 26.6338 139.239 27.1893L139.239 27.1893L139.238 27.1916C139.025 27.7185 138.915 28.2813 138.913 28.8496C138.903 29.4168 139.029 29.9781 139.282 30.4859L139.282 30.4859L139.285 30.4926C139.535 30.974 139.872 31.4046 140.28 31.7621C140.714 32.1444 141.19 32.4767 141.698 32.7526C142.257 33.0612 142.831 33.3411 143.418 33.5913L143.418 33.5913L143.422 33.5932C144.189 33.9104 144.924 34.3011 145.616 34.7599C146.106 35.1019 146.298 35.4749 146.298 35.8886V35.8888C146.298 36.0619 146.266 36.2336 146.204 36.3951C146.145 36.5447 146.049 36.6769 145.925 36.7796C145.744 36.9254 145.535 37.0335 145.312 37.0976L145.31 37.0979C144.961 37.199 144.598 37.246 144.235 37.2372L144.235 37.2371L144.228 37.2371C143.997 37.235 143.766 37.2188 143.536 37.1886L143.533 37.1882C143.268 37.155 143.005 37.1036 142.746 37.0341L142.746 37.0341L142.742 37.033C142.471 36.9632 142.206 36.8758 141.947 36.7715L141.947 36.7715L141.943 36.77C141.757 36.6972 141.58 36.6043 141.415 36.4931L140.632 34.2077L140.51 33.8531L140.139 33.9053L139.104 34.051L138.708 34.1066L138.713 34.506L138.777 39.7674L138.782 40.2158H139.231H140.202H140.434L140.57 40.0288L140.8 39.7121C140.996 39.7814 141.196 39.8387 141.399 39.8837C141.732 39.961 142.072 40.0271 142.418 40.0769C142.758 40.1258 143.097 40.1655 143.43 40.1937C143.76 40.2216 144.058 40.236 144.32 40.2363C145.284 40.2606 146.245 40.1199 147.162 39.8201L147.163 39.8196C147.88 39.5826 148.539 39.1973 149.097 38.6887L149.097 38.6887L149.1 38.6854C149.586 38.2328 149.96 37.6728 150.19 37.0501C150.407 36.4674 150.518 35.851 150.519 35.2295C150.532 34.6537 150.43 34.0812 150.219 33.545L150.219 33.545L150.216 33.5357C150.016 33.0586 149.727 32.624 149.365 32.255L149.365 32.255L149.363 32.2527C148.996 31.8839 148.583 31.564 148.134 31.301C147.672 31.0285 147.195 30.7832 146.706 30.5665C146.4 30.4153 146.093 30.2702 145.801 30.1319C145.599 30.0361 145.404 29.9437 145.221 29.8548L145.219 29.8539C144.814 29.6598 144.42 29.4454 144.037 29.2114L144.037 29.2113L144.031 29.2075C143.765 29.0511 143.523 28.8579 143.311 28.6338L143.306 28.6281L143.3 28.6226C143.199 28.5227 143.14 28.3879 143.134 28.2459L143.134 28.2371L143.133 28.2284C143.124 28.1031 143.149 27.9775 143.206 27.8655C143.262 27.7562 143.346 27.664 143.45 27.5985C143.804 27.4038 144.205 27.3102 144.609 27.3281L144.617 27.3285L144.626 27.3286C145.061 27.3315 145.495 27.3799 145.92 27.4728L145.92 27.4729L145.924 27.4737C146.268 27.5455 146.602 27.6586 146.918 27.8103L147.686 29.8412L147.814 30.1797L148.173 30.1302L149.228 29.9846L149.624 29.9301L149.62 29.531L149.579 24.8499L149.575 24.3999H149.125H148.233H147.979L147.846 24.6165L147.649 24.9379C147.439 24.8641 147.226 24.7995 147.01 24.7441Z" fill="#3290FF" stroke="#F5DEA6" stroke-width="0.907837"/>
</svg>
