<svg width="99" height="26" viewBox="0 0 99 26" fill="none" xmlns="http://www.w3.org/2000/svg">
<path d="M46.6518 4.28286L46.6501 4.28116C45.527 3.18024 44.1969 2.31284 42.7366 1.72912L42.7366 1.7291L42.7325 1.72752C39.5892 0.506173 36.1024 0.506172 32.9591 1.72752L32.9591 1.72751L32.9573 1.72822C31.4902 2.30552 30.1555 3.17462 29.034 4.28286C27.9127 5.39098 27.028 6.71514 26.4334 8.17515C25.8 9.72012 25.4802 11.3756 25.4926 13.0453C25.4721 14.7065 25.7927 16.3541 26.4345 17.8864C27.0353 19.3399 27.9222 20.6578 29.0423 21.7618C30.1628 22.866 31.4938 23.7337 32.9563 24.3133L32.9603 24.3148C36.1045 25.5268 39.5871 25.5268 42.7314 24.3148L42.7314 24.3148L42.7377 24.3123C44.1967 23.7244 45.5259 22.8556 46.6499 21.7553L46.6516 21.7536C47.7672 20.6496 48.6528 19.3353 49.257 17.8868L49.2573 17.8859C49.8931 16.3523 50.2133 14.7063 50.199 13.0463C50.2115 11.3761 49.8917 9.72005 49.258 8.17464L49.2578 8.1742C48.6581 6.7159 47.7719 5.39269 46.6518 4.28286ZM40.4208 19.1354L40.4208 19.1353L40.413 19.1388C39.6081 19.4917 38.7382 19.6718 37.8594 19.6674L37.8558 19.6675C36.9766 19.67 36.1064 19.4898 35.3004 19.1384L35.3004 19.1383L35.2942 19.1357C34.5374 18.8191 33.8524 18.353 33.2801 17.7654C32.7078 17.1663 32.255 16.4635 31.9461 15.6947C31.6067 14.85 31.4386 13.9462 31.4515 13.0359L31.4516 13.0359L31.4516 13.0255C31.4436 12.114 31.6118 11.2095 31.947 10.3619L31.947 10.3619L31.9484 10.3583C32.2516 9.57225 32.7048 8.85269 33.2828 8.23971C33.8474 7.64783 34.5311 7.18248 35.2888 6.87438C36.9374 6.21497 38.7765 6.21492 40.4252 6.87425C41.1824 7.18359 41.8661 7.6489 42.4317 8.23992C43.0063 8.85021 43.4535 9.5689 43.7473 10.354L43.7476 10.355C44.0691 11.2084 44.2303 12.1139 44.2231 13.0258L44.223 13.0258L44.2231 13.034C44.2323 13.9451 44.0713 14.8499 43.7484 15.7019C43.4519 16.4701 43.0052 17.1715 42.4344 17.7651C41.8633 18.3539 41.1781 18.8202 40.4208 19.1354Z" fill="#3290FF" stroke="#F5DEA6" stroke-width="0.907837"/>
<path d="M54.6361 13.9382L54.636 13.9397C54.5982 14.812 54.4592 15.6771 54.2218 16.5174L54.2218 16.5174L54.2209 16.5209C54.0339 17.2038 53.6833 17.8309 53.1997 18.3478C52.9629 18.5809 52.68 18.7619 52.3691 18.8791C52.0557 18.9973 51.7209 19.048 51.3865 19.0279L51.3729 19.027H51.3593H50.0724H49.6185V19.481V24.1579V24.6118H50.0724H51.92C53.5899 24.6976 55.2435 24.246 56.6382 23.3233L56.6479 23.3169L56.6573 23.3099C57.8127 22.4569 58.7264 21.318 59.3084 20.0051L59.3084 20.0049C59.9171 18.631 60.3007 17.168 60.4448 15.6722C60.6043 14.1996 60.6845 12.7196 60.6852 11.2384V11.2382V6.77712H68.0938V24.1579V24.6118H68.5477H73.6498H74.1038V24.1579V1.89003V1.43611H73.6498H55.1575H54.7036V1.89003V11.1702C54.7036 12.0507 54.6812 12.9733 54.6361 13.9382Z" fill="#3290FF" stroke="#F5DEA6" stroke-width="0.907837"/>
<path d="M97.9942 13.3815L97.9941 13.3811C97.6245 12.3894 97.0455 11.4889 96.2965 10.7411L96.2965 10.741L96.292 10.7366C95.4755 9.94375 94.5022 9.33035 93.4347 8.93581L93.4347 8.93569L93.4246 8.93221C92.1319 8.48891 90.7693 8.28467 89.4036 8.32943H82.8184V1.88983V1.43591H82.3645H77.3077H76.8538V1.88983V24.1464V24.6003H77.3077H89.4059C90.7756 24.631 92.1394 24.4107 93.4299 23.9503L93.4327 23.9492C94.4946 23.5623 95.4661 22.9622 96.2875 22.186L96.2876 22.186L96.2929 22.1808C97.0417 21.4495 97.622 20.5637 97.9932 19.585L97.9938 19.5834C98.3671 18.588 98.5536 17.5323 98.5442 16.4692C98.5478 15.4153 98.3615 14.3694 97.9942 13.3815ZM82.8071 13.6478H89.2693H89.2812L89.2931 13.6471C90.1661 13.6013 91.0266 13.8687 91.7196 14.4011C92.0085 14.6539 92.2362 14.9691 92.3855 15.3228C92.5363 15.6805 92.603 16.0679 92.5804 16.4554L92.5788 16.4828L92.5805 16.5102C92.6045 16.8925 92.5386 17.275 92.3883 17.6272C92.2395 17.9758 92.012 18.2851 91.7237 18.531C91.026 19.0557 90.1656 19.3179 89.2936 19.2713L89.2815 19.2706H89.2693H82.8071V13.6478Z" fill="#3290FF" stroke="#F5DEA6" stroke-width="0.907837"/>
<path d="M13.5565 19.6674L13.5615 19.6674C14.5794 19.6723 15.5831 19.4298 16.4866 18.9611C17.342 18.4928 18.0507 17.7962 18.5336 16.9487L18.6641 16.7195H18.9279H24.2228H24.8684L24.6499 17.3271C24.2331 18.4862 23.6486 19.5779 22.9151 20.5674L22.915 20.5675C22.2016 21.5294 21.3374 22.3697 20.3558 23.0558L20.3534 23.0575C19.3708 23.7349 18.2922 24.2612 17.1536 24.6191L17.1526 24.6194C15.9678 24.9887 14.7332 25.1735 13.4922 25.1672C11.8339 25.1806 10.1891 24.8691 8.65066 24.25L8.65014 24.2498C7.19728 23.6631 5.87785 22.789 4.77094 21.6801C3.66411 20.5712 2.79255 19.2503 2.20849 17.7966C0.95129 14.6818 0.951337 11.2009 2.20863 8.08622L2.21066 8.08119L2.21069 8.0812C2.8125 6.64022 3.68622 5.32864 4.78411 4.21813L4.78642 4.21579L4.78643 4.2158C5.89201 3.11364 7.20792 2.24503 8.65593 1.66163L13.5565 19.6674ZM13.5565 19.6674C12.6858 19.673 11.8239 19.493 11.0282 19.1396L11.0243 19.1379C10.278 18.8147 9.60668 18.3405 9.05251 17.7453C8.49339 17.1267 8.05679 16.4076 7.76589 15.6262L7.76591 15.6262L7.76429 15.622C7.43805 14.7717 7.27702 13.867 7.28983 12.9565L7.28997 12.9565L7.28985 12.9452C7.28027 12.0435 7.43771 11.1477 7.75421 10.3032L7.7544 10.3027C8.04632 9.52089 8.48462 8.80193 9.04582 8.18433C9.59762 7.59685 10.2674 7.13262 11.0111 6.82208C11.8877 6.46589 12.8298 6.29924 13.7754 6.33308C14.7199 6.36687 15.6466 6.59994 16.4947 7.01696C17.3539 7.4666 18.0748 8.14128 18.5802 8.96892L18.713 9.18624H18.9676H24.2625H24.9118L24.6888 8.57644C24.2642 7.41516 23.6697 6.32324 22.9249 5.33629M13.5565 19.6674L22.9249 5.33629M22.9249 5.33629C22.2103 4.37815 21.3468 3.54069 20.3672 2.85573L20.366 2.85486C19.3846 2.17348 18.3046 1.64641 17.1637 1.29199C15.9791 0.922352 14.7445 0.737615 13.5036 0.744278C11.8432 0.728579 10.196 1.04027 8.65615 1.66154L22.9249 5.33629Z" fill="#3290FF" stroke="#F5DEA6" stroke-width="0.907837"/>
</svg>
